<?xml version="1.0" encoding="utf-8" standalone="no"?>
<!DOCTYPE svg PUBLIC "-//W3C//DTD SVG 1.1//EN"
  "http://www.w3.org/Graphics/SVG/1.1/DTD/svg11.dtd">
<!-- Created with matplotlib (https://matplotlib.org/) -->
<svg height="270pt" version="1.1" viewBox="0 0 216 270" width="216pt" xmlns="http://www.w3.org/2000/svg" xmlns:xlink="http://www.w3.org/1999/xlink">
 <defs>
  <style type="text/css">
*{stroke-linecap:butt;stroke-linejoin:round;}
  </style>
 </defs>
 <g id="figure_1">
  <g id="patch_1">
   <path d="M 0 270 
L 216 270 
L 216 0 
L 0 0 
z
" style="fill:#ffffff;"/>
  </g>
  <g id="axes_1">
   <g id="patch_2">
    <path d="M 39.644545 130.347879 
L 204.84 130.347879 
L 204.84 11.16 
L 39.644545 11.16 
z
" style="fill:#ffffff;"/>
   </g>
   <g id="matplotlib.axis_1">
    <g id="xtick_1">
     <g id="line2d_1">
      <defs>
       <path d="M 0 2 
L 0 -2 
" id="m1f0eb22141" style="stroke:#000000;stroke-width:0.8;"/>
      </defs>
      <g>
       <use style="stroke:#000000;stroke-width:0.8;" x="69.817608" xlink:href="#m1f0eb22141" y="130.347879"/>
      </g>
     </g>
     <g id="text_1">
      <!-- $10^{2}$ -->
      <defs>
       <path d="M 26.59375 63.796875 
C 26.59375 65.890625 26.5 66 25.09375 66 
C 21.203125 61.359375 15.296875 59.890625 9.703125 59.6875 
C 9.40625 59.6875 8.90625 59.6875 8.796875 59.5 
C 8.703125 59.296875 8.703125 59.09375 8.703125 57 
C 11.796875 57 17 57.59375 21 59.984375 
L 21 7.296875 
C 21 3.796875 20.796875 2.59375 12.203125 2.59375 
L 9.203125 2.59375 
L 9.203125 0 
C 14 0.09375 19 0.1875 23.796875 0.1875 
C 28.59375 0.1875 33.59375 0.09375 38.40625 0 
L 38.40625 2.59375 
L 35.40625 2.59375 
C 26.796875 2.59375 26.59375 3.6875 26.59375 7.296875 
z
" id="CMR17-49"/>
       <path d="M 42 31.84375 
C 42 37.96875 41.90625 48.421875 37.703125 56.453125 
C 34 63.484375 28.09375 66 22.90625 66 
C 18.09375 66 12 63.78125 8.203125 56.5625 
C 4.203125 49.015625 3.796875 39.671875 3.796875 31.84375 
C 3.796875 26.109375 3.90625 17.375 7 9.734375 
C 11.296875 -0.609375 19 -2 22.90625 -2 
C 27.5 -2 34.5 -0.109375 38.59375 9.4375 
C 41.59375 16.375 42 24.5 42 31.84375 
z
M 22.90625 -0.40625 
C 16.5 -0.40625 12.703125 5.125 11.296875 12.75 
C 10.203125 18.6875 10.203125 27.328125 10.203125 32.953125 
C 10.203125 40.6875 10.203125 47.109375 11.5 53.234375 
C 13.40625 61.78125 19 64.390625 22.90625 64.390625 
C 27 64.390625 32.296875 61.671875 34.203125 53.4375 
C 35.5 47.71875 35.59375 40.984375 35.59375 32.953125 
C 35.59375 26.421875 35.59375 18.375 34.40625 12.453125 
C 32.296875 1.5 26.40625 -0.40625 22.90625 -0.40625 
z
" id="CMR17-48"/>
       <path d="M 41.703125 15.46875 
L 39.90625 15.46875 
C 38.90625 8.390625 38.09375 7.1875 37.703125 6.59375 
C 37.203125 5.796875 30 5.796875 28.59375 5.796875 
L 9.40625 5.796875 
C 13 9.6875 20 16.765625 28.5 24.9375 
C 34.59375 30.71875 41.703125 37.5 41.703125 47.390625 
C 41.703125 59.1875 32.296875 66 21.796875 66 
C 10.796875 66 4.09375 56.296875 4.09375 47.296875 
C 4.09375 43.390625 7 42.890625 8.203125 42.890625 
C 9.203125 42.890625 12.203125 43.484375 12.203125 46.984375 
C 12.203125 50.09375 9.59375 51 8.203125 51 
C 7.59375 51 7 50.890625 6.59375 50.6875 
C 8.5 59.1875 14.296875 63.390625 20.40625 63.390625 
C 29.09375 63.390625 34.796875 56.5 34.796875 47.390625 
C 34.796875 38.703125 29.703125 31.21875 24 24.734375 
L 4.09375 2.296875 
L 4.09375 0 
L 39.296875 0 
z
" id="CMR17-50"/>
      </defs>
      <g transform="translate(63.785336 141.034666)scale(0.07497 -0.07497)">
       <use transform="scale(0.996264)" xlink:href="#CMR17-49"/>
       <use transform="translate(45.690477 0)scale(0.996264)" xlink:href="#CMR17-48"/>
       <use transform="translate(91.380954 36.153639)scale(0.697382)" xlink:href="#CMR17-50"/>
      </g>
     </g>
    </g>
    <g id="xtick_2">
     <g id="line2d_2">
      <g>
       <use style="stroke:#000000;stroke-width:0.8;" x="130.791767" xlink:href="#m1f0eb22141" y="130.347879"/>
      </g>
     </g>
     <g id="text_2">
      <!-- $10^{3}$ -->
      <defs>
       <path d="M 22.09375 34 
C 31 34 34.90625 26.140625 34.90625 17.09375 
C 34.90625 5.03125 28.5 0.390625 22.703125 0.390625 
C 17.40625 0.390625 8.796875 3.015625 6.09375 10.796875 
C 6.59375 10.59375 7.09375 10.59375 7.59375 10.59375 
C 10 10.59375 11.796875 12.1875 11.796875 14.796875 
C 11.796875 17.6875 9.59375 19 7.59375 19 
C 5.90625 19 3.296875 18.1875 3.296875 14.484375 
C 3.296875 5.234375 12.296875 -2 22.90625 -2 
C 34 -2 42.5 6.75 42.5 16.984375 
C 42.5 26.84375 34.5 34 25 35.09375 
C 32.59375 36.671875 39.90625 43.375 39.90625 52.390625 
C 39.90625 60.25 32 66 23 66 
C 13.90625 66 5.90625 60.34375 5.90625 52.296875 
C 5.90625 48.796875 8.5 48.1875 9.796875 48.1875 
C 11.90625 48.1875 13.703125 49.484375 13.703125 52.09375 
C 13.703125 54.6875 11.90625 56 9.796875 56 
C 9.40625 56 8.90625 56 8.5 55.796875 
C 11.40625 62.484375 19.296875 63.6875 22.796875 63.6875 
C 26.296875 63.6875 32.90625 61.96875 32.90625 52.296875 
C 32.90625 49.484375 32.5 44.546875 29.09375 40.21875 
C 26.09375 36.390625 22.703125 36.1875 19.40625 35.890625 
C 18.90625 35.890625 16.59375 35.6875 16.203125 35.6875 
C 15.5 35.59375 15.09375 35.5 15.09375 34.796875 
C 15.09375 34.09375 15.203125 34 17.203125 34 
z
" id="CMR17-51"/>
      </defs>
      <g transform="translate(124.759494 141.034666)scale(0.07497 -0.07497)">
       <use transform="scale(0.996264)" xlink:href="#CMR17-49"/>
       <use transform="translate(45.690477 0)scale(0.996264)" xlink:href="#CMR17-48"/>
       <use transform="translate(91.380954 36.153639)scale(0.697382)" xlink:href="#CMR17-51"/>
      </g>
     </g>
    </g>
    <g id="xtick_3">
     <g id="line2d_3">
      <g>
       <use style="stroke:#000000;stroke-width:0.8;" x="191.765925" xlink:href="#m1f0eb22141" y="130.347879"/>
      </g>
     </g>
     <g id="text_3">
      <!-- $10^{4}$ -->
      <defs>
       <path d="M 33.59375 64.796875 
C 33.59375 66.890625 33.5 67 31.703125 67 
L 2 19.59375 
L 2 17 
L 27.796875 17 
L 27.796875 7.1875 
C 27.796875 3.59375 27.59375 2.59375 20.59375 2.59375 
L 18.703125 2.59375 
L 18.703125 0 
C 21.90625 0.1875 27.296875 0.1875 30.703125 0.1875 
C 34.09375 0.1875 39.5 0.1875 42.703125 0 
L 42.703125 2.59375 
L 40.796875 2.59375 
C 33.796875 2.59375 33.59375 3.59375 33.59375 7.1875 
L 33.59375 17 
L 43.796875 17 
L 43.796875 19.59375 
L 33.59375 19.59375 
z
M 28.09375 58.171875 
L 28.09375 19.59375 
L 4 19.59375 
z
" id="CMR17-52"/>
      </defs>
      <g transform="translate(185.733652 141.034666)scale(0.07497 -0.07497)">
       <use transform="scale(0.996264)" xlink:href="#CMR17-49"/>
       <use transform="translate(45.690477 0)scale(0.996264)" xlink:href="#CMR17-48"/>
       <use transform="translate(91.380954 36.153639)scale(0.697382)" xlink:href="#CMR17-52"/>
      </g>
     </g>
    </g>
    <g id="xtick_4">
     <g id="line2d_4"/>
    </g>
    <g id="xtick_5">
     <g id="line2d_5"/>
    </g>
    <g id="xtick_6">
     <g id="line2d_6"/>
    </g>
    <g id="xtick_7">
     <g id="line2d_7"/>
    </g>
    <g id="xtick_8">
     <g id="line2d_8"/>
    </g>
    <g id="xtick_9">
     <g id="line2d_9"/>
    </g>
    <g id="xtick_10">
     <g id="line2d_10"/>
    </g>
    <g id="xtick_11">
     <g id="line2d_11"/>
    </g>
    <g id="xtick_12">
     <g id="line2d_12"/>
    </g>
    <g id="xtick_13">
     <g id="line2d_13"/>
    </g>
    <g id="xtick_14">
     <g id="line2d_14"/>
    </g>
    <g id="xtick_15">
     <g id="line2d_15"/>
    </g>
    <g id="xtick_16">
     <g id="line2d_16"/>
    </g>
    <g id="xtick_17">
     <g id="line2d_17"/>
    </g>
    <g id="xtick_18">
     <g id="line2d_18"/>
    </g>
    <g id="xtick_19">
     <g id="line2d_19"/>
    </g>
    <g id="xtick_20">
     <g id="line2d_20"/>
    </g>
    <g id="xtick_21">
     <g id="line2d_21"/>
    </g>
    <g id="xtick_22">
     <g id="line2d_22"/>
    </g>
    <g id="xtick_23">
     <g id="line2d_23"/>
    </g>
    <g id="xtick_24">
     <g id="line2d_24"/>
    </g>
    <g id="xtick_25">
     <g id="line2d_25"/>
    </g>
    <g id="text_4">
     <!-- Prevaccination titer -->
     <defs>
      <path d="M 19.796875 32 
L 35.796875 32 
C 48.703125 32 58.09375 40.359375 58.09375 49.796875 
C 58.09375 59.234375 48.90625 68 35.796875 68 
L 5.203125 68 
L 5.203125 65.390625 
C 12.09375 65.390625 13.203125 65.390625 13.203125 60.921875 
L 13.203125 7.078125 
C 13.203125 2.59375 12.09375 2.59375 5.203125 2.59375 
L 5.203125 0 
C 8.09375 0.1875 13.40625 0.1875 16.5 0.1875 
C 19.59375 0.1875 24.90625 0.1875 27.796875 0 
L 27.796875 2.59375 
C 20.90625 2.59375 19.796875 2.59375 19.796875 7.078125 
z
M 19.59375 34.09375 
L 19.59375 61.515625 
C 19.59375 64.890625 19.796875 65.390625 23.796875 65.390625 
L 33.90625 65.390625 
C 46.796875 65.390625 50.5 58.046875 50.5 49.796875 
C 50.5 40.75 46.09375 34.09375 33.90625 34.09375 
z
" id="CMR17-80"/>
      <path d="M 15 23.703125 
C 15 33.34375 19.09375 42.390625 26.59375 42.390625 
C 27.296875 42.390625 28 42.296875 28.703125 41.984375 
C 28.703125 41.984375 26.5 41.28125 26.5 38.671875 
C 26.5 36.265625 28.40625 35.265625 29.90625 35.265625 
C 31.09375 35.265625 33.296875 35.96875 33.296875 38.78125 
C 33.296875 41.984375 30.09375 44 26.703125 44 
C 19.09375 44 15.796875 36.5625 14.796875 33.046875 
L 14.703125 33.046875 
L 14.703125 44 
L 3.09375 42.890625 
L 3.09375 40.28125 
C 9 40.28125 9.90625 39.6875 9.90625 34.859375 
L 9.90625 6.921875 
C 9.90625 3.09375 9.5 2.59375 3.09375 2.59375 
L 3.09375 0 
C 5.5 0.1875 10.09375 0.1875 12.703125 0.1875 
C 15.59375 0.1875 20.703125 0.1875 23.40625 0 
L 23.40625 2.59375 
C 16.203125 2.59375 15 2.59375 15 7.109375 
z
" id="CMR17-114"/>
      <path d="M 38.09375 23.484375 
C 38.5 23.890625 38.5 24.09375 38.5 25.09375 
C 38.5 35.171875 33.09375 44 21.703125 44 
C 11.09375 44 2.703125 33.984375 2.703125 21.78125 
C 2.703125 8.65625 12.203125 -1 22.796875 -1 
C 34 -1 38.40625 9.671875 38.40625 11.796875 
C 38.40625 12.5 37.796875 12.5 37.59375 12.5 
C 36.90625 12.5 36.796875 12.296875 36.40625 11.078125 
C 34.203125 4.21875 28.703125 0.796875 23.5 0.796875 
C 19.203125 0.796875 14.90625 3.21875 12.203125 7.65625 
C 9.09375 12.796875 9.09375 18.75 9.09375 23.484375 
z
M 9.203125 25 
C 9.90625 39.234375 17.59375 42.390625 21.59375 42.390625 
C 28.40625 42.390625 33 36.0625 33.09375 25 
z
" id="CMR17-101"/>
      <path d="M 39.09375 33.953125 
C 40 36.171875 41.59375 40.1875 47.40625 40.390625 
L 47.40625 43 
C 45.5 42.890625 43 42.796875 41.09375 42.796875 
C 39 42.796875 35.703125 42.796875 33.703125 43 
L 33.703125 40.390625 
C 36.203125 40.1875 37.59375 38.984375 37.59375 36.375 
C 37.59375 35.46875 37.59375 35.265625 37 33.859375 
L 26 5.921875 
L 14.09375 36.0625 
C 13.5 37.375 13.5 37.578125 13.5 37.984375 
C 13.5 40.390625 16.796875 40.390625 18.296875 40.390625 
L 18.296875 43 
C 15.90625 42.796875 11.5 42.796875 9 42.796875 
C 6.296875 42.796875 3.203125 42.796875 1 43 
L 1 40.390625 
C 4.796875 40.390625 6.90625 40.390625 8.09375 37.28125 
L 22.59375 0.6875 
C 23.203125 -0.8125 23.296875 -1 24.203125 -1 
C 25.09375 -1 25.203125 -0.8125 25.796875 0.6875 
z
" id="CMR17-118"/>
      <path d="M 36 25.875 
C 36 32 36 35.546875 31.796875 39.59375 
C 28.09375 42.984375 23.796875 44 20.40625 44 
C 12.5 44 6.796875 37.625 6.796875 30.890625 
C 6.796875 27.1875 9.796875 27 10.40625 27 
C 11.703125 27 14 27.796875 14 30.59375 
C 14 33.09375 12.09375 34.1875 10.40625 34.1875 
C 10 34.1875 9.5 34.09375 9.203125 34 
C 11.296875 40.53125 16.703125 42.390625 20.203125 42.390625 
C 25.203125 42.390625 30.703125 37.828125 30.703125 29.296875 
L 30.703125 25.5 
C 24.796875 25.296875 17.703125 24.5 12.09375 21.453125 
C 5.796875 17.921875 4 12.84375 4 9 
C 4 1.203125 13 -1 18.296875 -1 
C 23.796875 -1 28.90625 2.109375 31.09375 7.890625 
C 31.296875 3.421875 34.09375 -0.609375 38.5 -0.609375 
C 40.59375 -0.609375 45.90625 0.796875 45.90625 8.796875 
L 45.90625 14.46875 
L 44.09375 14.46875 
L 44.09375 8.703125 
C 44.09375 2.515625 41.40625 1.703125 40.09375 1.703125 
C 36 1.703125 36 6.96875 36 11.4375 
z
M 30.703125 13.859375 
C 30.703125 5.046875 24.5 0.59375 19 0.59375 
C 14 0.59375 10.09375 4.34375 10.09375 9 
C 10.09375 12.046875 11.40625 17.40625 17.203125 20.65625 
C 22 23.390625 27.5 23.796875 30.703125 24 
z
" id="CMR17-97"/>
      <path d="M 34.90625 35 
C 33 35 30.203125 35 30.203125 31.484375 
C 30.203125 28.6875 32.5 27.890625 33.796875 27.890625 
C 34.5 27.890625 37.40625 28.1875 37.40625 31.6875 
C 37.40625 38.6875 30.59375 44 22.90625 44 
C 12.296875 44 3.296875 34.390625 3.296875 21.546875 
C 3.296875 8.140625 12.703125 -1 22.90625 -1 
C 35.296875 -1 38.40625 10.5625 38.40625 11.671875 
C 38.40625 12.078125 38.296875 12.375 37.59375 12.375 
C 36.90625 12.375 36.796875 12.28125 36.40625 10.96875 
C 33.796875 2.8125 28.09375 0.796875 23.796875 0.796875 
C 17.40625 0.796875 9.703125 6.734375 9.703125 21.640625 
C 9.703125 36.84375 17.09375 42.1875 23 42.1875 
C 26.90625 42.1875 32.703125 40.34375 34.90625 35 
z
" id="CMR17-99"/>
      <path d="M 15.5 61.890625 
C 15.5 64.09375 13.703125 66 11.40625 66 
C 9.203125 66 7.296875 64.1875 7.296875 61.890625 
C 7.296875 59.6875 9.09375 57.796875 11.40625 57.796875 
C 13.59375 57.796875 15.5 59.59375 15.5 61.890625 
z
M 3.796875 42.890625 
L 3.796875 40.296875 
C 9.40625 40.296875 10.203125 39.6875 10.203125 34.859375 
L 10.203125 6.921875 
C 10.203125 3.09375 9.796875 2.59375 3.40625 2.59375 
L 3.40625 0 
C 5.796875 0.1875 10.09375 0.1875 12.59375 0.1875 
C 15 0.1875 19.09375 0.1875 21.40625 0 
L 21.40625 2.59375 
C 15.5 2.59375 15.296875 3.203125 15.296875 6.8125 
L 15.296875 44 
z
" id="CMR17-105"/>
      <path d="M 41.5 30.53125 
C 41.5 35.65625 40.5 44 28.703125 44 
C 20.796875 44 16.703125 37.875 15.203125 33.84375 
L 15.09375 33.84375 
L 15.09375 44 
L 3.296875 42.890625 
L 3.296875 40.28125 
C 9.203125 40.28125 10.09375 39.6875 10.09375 34.859375 
L 10.09375 6.921875 
C 10.09375 3.09375 9.703125 2.59375 3.296875 2.59375 
L 3.296875 0 
C 5.703125 0.1875 10.09375 0.1875 12.703125 0.1875 
C 15.296875 0.1875 19.796875 0.1875 22.203125 0 
L 22.203125 2.59375 
C 15.796875 2.59375 15.40625 3 15.40625 6.921875 
L 15.40625 26.21875 
C 15.40625 35.453125 21 42.390625 28 42.390625 
C 35.40625 42.390625 36.203125 35.765625 36.203125 30.9375 
L 36.203125 6.921875 
C 36.203125 3.09375 35.796875 2.59375 29.40625 2.59375 
L 29.40625 0 
C 31.796875 0.1875 36.203125 0.1875 38.796875 0.1875 
C 41.40625 0.1875 45.90625 0.1875 48.296875 0 
L 48.296875 2.59375 
C 41.90625 2.59375 41.5 3 41.5 6.921875 
z
" id="CMR17-110"/>
      <path d="M 15.09375 40.390625 
L 29.09375 40.390625 
L 29.09375 43 
L 15.09375 43 
L 15.09375 62 
L 13.296875 62 
C 13.09375 51.4375 9.59375 42.1875 1.09375 41.984375 
L 1.09375 40.390625 
L 9.796875 40.390625 
L 9.796875 12.15625 
C 9.796875 10.234375 9.796875 -1 21.40625 -1 
C 27.296875 -1 30.703125 4.8125 30.703125 12.25 
L 30.703125 17.984375 
L 28.90625 17.984375 
L 28.90625 12.34375 
C 28.90625 5.421875 26.203125 0.796875 22 0.796875 
C 19.09375 0.796875 15.09375 2.796875 15.09375 11.953125 
z
" id="CMR17-116"/>
      <path d="M 43.09375 21.1875 
C 43.09375 34 33.796875 44 22.90625 44 
C 12 44 2.703125 34 2.703125 21.1875 
C 2.703125 8.59375 12 -1 22.90625 -1 
C 33.796875 -1 43.09375 8.59375 43.09375 21.1875 
z
M 22.90625 0.796875 
C 18.203125 0.796875 14.203125 3.59375 11.90625 7.5 
C 9.40625 12 9.09375 17.59375 9.09375 22 
C 9.09375 26.1875 9.296875 31.390625 11.90625 35.890625 
C 13.90625 39.1875 17.796875 42.390625 22.90625 42.390625 
C 27.40625 42.390625 31.203125 39.890625 33.59375 36.390625 
C 36.703125 31.6875 36.703125 25.09375 36.703125 22 
C 36.703125 18.09375 36.5 12.09375 33.796875 7.296875 
C 31 2.6875 26.703125 0.796875 22.90625 0.796875 
z
" id="CMR17-111"/>
     </defs>
     <g style="fill:#262626;" transform="translate(82.349101 151.713618)scale(0.09 -0.09)">
      <use transform="scale(0.996264)" xlink:href="#CMR17-80"/>
      <use transform="translate(62.586301 0)scale(0.996264)" xlink:href="#CMR17-114"/>
      <use transform="translate(97.867068 0)scale(0.996264)" xlink:href="#CMR17-101"/>
      <use transform="translate(138.352729 0)scale(0.996264)" xlink:href="#CMR17-118"/>
      <use transform="translate(181.440828 0)scale(0.996264)" xlink:href="#CMR17-97"/>
      <use transform="translate(227.131305 0)scale(0.996264)" xlink:href="#CMR17-99"/>
      <use transform="translate(267.616966 0)scale(0.996264)" xlink:href="#CMR17-99"/>
      <use transform="translate(308.102626 0)scale(0.996264)" xlink:href="#CMR17-105"/>
      <use transform="translate(332.973684 0)scale(0.996264)" xlink:href="#CMR17-110"/>
      <use transform="translate(383.869054 0)scale(0.996264)" xlink:href="#CMR17-97"/>
      <use transform="translate(429.559531 0)scale(0.996264)" xlink:href="#CMR17-116"/>
      <use transform="translate(464.840299 0)scale(0.996264)" xlink:href="#CMR17-105"/>
      <use transform="translate(489.711358 0)scale(0.996264)" xlink:href="#CMR17-111"/>
      <use transform="translate(535.401835 0)scale(0.996264)" xlink:href="#CMR17-110"/>
      <use transform="translate(616.373171 0)scale(0.996264)" xlink:href="#CMR17-116"/>
      <use transform="translate(651.653939 0)scale(0.996264)" xlink:href="#CMR17-105"/>
      <use transform="translate(676.524997 0)scale(0.996264)" xlink:href="#CMR17-116"/>
      <use transform="translate(711.805765 0)scale(0.996264)" xlink:href="#CMR17-101"/>
      <use transform="translate(752.291425 0)scale(0.996264)" xlink:href="#CMR17-114"/>
     </g>
    </g>
   </g>
   <g id="matplotlib.axis_2">
    <g id="ytick_1">
     <g id="line2d_26">
      <defs>
       <path d="M 2 0 
L -2 -0 
" id="md5db78bbd9" style="stroke:#000000;stroke-width:0.8;"/>
      </defs>
      <g>
       <use style="stroke:#000000;stroke-width:0.8;" x="39.644545" xlink:href="#md5db78bbd9" y="116.55914"/>
      </g>
     </g>
     <g id="text_5">
      <!-- $10^{0}$ -->
      <g transform="translate(22.08 119.152533)scale(0.07497 -0.07497)">
       <use transform="scale(0.996264)" xlink:href="#CMR17-49"/>
       <use transform="translate(45.690477 0)scale(0.996264)" xlink:href="#CMR17-48"/>
       <use transform="translate(91.380954 36.153639)scale(0.697382)" xlink:href="#CMR17-48"/>
      </g>
     </g>
    </g>
    <g id="ytick_2">
     <g id="line2d_27">
      <g>
       <use style="stroke:#000000;stroke-width:0.8;" x="39.644545" xlink:href="#md5db78bbd9" y="70.753939"/>
      </g>
     </g>
     <g id="text_6">
      <!-- $10^{1}$ -->
      <g transform="translate(22.08 73.347333)scale(0.07497 -0.07497)">
       <use transform="scale(0.996264)" xlink:href="#CMR17-49"/>
       <use transform="translate(45.690477 0)scale(0.996264)" xlink:href="#CMR17-48"/>
       <use transform="translate(91.380954 36.153639)scale(0.697382)" xlink:href="#CMR17-49"/>
      </g>
     </g>
    </g>
    <g id="ytick_3">
     <g id="line2d_28">
      <g>
       <use style="stroke:#000000;stroke-width:0.8;" x="39.644545" xlink:href="#md5db78bbd9" y="24.948739"/>
      </g>
     </g>
     <g id="text_7">
      <!-- $10^{2}$ -->
      <g transform="translate(22.08 27.542133)scale(0.07497 -0.07497)">
       <use transform="scale(0.996264)" xlink:href="#CMR17-49"/>
       <use transform="translate(45.690477 0)scale(0.996264)" xlink:href="#CMR17-48"/>
       <use transform="translate(91.380954 36.153639)scale(0.697382)" xlink:href="#CMR17-50"/>
      </g>
     </g>
    </g>
    <g id="ytick_4">
     <g id="line2d_29"/>
    </g>
    <g id="ytick_5">
     <g id="line2d_30"/>
    </g>
    <g id="ytick_6">
     <g id="line2d_31"/>
    </g>
    <g id="ytick_7">
     <g id="line2d_32"/>
    </g>
    <g id="ytick_8">
     <g id="line2d_33"/>
    </g>
    <g id="ytick_9">
     <g id="line2d_34"/>
    </g>
    <g id="ytick_10">
     <g id="line2d_35"/>
    </g>
    <g id="ytick_11">
     <g id="line2d_36"/>
    </g>
    <g id="ytick_12">
     <g id="line2d_37"/>
    </g>
    <g id="ytick_13">
     <g id="line2d_38"/>
    </g>
    <g id="ytick_14">
     <g id="line2d_39"/>
    </g>
    <g id="ytick_15">
     <g id="line2d_40"/>
    </g>
    <g id="ytick_16">
     <g id="line2d_41"/>
    </g>
    <g id="ytick_17">
     <g id="line2d_42"/>
    </g>
    <g id="ytick_18">
     <g id="line2d_43"/>
    </g>
    <g id="ytick_19">
     <g id="line2d_44"/>
    </g>
    <g id="ytick_20">
     <g id="line2d_45"/>
    </g>
    <g id="ytick_21">
     <g id="line2d_46"/>
    </g>
    <g id="ytick_22">
     <g id="line2d_47"/>
    </g>
    <g id="ytick_23">
     <g id="line2d_48"/>
    </g>
    <g id="ytick_24">
     <g id="line2d_49"/>
    </g>
    <g id="ytick_25">
     <g id="line2d_50"/>
    </g>
    <g id="text_8">
     <!-- Fold change -->
     <defs>
      <path d="M 54.40625 67.796875 
L 5.09375 67.796875 
L 5.09375 65.1875 
C 12 65.1875 13.09375 65.1875 13.09375 60.671875 
L 13.09375 7.03125 
C 13.09375 2.59375 12 2.59375 5.09375 2.59375 
L 5.09375 0 
C 8 0.1875 13.59375 0.1875 16.703125 0.1875 
C 20.796875 0.1875 25.59375 0.1875 29.703125 0 
L 29.703125 2.59375 
L 27.5 2.59375 
C 19.90625 2.59375 19.703125 3.578125 19.703125 7.125 
L 19.703125 32.390625 
L 28.703125 32.390625 
C 38 32.390625 38.90625 29.140625 38.90625 20.84375 
L 40.703125 20.84375 
L 40.703125 46.734375 
L 38.90625 46.734375 
C 38.90625 38.296875 38 35 28.703125 35 
L 19.703125 35 
L 19.703125 61.28125 
C 19.703125 64.6875 19.90625 65.1875 23.90625 65.1875 
L 36.796875 65.1875 
C 51.90625 65.1875 53.59375 58.96875 55 45.625 
L 56.796875 45.625 
z
" id="CMR17-70"/>
      <path d="M 15.296875 69 
L 3.40625 67.890625 
L 3.40625 65.296875 
C 9.296875 65.296875 10.203125 64.703125 10.203125 59.921875 
L 10.203125 6.859375 
C 10.203125 3.09375 9.796875 2.59375 3.40625 2.59375 
L 3.40625 0 
C 5.796875 0.1875 10.203125 0.1875 12.703125 0.1875 
C 15.296875 0.1875 19.703125 0.1875 22.09375 0 
L 22.09375 2.59375 
C 15.703125 2.59375 15.296875 2.984375 15.296875 6.859375 
z
" id="CMR17-108"/>
      <path d="M 29.203125 67.890625 
L 29.203125 65.296875 
C 35.09375 65.296875 36 64.703125 36 60.046875 
L 36 37.046875 
C 35.59375 37.546875 31.5 44 23.40625 44 
C 13.203125 44 3.296875 34.8125 3.296875 21.5 
C 3.296875 8.265625 12.59375 -1 22.40625 -1 
C 30.90625 -1 35.296875 5.640625 35.796875 6.34375 
L 35.796875 -1 
L 47.90625 -0.203125 
L 47.90625 2.40625 
C 42 2.40625 41.09375 3.015625 41.09375 7.859375 
L 41.09375 69 
z
M 35.796875 11.90625 
C 35.796875 8.875 34 6.140625 31.703125 4.125 
C 28.296875 1.09375 24.90625 0.59375 23 0.59375 
C 20.09375 0.59375 9.703125 2.109375 9.703125 21.390625 
C 9.703125 41.1875 21.296875 42.390625 23.90625 42.390625 
C 28.5 42.390625 32.203125 39.765625 34.5 36.140625 
C 35.796875 34.015625 35.796875 33.703125 35.796875 31.890625 
z
" id="CMR17-100"/>
      <path d="M 41.5 30.53125 
C 41.5 35.65625 40.5 44 28.703125 44 
C 20.5 44 16.5 37.375 15.296875 34.046875 
L 15.203125 34.046875 
L 15.203125 69 
L 3.296875 67.890625 
L 3.296875 65.296875 
C 9.203125 65.296875 10.09375 64.703125 10.09375 60.046875 
L 10.09375 6.921875 
C 10.09375 3.09375 9.703125 2.59375 3.296875 2.59375 
L 3.296875 0 
C 5.703125 0.1875 10.09375 0.1875 12.703125 0.1875 
C 15.296875 0.1875 19.796875 0.1875 22.203125 0 
L 22.203125 2.59375 
C 15.796875 2.59375 15.40625 3 15.40625 6.921875 
L 15.40625 26.21875 
C 15.40625 35.453125 21 42.390625 28 42.390625 
C 35.40625 42.390625 36.203125 35.765625 36.203125 30.9375 
L 36.203125 6.921875 
C 36.203125 3.09375 35.796875 2.59375 29.40625 2.59375 
L 29.40625 0 
C 31.796875 0.1875 36.203125 0.1875 38.796875 0.1875 
C 41.40625 0.1875 45.90625 0.1875 48.296875 0 
L 48.296875 2.59375 
C 41.90625 2.59375 41.5 3 41.5 6.921875 
z
" id="CMR17-104"/>
      <path d="M 11.09375 18.203125 
C 13 16.6875 16.296875 15 20.296875 15 
C 28.203125 15 35 21.234375 35 29.609375 
C 35 32.234375 34.203125 36.265625 31.203125 39.390625 
C 34 42.390625 38.09375 43.390625 40.40625 43.390625 
C 40.796875 43.390625 41.40625 43.390625 41.90625 43.09375 
C 41.5 42.984375 40.59375 42.59375 40.59375 40.984375 
C 40.59375 39.6875 41.5 38.796875 42.796875 38.796875 
C 44.296875 38.796875 45.09375 39.796875 45.09375 41.09375 
C 45.09375 42.984375 43.59375 45 40.40625 45 
C 36.40625 45 32.90625 43.09375 30.09375 40.484375 
C 27.09375 43.1875 23.5 44.1875 20.296875 44.1875 
C 12.40625 44.1875 5.59375 37.984375 5.59375 29.609375 
C 5.59375 23.859375 8.90625 20.21875 9.90625 19.21875 
C 6.90625 15.6875 6.90625 11.59375 6.90625 11.09375 
C 6.90625 8.5 7.90625 4.6875 11.296875 2.59375 
C 6.09375 1.28125 2 -2.875 2 -8.078125 
C 2 -15.5625 11.5 -21 22.90625 -21 
C 33.90625 -21 43.796875 -15.765625 43.796875 -7.96875 
C 43.796875 6 29 6 21.296875 6 
C 19 6 14.90625 6 14.40625 6.09375 
C 11.296875 6.59375 9.203125 9.390625 9.203125 12.890625 
C 9.203125 13.796875 9.203125 16 11.09375 18.203125 
z
M 20.296875 16.6875 
C 11.5 16.6875 11.5 27.59375 11.5 29.609375 
C 11.5 31.625 11.5 42.484375 20.296875 42.484375 
C 29.09375 42.484375 29.09375 31.625 29.09375 29.609375 
C 29.09375 27.59375 29.09375 16.6875 20.296875 16.6875 
z
M 22.90625 -19.3125 
C 12.90625 -19.3125 6 -13.796875 6 -8.078125 
C 6 -4.859375 7.703125 -1.84375 9.90625 -0.171875 
C 12.40625 1.59375 13.40625 1.59375 20.203125 1.59375 
C 28.40625 1.59375 39.796875 1.59375 39.796875 -8.078125 
C 39.796875 -13.796875 32.90625 -19.3125 22.90625 -19.3125 
z
" id="CMR17-103"/>
     </defs>
     <g style="fill:#262626;" transform="translate(17.336538 94.7537)rotate(-90)scale(0.09 -0.09)">
      <use transform="scale(0.996264)" xlink:href="#CMR17-70"/>
      <use transform="translate(52.176591 0)scale(0.996264)" xlink:href="#CMR17-111"/>
      <use transform="translate(97.867068 0)scale(0.996264)" xlink:href="#CMR17-108"/>
      <use transform="translate(122.738127 0)scale(0.996264)" xlink:href="#CMR17-100"/>
      <use transform="translate(203.709463 0)scale(0.996264)" xlink:href="#CMR17-99"/>
      <use transform="translate(241.592669 0)scale(0.996264)" xlink:href="#CMR17-104"/>
      <use transform="translate(292.488039 0)scale(0.996264)" xlink:href="#CMR17-97"/>
      <use transform="translate(338.178516 0)scale(0.996264)" xlink:href="#CMR17-110"/>
      <use transform="translate(389.073886 0)scale(0.996264)" xlink:href="#CMR17-103"/>
      <use transform="translate(434.764363 0)scale(0.996264)" xlink:href="#CMR17-101"/>
     </g>
    </g>
   </g>
   <g id="line2d_51">
    <defs>
     <path d="M 0 1.75 
C 0.464105 1.75 0.909265 1.565609 1.237437 1.237437 
C 1.565609 0.909265 1.75 0.464105 1.75 0 
C 1.75 -0.464105 1.565609 -0.909265 1.237437 -1.237437 
C 0.909265 -1.565609 0.464105 -1.75 0 -1.75 
C -0.464105 -1.75 -0.909265 -1.565609 -1.237437 -1.237437 
C -1.565609 -0.909265 -1.75 -0.464105 -1.75 0 
C -1.75 0.464105 -1.565609 0.909265 -1.237437 1.237437 
C -0.909265 1.565609 -0.464105 1.75 0 1.75 
z
" id="mca8f2e24a5" style="stroke:#9467bd;stroke-width:0.8;"/>
    </defs>
    <g clip-path="url(#p553c3d9e31)">
     <use style="fill:#9467bd;stroke:#9467bd;stroke-width:0.8;" x="91.617983" xlink:href="#mca8f2e24a5" y="53.651083"/>
     <use style="fill:#9467bd;stroke:#9467bd;stroke-width:0.8;" x="120.296866" xlink:href="#mca8f2e24a5" y="73.678393"/>
     <use style="fill:#9467bd;stroke:#9467bd;stroke-width:0.8;" x="72.490329" xlink:href="#mca8f2e24a5" y="39.084688"/>
     <use style="fill:#9467bd;stroke:#9467bd;stroke-width:0.8;" x="94.885992" xlink:href="#mca8f2e24a5" y="68.767201"/>
     <use style="fill:#9467bd;stroke:#9467bd;stroke-width:0.8;" x="88.501617" xlink:href="#mca8f2e24a5" y="64.060515"/>
     <use style="fill:#9467bd;stroke:#9467bd;stroke-width:0.8;" x="121.642434" xlink:href="#mca8f2e24a5" y="92.877587"/>
     <use style="fill:#9467bd;stroke:#9467bd;stroke-width:0.8;" x="96.879527" xlink:href="#mca8f2e24a5" y="117.722232"/>
     <use style="fill:#9467bd;stroke:#9467bd;stroke-width:0.8;" x="50.90054" xlink:href="#mca8f2e24a5" y="52.498277"/>
     <use style="fill:#9467bd;stroke:#9467bd;stroke-width:0.8;" x="91.487461" xlink:href="#mca8f2e24a5" y="69.903117"/>
     <use style="fill:#9467bd;stroke:#9467bd;stroke-width:0.8;" x="90.39025" xlink:href="#mca8f2e24a5" y="64.83863"/>
     <use style="fill:#9467bd;stroke:#9467bd;stroke-width:0.8;" x="90.643529" xlink:href="#mca8f2e24a5" y="79.106936"/>
     <use style="fill:#9467bd;stroke:#9467bd;stroke-width:0.8;" x="112.386885" xlink:href="#mca8f2e24a5" y="81.907433"/>
     <use style="fill:#9467bd;stroke:#9467bd;stroke-width:0.8;" x="124.00784" xlink:href="#mca8f2e24a5" y="99.846714"/>
     <use style="fill:#9467bd;stroke:#9467bd;stroke-width:0.8;" x="131.646394" xlink:href="#mca8f2e24a5" y="102.142112"/>
     <use style="fill:#9467bd;stroke:#9467bd;stroke-width:0.8;" x="72.790248" xlink:href="#mca8f2e24a5" y="40.071644"/>
     <use style="fill:#9467bd;stroke:#9467bd;stroke-width:0.8;" x="86.185362" xlink:href="#mca8f2e24a5" y="70.113658"/>
     <use style="fill:#9467bd;stroke:#9467bd;stroke-width:0.8;" x="89.338259" xlink:href="#mca8f2e24a5" y="72.33613"/>
    </g>
   </g>
   <g id="line2d_52">
    <g clip-path="url(#p553c3d9e31)">
     <use style="fill:#9467bd;stroke:#9467bd;stroke-width:0.8;" x="126.119534" xlink:href="#mca8f2e24a5" y="93.200789"/>
     <use style="fill:#9467bd;stroke:#9467bd;stroke-width:0.8;" x="175.716284" xlink:href="#mca8f2e24a5" y="95.450134"/>
     <use style="fill:#9467bd;stroke:#9467bd;stroke-width:0.8;" x="117.817224" xlink:href="#mca8f2e24a5" y="68.498802"/>
     <use style="fill:#9467bd;stroke:#9467bd;stroke-width:0.8;" x="166.403487" xlink:href="#mca8f2e24a5" y="114.032234"/>
     <use style="fill:#9467bd;stroke:#9467bd;stroke-width:0.8;" x="136.046412" xlink:href="#mca8f2e24a5" y="105.03691"/>
     <use style="fill:#9467bd;stroke:#9467bd;stroke-width:0.8;" x="175.462734" xlink:href="#mca8f2e24a5" y="116.84779"/>
     <use style="fill:#9467bd;stroke:#9467bd;stroke-width:0.8;" x="141.521191" xlink:href="#mca8f2e24a5" y="109.517038"/>
     <use style="fill:#9467bd;stroke:#9467bd;stroke-width:0.8;" x="159.225202" xlink:href="#mca8f2e24a5" y="100.532083"/>
     <use style="fill:#9467bd;stroke:#9467bd;stroke-width:0.8;" x="150.120913" xlink:href="#mca8f2e24a5" y="100.119353"/>
     <use style="fill:#9467bd;stroke:#9467bd;stroke-width:0.8;" x="137.56586" xlink:href="#mca8f2e24a5" y="90.72462"/>
     <use style="fill:#9467bd;stroke:#9467bd;stroke-width:0.8;" x="134.360493" xlink:href="#mca8f2e24a5" y="109.769562"/>
     <use style="fill:#9467bd;stroke:#9467bd;stroke-width:0.8;" x="149.510798" xlink:href="#mca8f2e24a5" y="99.486374"/>
     <use style="fill:#9467bd;stroke:#9467bd;stroke-width:0.8;" x="171.81459" xlink:href="#mca8f2e24a5" y="111.883923"/>
     <use style="fill:#9467bd;stroke:#9467bd;stroke-width:0.8;" x="166.82016" xlink:href="#mca8f2e24a5" y="112.792718"/>
     <use style="fill:#9467bd;stroke:#9467bd;stroke-width:0.8;" x="177.646915" xlink:href="#mca8f2e24a5" y="112.718879"/>
     <use style="fill:#9467bd;stroke:#9467bd;stroke-width:0.8;" x="101.092743" xlink:href="#mca8f2e24a5" y="110.420859"/>
     <use style="fill:#9467bd;stroke:#9467bd;stroke-width:0.8;" x="149.947418" xlink:href="#mca8f2e24a5" y="115.599495"/>
    </g>
   </g>
   <g id="line2d_53">
    <path clip-path="url(#p553c3d9e31)" d="M 39.644545 30.876435 
L 43.015881 33.372709 
L 46.387217 35.864128 
L 49.758552 38.350056 
L 53.129888 40.829775 
L 56.501224 43.302482 
L 59.87256 45.767271 
L 63.243896 48.22313 
L 66.615231 50.668924 
L 69.986567 53.103386 
L 73.357903 55.525105 
L 76.729239 57.93251 
L 80.100575 60.323864 
L 83.471911 62.697245 
L 86.843246 65.050538 
L 90.214582 67.381423 
L 93.585918 69.687373 
L 96.957254 71.96564 
L 100.32859 74.213264 
L 103.699925 76.427068 
L 107.071261 78.603676 
L 110.442597 80.739527 
L 113.813933 82.830902 
L 117.185269 84.873958 
L 120.556605 86.864777 
L 123.92794 88.799416 
L 127.299276 90.673978 
L 130.670612 92.484679 
L 134.041948 94.227934 
L 137.413284 95.900434 
L 140.784619 97.499237 
L 144.155955 99.021842 
L 147.527291 100.466264 
L 150.898627 101.831093 
L 154.269963 103.115539 
L 157.641299 104.319455 
L 161.012634 105.443343 
L 164.38397 106.48834 
L 167.755306 107.456178 
L 171.126642 108.349133 
L 174.497978 109.169959 
L 177.869313 109.921811 
L 181.240649 110.608159 
L 184.611985 111.232707 
L 187.983321 111.799312 
L 191.354657 112.311905 
L 194.725993 112.774422 
L 198.097328 113.190745 
L 201.468664 113.564656 
L 204.84 113.899789 
" style="fill:none;stroke:#1f77b4;stroke-linecap:round;stroke-width:2;"/>
   </g>
   <g id="line2d_54">
    <path clip-path="url(#p553c3d9e31)" d="M 39.644545 26.751653 
L 43.015881 29.281082 
L 46.387217 31.809839 
L 49.758552 34.337784 
L 53.129888 36.864746 
L 56.501224 39.39052 
L 59.87256 41.914857 
L 63.243896 44.437456 
L 66.615231 46.957956 
L 69.986567 49.475919 
L 73.357903 51.990819 
L 76.729239 54.50202 
L 80.100575 57.00876 
L 83.471911 59.51012 
L 86.843246 62.004999 
L 90.214582 64.492079 
L 93.585918 66.969783 
L 96.957254 69.436233 
L 100.32859 71.889199 
L 103.699925 74.326037 
L 107.071261 76.743638 
L 110.442597 79.138357 
L 113.813933 81.505953 
L 117.185269 83.841532 
L 120.556605 86.139499 
L 123.92794 88.393534 
L 127.299276 90.596594 
L 130.670612 92.740961 
L 134.041948 94.818346 
L 137.413284 96.820058 
L 140.784619 98.737252 
L 144.155955 100.561239 
L 147.527291 102.283874 
L 150.898627 103.897966 
L 154.269963 105.397695 
L 157.641299 106.778982 
L 161.012634 108.039765 
L 164.38397 109.180143 
L 167.755306 110.202372 
L 171.126642 111.110704 
L 174.497978 111.9111 
L 177.869313 112.610855 
L 181.240649 113.218184 
L 184.611985 113.741802 
L 187.983321 114.190554 
L 191.354657 114.573103 
L 194.725993 114.897691 
L 198.097328 115.171978 
L 201.468664 115.402941 
L 204.84 115.596835 
" style="fill:none;stroke:#ff7f0e;stroke-linecap:round;stroke-width:2;"/>
   </g>
   <g id="line2d_55">
    <path clip-path="url(#p553c3d9e31)" d="M 39.644545 25.654962 
L 43.015881 28.187278 
L 46.387217 30.719504 
L 49.758552 33.251614 
L 53.129888 35.783575 
L 56.501224 38.315344 
L 59.87256 40.846863 
L 63.243896 43.378063 
L 66.615231 45.908849 
L 69.986567 48.439102 
L 73.357903 50.968669 
L 76.729239 53.497349 
L 80.100575 56.024888 
L 83.471911 58.550955 
L 86.843246 61.075127 
L 90.214582 63.596859 
L 93.585918 66.115449 
L 96.957254 68.629998 
L 100.32859 71.139354 
L 103.699925 73.642043 
L 107.071261 76.136183 
L 110.442597 78.619382 
L 113.813933 81.088609 
L 117.185269 83.540044 
L 120.556605 85.968905 
L 123.92794 88.369255 
L 127.299276 90.733807 
L 130.670612 93.053733 
L 134.041948 95.318531 
L 137.413284 97.515987 
L 140.784619 99.63229 
L 144.155955 101.652388 
L 147.527291 103.560623 
L 150.898627 105.341682 
L 154.269963 106.981795 
L 157.641299 108.470043 
L 161.012634 109.79955 
L 164.38397 110.968302 
L 167.755306 111.979398 
L 171.126642 112.840665 
L 174.497978 113.563742 
L 177.869313 114.162839 
L 181.240649 114.653437 
L 184.611985 115.051133 
L 187.983321 115.370757 
L 191.354657 115.625798 
L 194.725993 115.828107 
L 198.097328 115.98782 
L 201.468664 116.11342 
L 204.84 116.211889 
" style="fill:none;stroke:#2ca02c;stroke-linecap:round;stroke-width:2;"/>
   </g>
   <g id="patch_3">
    <path d="M 39.644545 130.347879 
L 39.644545 11.16 
" style="fill:none;stroke:#262626;stroke-linecap:square;stroke-linejoin:miter;stroke-width:0.8;"/>
   </g>
   <g id="patch_4">
    <path d="M 39.644545 130.347879 
L 204.84 130.347879 
" style="fill:none;stroke:#262626;stroke-linecap:square;stroke-linejoin:miter;stroke-width:0.8;"/>
   </g>
   <g id="text_9">
    <!-- {\sf \textbf{A}} -->
    <defs>
     <path d="M 47.40625 64.71875 
C 45.90625 69 43 69 41 69 
L 32.203125 69 
C 30.203125 69 27.296875 69 25.796875 64.71875 
L 4.703125 4.671875 
C 4.203125 3.375 4.203125 3.1875 4.203125 2.6875 
C 4.203125 0 6.703125 0 8.09375 0 
L 11.703125 0 
C 13.5 0 16.59375 0 18 3.984375 
L 21.90625 15 
L 49.59375 15 
L 53 5.46875 
C 54.203125 2 54.90625 0 59.703125 0 
L 65.09375 0 
C 66.5 0 69 0 69 2.6875 
C 69 3.1875 69 3.375 68.5 4.671875 
z
M 32.09375 44.65625 
C 33.59375 49.015625 34.90625 52.796875 35.703125 56.375 
L 35.796875 56.375 
C 36.296875 53.984375 36.296875 53.78125 37.09375 51.5 
L 46.59375 23.59375 
L 24.90625 23.59375 
z
" id="CMSSBX10-65"/>
    </defs>
    <g transform="translate(11.109888 17.38665)scale(0.09 -0.09)">
     <use transform="scale(0.996264)" xlink:href="#CMSSBX10-65"/>
    </g>
   </g>
   <g id="legend_1">
    <g id="line2d_56"/>
    <g id="line2d_57">
     <g>
      <use style="fill:#9467bd;stroke:#9467bd;stroke-width:0.8;" x="148.20811" xlink:href="#mca8f2e24a5" y="18.657"/>
     </g>
    </g>
    <g id="text_10">
     <!-- Experiment -->
     <defs>
      <path d="M 60.703125 25.21875 
L 58.90625 25.21875 
C 56.703125 10.5625 55.40625 2.59375 37.796875 2.59375 
L 23.90625 2.59375 
C 19.90625 2.59375 19.703125 3.09375 19.703125 6.484375 
L 19.703125 34 
L 29.09375 34 
C 38.5 34 39.40625 30.609375 39.40625 22.328125 
L 41.203125 22.328125 
L 41.203125 48.21875 
L 39.40625 48.21875 
C 39.40625 39.96875 38.5 36.59375 29.09375 36.59375 
L 19.703125 36.59375 
L 19.703125 61.3125 
C 19.703125 64.703125 19.90625 65.1875 23.90625 65.1875 
L 37.59375 65.1875 
C 53.09375 65.1875 54.90625 59.03125 56.296875 45.828125 
L 58.09375 45.828125 
L 55.703125 67.796875 
L 5.09375 67.796875 
L 5.09375 65.1875 
C 12 65.1875 13.09375 65.1875 13.09375 60.71875 
L 13.09375 7.078125 
C 13.09375 2.59375 12 2.59375 5.09375 2.59375 
L 5.09375 0 
L 57.09375 0 
z
" id="CMR17-69"/>
      <path d="M 26 23.296875 
C 29 27.1875 32.40625 31.59375 35.203125 34.890625 
C 38.5 38.6875 42.296875 40.296875 46.703125 40.390625 
L 46.703125 43 
C 45 42.890625 41.5 42.796875 39.703125 42.796875 
C 37 42.796875 33.90625 42.796875 31.59375 43 
L 31.59375 40.390625 
C 33 40.1875 33.796875 39.1875 33.796875 37.796875 
C 33.796875 36 32.796875 34.890625 32.296875 34.1875 
L 24.90625 24.796875 
L 16.09375 36.296875 
C 15.203125 37.390625 15.203125 37.59375 15.203125 38.09375 
C 15.203125 39.296875 16.203125 40.296875 17.90625 40.390625 
L 17.90625 43 
C 15.5 42.796875 11.203125 42.796875 8.703125 42.796875 
C 6 42.796875 2.796875 42.796875 0.59375 43 
L 0.59375 40.390625 
C 6 40.390625 7.203125 40 9.59375 37 
L 21.09375 22.09375 
C 21.296875 21.890625 21.796875 21.296875 21.796875 21 
C 21.796875 20.59375 13.09375 9.890625 12 8.5 
C 7.5 3.09375 2.796875 2.6875 0.09375 2.59375 
L 0.09375 0 
C 1.796875 0.09375 5.296875 0.1875 7.09375 0.1875 
C 9.09375 0.1875 13.5 0.1875 15.296875 0 
L 15.296875 2.59375 
C 14.703125 2.6875 13.09375 2.890625 13.09375 5.1875 
C 13.09375 7 13.90625 8.09375 14.796875 9.296875 
L 23.09375 19.5 
L 31.796875 8.1875 
C 32.59375 7.09375 33.796875 5.59375 33.796875 4.890625 
C 33.796875 3.5 32.59375 2.6875 31 2.59375 
L 31 0 
C 33.40625 0.1875 37.703125 0.1875 40.203125 0.1875 
C 42.90625 0.1875 46.09375 0.1875 48.296875 0 
L 48.296875 2.59375 
C 43.296875 2.59375 41.796875 2.796875 39.40625 5.890625 
z
" id="CMR17-120"/>
      <path d="M 22 -17.40625 
C 15.59375 -17.40625 15.203125 -17 15.203125 -13.03125 
L 15.203125 5.9375 
C 18.09375 1.703125 22.296875 -1 27.59375 -1 
C 37.59375 -1 47.703125 7.859375 47.703125 21.59375 
C 47.703125 34.3125 39 44 28.703125 44 
C 22.703125 44 17.796875 40.671875 15 36.640625 
L 15 44 
L 3.09375 42.890625 
L 3.09375 40.265625 
C 9 40.265625 9.90625 39.671875 9.90625 34.8125 
L 9.90625 -13.03125 
C 9.90625 -16.890625 9.5 -17.40625 3.09375 -17.40625 
L 3.09375 -20 
C 5.5 -19.8125 9.90625 -19.8125 12.5 -19.8125 
C 15.09375 -19.8125 19.59375 -19.8125 22 -20 
z
M 15.203125 31.484375 
C 15.203125 32.90625 15.203125 35.015625 19.09375 38.765625 
C 19.59375 39.15625 23 42.1875 28 42.1875 
C 35.296875 42.1875 41.296875 33 41.296875 21.5 
C 41.296875 9.984375 34.90625 0.59375 27 0.59375 
C 23.40625 0.59375 19.5 2.3125 16.5 7.046875 
C 15.203125 9.28125 15.203125 9.875 15.203125 11.5 
z
" id="CMR17-112"/>
      <path d="M 67.59375 30.53125 
C 67.59375 35.5625 66.703125 44 54.796875 44 
C 48 44 43.296875 39.375 41.5 33.953125 
L 41.40625 33.953125 
C 40.203125 42.1875 34.296875 44 28.703125 44 
C 20.796875 44 16.703125 37.875 15.203125 33.84375 
L 15.09375 33.84375 
L 15.09375 44 
L 3.296875 42.890625 
L 3.296875 40.28125 
C 9.203125 40.28125 10.09375 39.6875 10.09375 34.859375 
L 10.09375 6.921875 
C 10.09375 3.09375 9.703125 2.59375 3.296875 2.59375 
L 3.296875 0 
C 5.703125 0.1875 10.09375 0.1875 12.703125 0.1875 
C 15.296875 0.1875 19.796875 0.1875 22.203125 0 
L 22.203125 2.59375 
C 15.796875 2.59375 15.40625 3 15.40625 6.921875 
L 15.40625 26.21875 
C 15.40625 35.453125 21 42.390625 28 42.390625 
C 35.40625 42.390625 36.203125 35.765625 36.203125 30.9375 
L 36.203125 6.921875 
C 36.203125 3.09375 35.796875 2.59375 29.40625 2.59375 
L 29.40625 0 
C 31.796875 0.1875 36.203125 0.1875 38.796875 0.1875 
C 41.40625 0.1875 45.90625 0.1875 48.296875 0 
L 48.296875 2.59375 
C 41.90625 2.59375 41.5 3 41.5 6.921875 
L 41.5 26.21875 
C 41.5 35.453125 47.09375 42.390625 54.09375 42.390625 
C 61.5 42.390625 62.296875 35.765625 62.296875 30.9375 
L 62.296875 6.921875 
C 62.296875 3.09375 61.90625 2.59375 55.5 2.59375 
L 55.5 0 
C 57.90625 0.1875 62.296875 0.1875 64.90625 0.1875 
C 67.5 0.1875 72 0.1875 74.40625 0 
L 74.40625 2.59375 
C 68 2.59375 67.59375 3 67.59375 6.921875 
z
" id="CMR17-109"/>
     </defs>
     <g transform="translate(156.642235 21.28095)scale(0.07497 -0.07497)">
      <use transform="scale(0.996264)" xlink:href="#CMR17-69"/>
      <use transform="translate(62.586301 0)scale(0.996264)" xlink:href="#CMR17-120"/>
      <use transform="translate(110.879216 0)scale(0.996264)" xlink:href="#CMR17-112"/>
      <use transform="translate(164.377025 0)scale(0.996264)" xlink:href="#CMR17-101"/>
      <use transform="translate(204.862685 0)scale(0.996264)" xlink:href="#CMR17-114"/>
      <use transform="translate(240.143453 0)scale(0.996264)" xlink:href="#CMR17-105"/>
      <use transform="translate(265.014512 0)scale(0.996264)" xlink:href="#CMR17-109"/>
      <use transform="translate(341.934101 0)scale(0.996264)" xlink:href="#CMR17-101"/>
      <use transform="translate(382.419762 0)scale(0.996264)" xlink:href="#CMR17-110"/>
      <use transform="translate(430.712678 0)scale(0.996264)" xlink:href="#CMR17-116"/>
     </g>
    </g>
    <g id="line2d_58">
     <path d="M 143.522485 27.231452 
L 152.893735 27.231452 
" style="fill:none;stroke:#1f77b4;stroke-linecap:round;stroke-width:2;"/>
    </g>
    <g id="line2d_59"/>
    <g id="text_11">
     <!-- $\alpha=0$ -->
     <defs>
      <path d="M 46.296875 25.234375 
C 46.296875 34.90625 40.796875 44 30.203125 44 
C 17.09375 44 4 29.71875 4 15.5625 
C 4 6.875 9.40625 -1 19.59375 -1 
C 25.796875 -1 33.203125 1.390625 40.296875 7.375 
C 41.703125 1.796875 44.796875 -1 49.09375 -1 
C 54.5 -1 57.203125 4.578125 57.203125 5.875 
C 57.203125 6.78125 56.5 6.78125 56.203125 6.78125 
C 55.40625 6.78125 55.296875 6.484375 55 5.6875 
C 54.09375 3.1875 51.796875 1 49.40625 1 
C 46.296875 1 46.296875 7.375 46.296875 13.46875 
C 56.5 25.640625 58.90625 38.203125 58.90625 38.296875 
C 58.90625 39.203125 58.09375 39.203125 57.796875 39.203125 
C 56.90625 39.203125 56.796875 38.90625 56.40625 37.109375 
C 55.09375 32.71875 52.5 24.9375 46.296875 16.75 
z
M 40 9.765625 
C 31.203125 1.890625 23.296875 1 19.796875 1 
C 12.703125 1 10.703125 7.28125 10.703125 11.96875 
C 10.703125 16.25 12.90625 26.4375 16 31.921875 
C 20.09375 38.90625 25.703125 41.984375 30.203125 41.984375 
C 39.90625 41.984375 39.90625 29.328125 39.90625 20.9375 
C 39.90625 18.453125 39.796875 15.859375 39.796875 13.359375 
C 39.796875 11.375 39.90625 10.875 40 9.765625 
z
" id="CMMI12-11"/>
      <path d="M 64.296875 32 
C 65.796875 32 67.296875 32 67.296875 33.6875 
C 67.296875 35.5 65.59375 35.5 63.90625 35.5 
L 8 35.5 
C 6.296875 35.5 4.59375 35.5 4.59375 33.6875 
C 4.59375 32 6.09375 32 7.59375 32 
z
M 63.90625 14.484375 
C 65.59375 14.484375 67.296875 14.484375 67.296875 16.296875 
C 67.296875 18 65.796875 18 64.296875 18 
L 7.59375 18 
C 6.09375 18 4.59375 18 4.59375 16.296875 
C 4.59375 14.484375 6.296875 14.484375 8 14.484375 
z
" id="CMR17-61"/>
     </defs>
     <g transform="translate(156.642235 29.855402)scale(0.07497 -0.07497)">
      <use transform="scale(0.996264)" xlink:href="#CMMI12-11"/>
      <use transform="translate(90.355032 0)scale(0.996264)" xlink:href="#CMR17-61"/>
      <use transform="translate(189.743829 0)scale(0.996264)" xlink:href="#CMR17-48"/>
     </g>
    </g>
    <g id="line2d_60">
     <path d="M 143.522485 35.805905 
L 152.893735 35.805905 
" style="fill:none;stroke:#ff7f0e;stroke-linecap:round;stroke-width:2;"/>
    </g>
    <g id="line2d_61"/>
    <g id="text_12">
     <!-- $\alpha=0.5$ -->
     <defs>
      <path d="M 18.40625 4.796875 
C 18.40625 7.6875 16 9.6875 13.59375 9.6875 
C 10.703125 9.6875 8.703125 7.296875 8.703125 4.890625 
C 8.703125 2 11.09375 0 13.5 0 
C 16.40625 0 18.40625 2.390625 18.40625 4.796875 
z
" id="CMMI12-58"/>
      <path d="M 11.40625 58.59375 
C 12.40625 58.1875 16.5 56.890625 20.703125 56.890625 
C 30 56.890625 35.09375 61.890625 38 64.6875 
C 38 65.484375 38 66 37.40625 66 
C 37.296875 66 37.09375 66 36.296875 65.59375 
C 32.796875 64.09375 28.703125 63 23.703125 63 
C 20.703125 63 16.203125 63.359375 11.296875 65.484375 
C 10.203125 66 10 66 9.90625 66 
C 9.40625 66 9.296875 65.890625 9.296875 63.90625 
L 9.296875 34.859375 
C 9.296875 33.015625 9.296875 32.5 10.296875 32.5 
C 10.796875 32.5 11 32.703125 11.5 33.421875 
C 14.703125 38.046875 19.09375 40 24.09375 40 
C 27.59375 40 35.09375 37.734375 35.09375 20.203125 
C 35.09375 16.984375 35.09375 11.1875 32.09375 6.59375 
C 29.59375 2.484375 25.703125 0.390625 21.40625 0.390625 
C 14.796875 0.390625 8.09375 4.984375 6.296875 12.6875 
C 6.703125 12.59375 7.5 12.390625 7.90625 12.390625 
C 9.203125 12.390625 11.703125 13.09375 11.703125 16.1875 
C 11.703125 18.890625 9.796875 20 7.90625 20 
C 5.59375 20 4.09375 18.59375 4.09375 15.796875 
C 4.09375 7.09375 11 -2 21.59375 -2 
C 31.90625 -2 41.703125 6.890625 41.703125 19.796875 
C 41.703125 32.09375 33.90625 41.59375 24.203125 41.59375 
C 19.09375 41.59375 14.796875 39.6875 11.40625 36 
z
" id="CMR17-53"/>
     </defs>
     <g transform="translate(156.642235 38.429855)scale(0.07497 -0.07497)">
      <use transform="scale(0.996264)" xlink:href="#CMMI12-11"/>
      <use transform="translate(90.355032 0)scale(0.996264)" xlink:href="#CMR17-61"/>
      <use transform="translate(189.743829 0)scale(0.996264)" xlink:href="#CMR17-48"/>
      <use transform="translate(235.434306 0)scale(0.996264)" xlink:href="#CMMI12-58"/>
      <use transform="translate(262.531483 0)scale(0.996264)" xlink:href="#CMR17-53"/>
     </g>
    </g>
    <g id="line2d_62">
     <path d="M 143.522485 44.380357 
L 152.893735 44.380357 
" style="fill:none;stroke:#2ca02c;stroke-linecap:round;stroke-width:2;"/>
    </g>
    <g id="line2d_63"/>
    <g id="text_13">
     <!-- $\alpha=1$ -->
     <g transform="translate(156.642235 47.004307)scale(0.07497 -0.07497)">
      <use transform="scale(0.996264)" xlink:href="#CMMI12-11"/>
      <use transform="translate(90.355032 0)scale(0.996264)" xlink:href="#CMR17-61"/>
      <use transform="translate(189.743829 0)scale(0.996264)" xlink:href="#CMR17-49"/>
     </g>
    </g>
   </g>
  </g>
  <g id="axes_2">
   <g id="patch_5">
    <path d="M 39.644545 235.22 
L 136.971738 235.22 
L 136.971738 157.747879 
L 39.644545 157.747879 
z
" style="fill:#ffffff;"/>
   </g>
   <g id="matplotlib.axis_3">
    <g id="xtick_26">
     <g id="line2d_64">
      <g>
       <use style="stroke:#000000;stroke-width:0.8;" x="46.596487" xlink:href="#m1f0eb22141" y="235.22"/>
      </g>
     </g>
     <g id="text_14">
      <!-- $10^{-5}$ -->
      <defs>
       <path d="M 65.90625 23 
C 67.59375 23 69.40625 23 69.40625 25 
C 69.40625 27 67.59375 27 65.90625 27 
L 11.796875 27 
C 10.09375 27 8.296875 27 8.296875 25 
C 8.296875 23 10.09375 23 11.796875 23 
z
" id="CMSY10-0"/>
      </defs>
      <g transform="translate(37.732206 245.973219)scale(0.07497 -0.07497)">
       <use transform="scale(0.996264)" xlink:href="#CMR17-49"/>
       <use transform="translate(45.690477 0)scale(0.996264)" xlink:href="#CMR17-48"/>
       <use transform="translate(91.380954 36.153639)scale(0.697382)" xlink:href="#CMSY10-0"/>
       <use transform="translate(145.621947 36.153639)scale(0.697382)" xlink:href="#CMR17-53"/>
      </g>
     </g>
    </g>
    <g id="xtick_27">
     <g id="line2d_65">
      <g>
       <use style="stroke:#000000;stroke-width:0.8;" x="74.404257" xlink:href="#m1f0eb22141" y="235.22"/>
      </g>
     </g>
     <g id="text_15">
      <!-- $10^{-3}$ -->
      <g transform="translate(65.539976 245.973219)scale(0.07497 -0.07497)">
       <use transform="scale(0.996264)" xlink:href="#CMR17-49"/>
       <use transform="translate(45.690477 0)scale(0.996264)" xlink:href="#CMR17-48"/>
       <use transform="translate(91.380954 36.153639)scale(0.697382)" xlink:href="#CMSY10-0"/>
       <use transform="translate(145.621947 36.153639)scale(0.697382)" xlink:href="#CMR17-51"/>
      </g>
     </g>
    </g>
    <g id="xtick_28">
     <g id="line2d_66">
      <g>
       <use style="stroke:#000000;stroke-width:0.8;" x="102.212026" xlink:href="#m1f0eb22141" y="235.22"/>
      </g>
     </g>
     <g id="text_16">
      <!-- $10^{-1}$ -->
      <g transform="translate(93.347746 245.973219)scale(0.07497 -0.07497)">
       <use transform="scale(0.996264)" xlink:href="#CMR17-49"/>
       <use transform="translate(45.690477 0)scale(0.996264)" xlink:href="#CMR17-48"/>
       <use transform="translate(91.380954 36.153639)scale(0.697382)" xlink:href="#CMSY10-0"/>
       <use transform="translate(145.621947 36.153639)scale(0.697382)" xlink:href="#CMR17-49"/>
      </g>
     </g>
    </g>
    <g id="xtick_29">
     <g id="line2d_67">
      <g>
       <use style="stroke:#000000;stroke-width:0.8;" x="130.019796" xlink:href="#m1f0eb22141" y="235.22"/>
      </g>
     </g>
     <g id="text_17">
      <!-- $10^{1}$ -->
      <g transform="translate(123.987524 245.906787)scale(0.07497 -0.07497)">
       <use transform="scale(0.996264)" xlink:href="#CMR17-49"/>
       <use transform="translate(45.690477 0)scale(0.996264)" xlink:href="#CMR17-48"/>
       <use transform="translate(91.380954 36.153639)scale(0.697382)" xlink:href="#CMR17-49"/>
      </g>
     </g>
    </g>
    <g id="text_18">
     <!-- Sparsity $\theta$ -->
     <defs>
      <path d="M 43.796875 67.984375 
C 43.796875 69.796875 43.703125 69.890625 43.09375 69.890625 
C 42.5 69.890625 42.296875 69.484375 41.90625 68.59375 
L 38.90625 61.953125 
C 35.09375 67.5 29.296875 70 23 70 
C 12.796875 70 4.59375 61.84375 4.59375 51.578125 
C 4.59375 48.453125 5.296875 44.015625 8.703125 39.78125 
C 12.40625 35.15625 15.90625 34.34375 23.90625 32.234375 
C 26.90625 31.421875 31.90625 30.109375 32.90625 29.703125 
C 38.59375 27.296875 41.59375 21.25 41.59375 15.609375 
C 41.59375 8.34375 36.5 0.59375 27.796875 0.59375 
C 17.09375 0.59375 7.09375 6.640625 6.40625 20.75 
C 6.296875 22.359375 6.203125 22.453125 5.5 22.453125 
C 4.703125 22.453125 4.59375 22.359375 4.59375 20.34375 
L 4.59375 0 
C 4.59375 -1.8125 4.703125 -1.90625 5.296875 -1.90625 
C 6 -1.90625 6.203125 -1.40625 7.59375 1.703125 
C 7.703125 2 7.703125 2.203125 9.59375 6.03125 
C 14.59375 -0.609375 23 -2 27.796875 -2 
C 38.703125 -2 46.40625 7.140625 46.40625 17.828125 
C 46.40625 23.0625 44.5 27.09375 43.40625 28.90625 
C 39.203125 35.359375 34.703125 36.5625 29.90625 37.765625 
C 29.203125 38.078125 29 38.078125 23.40625 39.484375 
C 18 40.890625 15.703125 41.59375 13.203125 44.3125 
C 10.40625 47.4375 9.40625 50.671875 9.40625 53.890625 
C 9.40625 60.4375 14.59375 67.59375 23.09375 67.59375 
C 33.703125 67.59375 40.296875 60.03125 41.796875 47.4375 
C 42.09375 45.625 42.203125 45.53125 42.90625 45.53125 
C 43.796875 45.53125 43.796875 45.828125 43.796875 47.546875 
z
" id="CMR17-83"/>
      <path d="M 30.90625 42 
C 30.90625 43.796875 30.796875 43.890625 30.203125 43.890625 
C 29.796875 43.890625 29.703125 43.796875 28.5 42.296875 
C 28.203125 41.890625 27.296875 40.890625 27 40.5 
C 23.796875 43.890625 19.296875 44 17.59375 44 
C 6.5 44 2.5 38.1875 2.5 32.390625 
C 2.5 23.390625 12.703125 21.296875 15.59375 20.6875 
C 21.90625 19.390625 24.09375 19 26.203125 17.1875 
C 27.5 16 29.703125 13.796875 29.703125 10.1875 
C 29.703125 6 27.296875 0.59375 18.09375 0.59375 
C 9.40625 0.59375 6.296875 7.1875 4.5 16 
C 4.203125 17.390625 4.203125 17.5 3.40625 17.5 
C 2.59375 17.5 2.5 17.390625 2.5 15.390625 
L 2.5 1 
C 2.5 -0.8125 2.59375 -0.90625 3.203125 -0.90625 
C 3.703125 -0.90625 3.796875 -0.8125 4.296875 0 
C 4.90625 0.890625 6.40625 3.296875 7 4.296875 
C 9 1.59375 12.5 -1 18.09375 -1 
C 28 -1 33.296875 4.390625 33.296875 12.1875 
C 33.296875 17.296875 30.59375 20 29.296875 21.1875 
C 26.296875 24.296875 22.796875 25 18.59375 25.796875 
C 13.09375 27 6.09375 28.390625 6.09375 34.5 
C 6.09375 37.09375 7.5 42.59375 17.59375 42.59375 
C 28.296875 42.59375 28.90625 32.59375 29.09375 29.390625 
C 29.203125 28.890625 29.703125 28.796875 30 28.796875 
C 30.90625 28.796875 30.90625 29.09375 30.90625 30.796875 
z
" id="CMR17-115"/>
      <path d="M 39 34.109375 
C 41.5 40.296875 46 40.390625 47.40625 40.390625 
L 47.40625 43 
C 45.5 42.890625 43 42.796875 41.09375 42.796875 
C 39 42.796875 35.703125 42.796875 33.703125 43 
L 33.703125 40.390625 
C 37.5 40.09375 37.59375 37.25 37.59375 36.4375 
C 37.59375 35.4375 37.40625 34.921875 36.90625 33.71875 
L 26 6.390625 
L 14.09375 35.9375 
C 13.59375 37.15625 13.59375 37.859375 13.59375 37.96875 
C 13.59375 40.1875 15.90625 40.390625 18.296875 40.390625 
L 18.296875 43 
C 15.90625 42.796875 11.59375 42.796875 9.09375 42.796875 
C 6.40625 42.796875 3.203125 42.796875 1 43 
L 1 40.390625 
C 6.40625 40.390625 7 39.890625 8.296875 36.640625 
L 23.203125 -0.484375 
C 18.703125 -12.421875 16.09375 -19.40625 9.796875 -19.40625 
C 8.703125 -19.40625 6.203125 -19.109375 4.40625 -17.28125 
C 6.703125 -17.078125 7.703125 -15.65625 7.703125 -13.9375 
C 7.703125 -12.21875 6.5 -10.703125 4.5 -10.703125 
C 2.296875 -10.703125 1.203125 -12.21875 1.203125 -14.046875 
C 1.203125 -18.09375 5.296875 -21 9.796875 -21 
C 15.59375 -21 19.203125 -15.359375 21.203125 -10.296875 
z
" id="CMR17-121"/>
      <path d="M 44.296875 50 
C 44.296875 60.140625 41.09375 70 32.90625 70 
C 18.90625 70 4 40.859375 4 18.984375 
C 4 14.40625 5 -1 15.5 -1 
C 29.09375 -1 44.296875 27.421875 44.296875 50 
z
M 14 36 
C 15.5 41.859375 17.59375 50.203125 21.59375 57.265625 
C 24.90625 63.21875 28.40625 67.984375 32.796875 67.984375 
C 36.09375 67.984375 38.296875 65.203125 38.296875 55.671875 
C 38.296875 52.09375 38 47.125 35.09375 36 
z
M 34.40625 33 
C 31.90625 23.25 29.796875 17 26.203125 10.734375 
C 23.296875 5.65625 19.796875 1 15.59375 1 
C 12.5 1 10 3.375 10 13.21875 
C 10 19.671875 11.59375 26.4375 13.203125 33 
z
" id="CMMI12-18"/>
     </defs>
     <g style="fill:#262626;" transform="translate(68.196533 256.652171)scale(0.09 -0.09)">
      <use transform="scale(0.996264)" xlink:href="#CMR17-83"/>
      <use transform="translate(50.89537 0)scale(0.996264)" xlink:href="#CMR17-112"/>
      <use transform="translate(101.79074 0)scale(0.996264)" xlink:href="#CMR17-97"/>
      <use transform="translate(147.481217 0)scale(0.996264)" xlink:href="#CMR17-114"/>
      <use transform="translate(182.761984 0)scale(0.996264)" xlink:href="#CMR17-115"/>
      <use transform="translate(218.563322 0)scale(0.996264)" xlink:href="#CMR17-105"/>
      <use transform="translate(243.434381 0)scale(0.996264)" xlink:href="#CMR17-116"/>
      <use transform="translate(276.112694 0)scale(0.996264)" xlink:href="#CMR17-121"/>
      <use transform="translate(354.481577 0)scale(0.996264)" xlink:href="#CMMI12-18"/>
     </g>
    </g>
   </g>
   <g id="matplotlib.axis_4">
    <g id="ytick_26">
     <g id="line2d_68">
      <g>
       <use style="stroke:#000000;stroke-width:0.8;" x="39.644545" xlink:href="#md5db78bbd9" y="231.199777"/>
      </g>
     </g>
     <g id="text_19">
      <!-- $10^{0}$ -->
      <g transform="translate(22.08 233.793171)scale(0.07497 -0.07497)">
       <use transform="scale(0.996264)" xlink:href="#CMR17-49"/>
       <use transform="translate(45.690477 0)scale(0.996264)" xlink:href="#CMR17-48"/>
       <use transform="translate(91.380954 36.153639)scale(0.697382)" xlink:href="#CMR17-48"/>
      </g>
     </g>
    </g>
    <g id="ytick_27">
     <g id="line2d_69">
      <g>
       <use style="stroke:#000000;stroke-width:0.8;" x="39.644545" xlink:href="#md5db78bbd9" y="204.489996"/>
      </g>
     </g>
     <g id="text_20">
      <!-- $10^{2}$ -->
      <g transform="translate(22.08 207.08339)scale(0.07497 -0.07497)">
       <use transform="scale(0.996264)" xlink:href="#CMR17-49"/>
       <use transform="translate(45.690477 0)scale(0.996264)" xlink:href="#CMR17-48"/>
       <use transform="translate(91.380954 36.153639)scale(0.697382)" xlink:href="#CMR17-50"/>
      </g>
     </g>
    </g>
    <g id="ytick_28">
     <g id="line2d_70">
      <g>
       <use style="stroke:#000000;stroke-width:0.8;" x="39.644545" xlink:href="#md5db78bbd9" y="177.780215"/>
      </g>
     </g>
     <g id="text_21">
      <!-- $10^{4}$ -->
      <g transform="translate(22.08 180.373608)scale(0.07497 -0.07497)">
       <use transform="scale(0.996264)" xlink:href="#CMR17-49"/>
       <use transform="translate(45.690477 0)scale(0.996264)" xlink:href="#CMR17-48"/>
       <use transform="translate(91.380954 36.153639)scale(0.697382)" xlink:href="#CMR17-52"/>
      </g>
     </g>
    </g>
    <g id="text_22">
     <!-- Fold change -->
     <g style="fill:#262626;" transform="translate(17.336538 220.4837)rotate(-90)scale(0.09 -0.09)">
      <use transform="scale(0.996264)" xlink:href="#CMR17-70"/>
      <use transform="translate(52.176591 0)scale(0.996264)" xlink:href="#CMR17-111"/>
      <use transform="translate(97.867068 0)scale(0.996264)" xlink:href="#CMR17-108"/>
      <use transform="translate(122.738127 0)scale(0.996264)" xlink:href="#CMR17-100"/>
      <use transform="translate(203.709463 0)scale(0.996264)" xlink:href="#CMR17-99"/>
      <use transform="translate(241.592669 0)scale(0.996264)" xlink:href="#CMR17-104"/>
      <use transform="translate(292.488039 0)scale(0.996264)" xlink:href="#CMR17-97"/>
      <use transform="translate(338.178516 0)scale(0.996264)" xlink:href="#CMR17-110"/>
      <use transform="translate(389.073886 0)scale(0.996264)" xlink:href="#CMR17-103"/>
      <use transform="translate(434.764363 0)scale(0.996264)" xlink:href="#CMR17-101"/>
     </g>
    </g>
   </g>
   <g id="line2d_71">
    <path clip-path="url(#p058fe911e8)" d="M 39.644545 157.74786 
L 41.630814 159.655695 
L 43.617083 161.563526 
L 45.603353 163.471354 
L 47.589622 165.379177 
L 49.575891 167.286991 
L 51.56216 169.194796 
L 53.54843 171.102586 
L 55.534699 173.010356 
L 57.520968 174.918098 
L 59.507237 176.825802 
L 61.493507 178.733452 
L 63.479776 180.641027 
L 65.466045 182.548499 
L 67.452314 184.455826 
L 69.438584 186.362954 
L 71.424853 188.269803 
L 73.411122 190.176266 
L 75.397392 192.082193 
L 77.383661 193.987376 
L 79.36993 195.891524 
L 81.356199 197.794239 
L 83.342469 199.694963 
L 85.328738 201.59293 
L 87.315007 203.487079 
L 89.301276 205.375949 
L 91.287546 207.257531 
L 93.273815 209.129081 
L 95.260084 210.986871 
L 97.246353 212.825875 
L 99.232623 214.639403 
L 101.218892 216.418692 
L 103.205161 218.152511 
L 105.19143 219.826904 
L 107.1777 221.425218 
L 109.163969 222.928679 
L 111.150238 224.317689 
L 113.136507 225.573932 
L 115.122777 226.683005 
L 117.109046 227.636926 
L 119.095315 228.435695 
L 121.081584 229.087293 
L 123.067854 229.606124 
L 125.054123 230.010505 
L 127.040392 230.320032 
L 129.026661 230.553481 
L 131.012931 230.727503 
L 132.9992 230.856056 
L 134.985469 230.950369 
L 136.971738 231.019207 
" style="fill:none;stroke:#1f77b4;stroke-linecap:round;stroke-width:1.3;"/>
   </g>
   <g id="line2d_72">
    <path clip-path="url(#p058fe911e8)" d="M 39.644545 182.231833 
L 41.630814 183.503722 
L 43.617083 184.77561 
L 45.603353 186.047495 
L 47.589622 187.319377 
L 49.575891 188.591253 
L 51.56216 189.863123 
L 53.54843 191.134983 
L 55.534699 192.40683 
L 57.520968 193.678658 
L 59.507237 194.95046 
L 61.493507 196.222227 
L 63.479776 197.493944 
L 65.466045 198.765592 
L 67.452314 200.037143 
L 69.438584 201.308562 
L 71.424853 202.579795 
L 73.411122 203.85077 
L 75.397392 205.121388 
L 77.383661 206.39151 
L 79.36993 207.660942 
L 81.356199 208.929418 
L 83.342469 210.196568 
L 85.328738 211.461879 
L 87.315007 212.724645 
L 89.301276 213.983891 
L 91.287546 215.23828 
L 93.273815 216.48598 
L 95.260084 217.724506 
L 97.246353 218.950509 
L 99.232623 220.159528 
L 101.218892 221.34572 
L 103.205161 222.5016 
L 105.19143 223.617862 
L 107.1777 224.683405 
L 109.163969 225.685712 
L 111.150238 226.611718 
L 113.136507 227.449214 
L 115.122777 228.188596 
L 117.109046 228.824543 
L 119.095315 229.357055 
L 121.081584 229.791454 
L 123.067854 230.137342 
L 125.054123 230.406929 
L 127.040392 230.613281 
L 129.026661 230.768913 
L 131.012931 230.884928 
L 132.9992 230.97063 
L 134.985469 231.033505 
L 136.971738 231.079397 
" style="fill:none;stroke:#ff7f0e;stroke-linecap:round;stroke-width:1.3;"/>
   </g>
   <g id="line2d_73">
    <path clip-path="url(#p058fe911e8)" d="M 39.644545 194.473819 
L 41.630814 195.427736 
L 43.617083 196.381652 
L 45.603353 197.335566 
L 47.589622 198.289477 
L 49.575891 199.243384 
L 51.56216 200.197287 
L 53.54843 201.151182 
L 55.534699 202.105067 
L 57.520968 203.058938 
L 59.507237 204.01279 
L 61.493507 204.966615 
L 63.479776 205.920402 
L 65.466045 206.874138 
L 67.452314 207.827802 
L 69.438584 208.781365 
L 71.424853 209.73479 
L 73.411122 210.688022 
L 75.397392 211.640985 
L 77.383661 212.593577 
L 79.36993 213.545651 
L 81.356199 214.497008 
L 83.342469 215.44737 
L 85.328738 216.396354 
L 87.315007 217.343428 
L 89.301276 218.287863 
L 91.287546 219.228654 
L 93.273815 220.164429 
L 95.260084 221.093324 
L 97.246353 222.012826 
L 99.232623 222.91959 
L 101.218892 223.809234 
L 103.205161 224.676144 
L 105.19143 225.513341 
L 107.1777 226.312498 
L 109.163969 227.064228 
L 111.150238 227.758733 
L 113.136507 228.386855 
L 115.122777 228.941391 
L 117.109046 229.418351 
L 119.095315 229.817736 
L 121.081584 230.143535 
L 123.067854 230.402951 
L 125.054123 230.605141 
L 127.040392 230.759905 
L 129.026661 230.876629 
L 131.012931 230.96364 
L 132.9992 231.027917 
L 134.985469 231.075073 
L 136.971738 231.109492 
" style="fill:none;stroke:#2ca02c;stroke-linecap:round;stroke-width:1.3;"/>
   </g>
   <g id="patch_6">
    <path d="M 39.644545 235.22 
L 39.644545 157.747879 
" style="fill:none;stroke:#262626;stroke-linecap:square;stroke-linejoin:miter;stroke-width:0.8;"/>
   </g>
   <g id="patch_7">
    <path d="M 39.644545 235.22 
L 136.971738 235.22 
" style="fill:none;stroke:#262626;stroke-linecap:square;stroke-linejoin:miter;stroke-width:0.8;"/>
   </g>
   <g id="text_23">
    <!-- {\sf \textbf{B}} -->
    <defs>
     <path d="M 13.90625 69 
C 10.296875 69 9.09375 67.890625 9.09375 64.1875 
L 9.09375 4.796875 
C 9.09375 1.1875 10.203125 0 13.90625 0 
L 41.296875 0 
C 48.703125 0 67.09375 1.296875 67.09375 19.171875 
C 67.09375 33 53.203125 35.1875 49.5 35.796875 
C 58.703125 37.890625 64 43.109375 64 50.953125 
C 64 69 42.703125 69 38.5 69 
z
M 23.203125 39.1875 
L 23.203125 60.390625 
L 34.90625 60.390625 
C 38.796875 60.390625 50.40625 60.09375 50.40625 50.640625 
C 50.40625 39.1875 37.296875 39.1875 34.796875 39.1875 
z
M 23.203125 8.59375 
L 23.203125 32 
L 35.796875 32 
C 39.296875 32 53.203125 32 53.203125 19.359375 
C 53.203125 9.28125 42.5 8.59375 37.703125 8.59375 
z
" id="CMSSBX10-66"/>
    </defs>
    <g transform="translate(11.109888 163.974529)scale(0.09 -0.09)">
     <use transform="scale(0.996264)" xlink:href="#CMSSBX10-66"/>
    </g>
   </g>
  </g>
  <g id="axes_3">
   <g id="patch_8">
    <path d="M 177.03223 235.22 
L 204.84 235.22 
L 204.84 157.747879 
L 177.03223 157.747879 
z
" style="fill:#ffffff;"/>
   </g>
   <g id="matplotlib.axis_5">
    <g id="xtick_30">
     <g id="line2d_74">
      <g>
       <use style="stroke:#000000;stroke-width:0.8;" x="180.957251" xlink:href="#m1f0eb22141" y="235.22"/>
      </g>
     </g>
     <g id="text_24">
      <!-- $1$ -->
      <g transform="translate(178.830658 245.906787)scale(0.07497 -0.07497)">
       <use transform="scale(0.996264)" xlink:href="#CMR17-49"/>
      </g>
     </g>
    </g>
    <g id="xtick_31">
     <g id="line2d_75">
      <g>
       <use style="stroke:#000000;stroke-width:0.8;" x="187.609827" xlink:href="#m1f0eb22141" y="235.22"/>
      </g>
     </g>
     <g id="text_25">
      <!-- $2$ -->
      <g transform="translate(185.483234 245.906787)scale(0.07497 -0.07497)">
       <use transform="scale(0.996264)" xlink:href="#CMR17-50"/>
      </g>
     </g>
    </g>
    <g id="xtick_32">
     <g id="line2d_76">
      <g>
       <use style="stroke:#000000;stroke-width:0.8;" x="194.262403" xlink:href="#m1f0eb22141" y="235.22"/>
      </g>
     </g>
     <g id="text_26">
      <!-- $3$ -->
      <g transform="translate(192.135811 245.906787)scale(0.07497 -0.07497)">
       <use transform="scale(0.996264)" xlink:href="#CMR17-51"/>
      </g>
     </g>
    </g>
    <g id="xtick_33">
     <g id="line2d_77">
      <g>
       <use style="stroke:#000000;stroke-width:0.8;" x="200.91498" xlink:href="#m1f0eb22141" y="235.22"/>
      </g>
     </g>
     <g id="text_27">
      <!-- $4$ -->
      <g transform="translate(198.788387 245.906787)scale(0.07497 -0.07497)">
       <use transform="scale(0.996264)" xlink:href="#CMR17-52"/>
      </g>
     </g>
    </g>
    <g id="text_28">
     <!-- Infection -->
     <defs>
      <path d="M 19.703125 60.90625 
C 19.703125 65.390625 20.90625 65.390625 28.09375 65.390625 
L 28.09375 68 
C 24.90625 67.796875 19.796875 67.796875 16.40625 67.796875 
C 13 67.796875 7.90625 67.796875 4.703125 68 
L 4.703125 65.390625 
C 11.90625 65.390625 13.09375 65.390625 13.09375 60.90625 
L 13.09375 7.078125 
C 13.09375 2.59375 11.90625 2.59375 4.703125 2.59375 
L 4.703125 0 
C 7.90625 0.1875 13 0.1875 16.40625 0.1875 
C 19.796875 0.1875 24.90625 0.1875 28.09375 0 
L 28.09375 2.59375 
C 20.90625 2.59375 19.703125 2.59375 19.703125 7.078125 
z
" id="CMR17-73"/>
      <path d="M 15.296875 40.390625 
L 26.703125 40.390625 
L 26.703125 43 
L 15.09375 43 
L 15.09375 55.296875 
C 15.09375 63.6875 19.296875 68.390625 23.59375 68.390625 
C 24.90625 68.390625 26.40625 68.171875 27.40625 67.796875 
C 26.59375 67.59375 24.5 66.890625 24.5 64.390625 
C 24.5 61.796875 26.5 61 27.90625 61 
C 29.296875 61 31.296875 61.796875 31.296875 64.390625 
C 31.296875 68.015625 27.703125 70 23.703125 70 
C 18 70 10.203125 65.796875 10.203125 55.09375 
L 10.203125 43 
L 2.203125 43 
L 2.203125 40.390625 
L 10.203125 40.390625 
L 10.203125 6.890625 
C 10.203125 3.09375 9.796875 2.59375 3.40625 2.59375 
L 3.40625 0 
C 5.796875 0.1875 10.40625 0.1875 13 0.1875 
C 15.90625 0.1875 21 0.1875 23.703125 0 
L 23.703125 2.59375 
C 16.5 2.59375 15.296875 2.59375 15.296875 7.09375 
z
" id="CMR17-102"/>
     </defs>
     <g style="fill:#262626;" transform="translate(173.272275 256.58574)scale(0.09 -0.09)">
      <use transform="scale(0.996264)" xlink:href="#CMR17-73"/>
      <use transform="translate(32.638409 0)scale(0.996264)" xlink:href="#CMR17-110"/>
      <use transform="translate(83.533779 0)scale(0.996264)" xlink:href="#CMR17-102"/>
      <use transform="translate(111.007291 0)scale(0.996264)" xlink:href="#CMR17-101"/>
      <use transform="translate(151.492952 0)scale(0.996264)" xlink:href="#CMR17-99"/>
      <use transform="translate(191.978612 0)scale(0.996264)" xlink:href="#CMR17-116"/>
      <use transform="translate(227.25938 0)scale(0.996264)" xlink:href="#CMR17-105"/>
      <use transform="translate(252.130439 0)scale(0.996264)" xlink:href="#CMR17-111"/>
      <use transform="translate(297.820916 0)scale(0.996264)" xlink:href="#CMR17-110"/>
     </g>
    </g>
   </g>
   <g id="matplotlib.axis_6">
    <g id="ytick_29">
     <g id="line2d_78">
      <g>
       <use style="stroke:#000000;stroke-width:0.8;" x="177.03223" xlink:href="#md5db78bbd9" y="235.22"/>
      </g>
     </g>
     <g id="text_29">
      <!-- $0.00$ -->
      <g transform="translate(156.238553 237.813394)scale(0.07497 -0.07497)">
       <use transform="scale(0.996264)" xlink:href="#CMR17-48"/>
       <use transform="translate(45.690477 0)scale(0.996264)" xlink:href="#CMMI12-58"/>
       <use transform="translate(72.787654 0)scale(0.996264)" xlink:href="#CMR17-48"/>
       <use transform="translate(118.478131 0)scale(0.996264)" xlink:href="#CMR17-48"/>
      </g>
     </g>
    </g>
    <g id="ytick_30">
     <g id="line2d_79">
      <g>
       <use style="stroke:#000000;stroke-width:0.8;" x="177.03223" xlink:href="#md5db78bbd9" y="216.774257"/>
      </g>
     </g>
     <g id="text_30">
      <!-- $0.25$ -->
      <g transform="translate(156.238553 219.367651)scale(0.07497 -0.07497)">
       <use transform="scale(0.996264)" xlink:href="#CMR17-48"/>
       <use transform="translate(45.690477 0)scale(0.996264)" xlink:href="#CMMI12-58"/>
       <use transform="translate(72.787654 0)scale(0.996264)" xlink:href="#CMR17-50"/>
       <use transform="translate(118.478131 0)scale(0.996264)" xlink:href="#CMR17-53"/>
      </g>
     </g>
    </g>
    <g id="ytick_31">
     <g id="line2d_80">
      <g>
       <use style="stroke:#000000;stroke-width:0.8;" x="177.03223" xlink:href="#md5db78bbd9" y="198.328514"/>
      </g>
     </g>
     <g id="text_31">
      <!-- $0.50$ -->
      <g transform="translate(156.238553 200.921907)scale(0.07497 -0.07497)">
       <use transform="scale(0.996264)" xlink:href="#CMR17-48"/>
       <use transform="translate(45.690477 0)scale(0.996264)" xlink:href="#CMMI12-58"/>
       <use transform="translate(72.787654 0)scale(0.996264)" xlink:href="#CMR17-53"/>
       <use transform="translate(118.478131 0)scale(0.996264)" xlink:href="#CMR17-48"/>
      </g>
     </g>
    </g>
    <g id="ytick_32">
     <g id="line2d_81">
      <g>
       <use style="stroke:#000000;stroke-width:0.8;" x="177.03223" xlink:href="#md5db78bbd9" y="179.882771"/>
      </g>
     </g>
     <g id="text_32">
      <!-- $0.75$ -->
      <defs>
       <path d="M 45.09375 61.796875 
L 45.09375 64 
L 21.59375 64 
C 9.90625 64 9.703125 65.09375 9.296875 67 
L 7.5 67 
L 4.59375 48.5 
L 6.40625 48.5 
C 6.703125 50.40625 7.40625 55.5 8.59375 57.390625 
C 9.203125 58.1875 16.59375 58.1875 18.296875 58.1875 
L 40.296875 58.1875 
L 29.203125 41.71875 
C 21.796875 30.640625 16.703125 15.671875 16.703125 2.59375 
C 16.703125 1.390625 16.703125 -2 20.296875 -2 
C 23.90625 -2 23.90625 1.390625 23.90625 2.6875 
L 23.90625 7.28125 
C 23.90625 23.65625 26.703125 34.4375 31.296875 41.3125 
z
" id="CMR17-55"/>
      </defs>
      <g transform="translate(156.238553 182.476164)scale(0.07497 -0.07497)">
       <use transform="scale(0.996264)" xlink:href="#CMR17-48"/>
       <use transform="translate(45.690477 0)scale(0.996264)" xlink:href="#CMMI12-58"/>
       <use transform="translate(72.787654 0)scale(0.996264)" xlink:href="#CMR17-55"/>
       <use transform="translate(118.478131 0)scale(0.996264)" xlink:href="#CMR17-53"/>
      </g>
     </g>
    </g>
    <g id="ytick_33">
     <g id="line2d_82">
      <g>
       <use style="stroke:#000000;stroke-width:0.8;" x="177.03223" xlink:href="#md5db78bbd9" y="161.437027"/>
      </g>
     </g>
     <g id="text_33">
      <!-- $1.00$ -->
      <g transform="translate(156.238553 164.030421)scale(0.07497 -0.07497)">
       <use transform="scale(0.996264)" xlink:href="#CMR17-49"/>
       <use transform="translate(45.690477 0)scale(0.996264)" xlink:href="#CMMI12-58"/>
       <use transform="translate(72.787654 0)scale(0.996264)" xlink:href="#CMR17-48"/>
       <use transform="translate(118.478131 0)scale(0.996264)" xlink:href="#CMR17-48"/>
      </g>
     </g>
    </g>
    <g id="text_34">
     <!-- Abs. change -->
     <defs>
      <path d="M 36.296875 69.390625 
C 35.796875 70.6875 35.59375 71 34.59375 71 
C 33.59375 71 33.40625 70.6875 32.90625 69.390625 
L 11.703125 9.0625 
C 9.796875 3.6875 5.796875 2.59375 2.296875 2.59375 
L 2.296875 0 
C 4.09375 0.1875 8.09375 0.1875 10 0.1875 
C 12.5 0.1875 16.5 0.1875 18.90625 0 
L 18.90625 2.59375 
C 14.203125 2.796875 13.5 5.96875 13.5 7.171875 
C 13.5 8.0625 13.703125 8.5625 13.90625 9.15625 
L 19.203125 24 
L 45.40625 24 
L 51.40625 7.078125 
C 51.90625 5.875 51.90625 5.671875 51.90625 5.28125 
C 51.90625 2.59375 47.59375 2.59375 45.703125 2.59375 
L 45.703125 0 
C 48.59375 0.1875 53.796875 0.1875 56.90625 0.1875 
C 59.5 0.1875 64.5 0.1875 66.90625 0 
L 66.90625 2.59375 
C 61.59375 2.59375 59.796875 2.59375 58.5 6.28125 
z
M 32.296875 61.3125 
L 44.5 26.59375 
L 20.09375 26.59375 
z
" id="CMR17-65"/>
      <path d="M 15 69 
L 3.09375 67.890625 
L 3.09375 65.296875 
C 9 65.296875 9.90625 64.703125 9.90625 60.046875 
L 9.90625 -0.203125 
L 11.703125 -0.203125 
L 14.59375 6.953125 
C 17.5 2.203125 21.796875 -1 27.59375 -1 
C 37.59375 -1 47.703125 7.859375 47.703125 21.59375 
C 47.703125 34.515625 38.703125 44 28.59375 44 
C 22.40625 44 18 40.671875 15 36.734375 
z
M 15.203125 31.59375 
C 15.203125 33.40625 15.203125 33.703125 16.59375 35.828125 
C 20.5 41.890625 26.09375 42.390625 28 42.390625 
C 31 42.390625 41.296875 40.78125 41.296875 21.6875 
C 41.296875 1.703125 29.5 0.59375 27.09375 0.59375 
C 24 0.59375 19.5 1.796875 16.296875 7.65625 
C 15.203125 9.578125 15.203125 9.78125 15.203125 11.59375 
z
" id="CMR17-98"/>
      <path d="M 16.59375 4.09375 
C 16.59375 6.59375 14.59375 8.1875 12.5 8.1875 
C 10.5 8.1875 8.40625 6.59375 8.40625 4.09375 
C 8.40625 1.59375 10.40625 0 12.5 0 
C 14.5 0 16.59375 1.59375 16.59375 4.09375 
z
" id="CMR17-46"/>
     </defs>
     <g style="fill:#262626;" transform="translate(151.495091 221.340898)rotate(-90)scale(0.09 -0.09)">
      <use transform="scale(0.996264)" xlink:href="#CMR17-65"/>
      <use transform="translate(69.07243 0)scale(0.996264)" xlink:href="#CMR17-98"/>
      <use transform="translate(119.9678 0)scale(0.996264)" xlink:href="#CMR17-115"/>
      <use transform="translate(155.769137 0)scale(0.996264)" xlink:href="#CMR17-46"/>
      <use transform="translate(221.125856 0)scale(0.996264)" xlink:href="#CMR17-99"/>
      <use transform="translate(259.009063 0)scale(0.996264)" xlink:href="#CMR17-104"/>
      <use transform="translate(309.904432 0)scale(0.996264)" xlink:href="#CMR17-97"/>
      <use transform="translate(355.59491 0)scale(0.996264)" xlink:href="#CMR17-110"/>
      <use transform="translate(406.490279 0)scale(0.996264)" xlink:href="#CMR17-103"/>
      <use transform="translate(452.180756 0)scale(0.996264)" xlink:href="#CMR17-101"/>
     </g>
    </g>
   </g>
   <g id="patch_9">
    <path clip-path="url(#pb7818e42ab)" d="M 178.29622 235.22 
L 183.618281 235.22 
L 183.618281 161.437027 
L 178.29622 161.437027 
z
" style="fill:#2ca02c;"/>
   </g>
   <g id="patch_10">
    <path clip-path="url(#pb7818e42ab)" d="M 184.948796 235.22 
L 190.270858 235.22 
L 190.270858 201.568214 
L 184.948796 201.568214 
z
" style="fill:#2ca02c;"/>
   </g>
   <g id="patch_11">
    <path clip-path="url(#pb7818e42ab)" d="M 191.601373 235.22 
L 196.923434 235.22 
L 196.923434 209.359694 
L 191.601373 209.359694 
z
" style="fill:#2ca02c;"/>
   </g>
   <g id="patch_12">
    <path clip-path="url(#pb7818e42ab)" d="M 198.253949 235.22 
L 203.57601 235.22 
L 203.57601 213.405762 
L 198.253949 213.405762 
z
" style="fill:#2ca02c;"/>
   </g>
   <g id="patch_13">
    <path d="M 177.03223 235.22 
L 177.03223 157.747879 
" style="fill:none;stroke:#262626;stroke-linecap:square;stroke-linejoin:miter;stroke-width:0.8;"/>
   </g>
   <g id="patch_14">
    <path d="M 177.03223 235.22 
L 204.84 235.22 
" style="fill:none;stroke:#262626;stroke-linecap:square;stroke-linejoin:miter;stroke-width:0.8;"/>
   </g>
   <g id="text_35">
    <!-- {\sf \textbf{C}} -->
    <defs>
     <path d="M 64 14.328125 
C 64 15.140625 63.296875 15.546875 62.90625 15.546875 
C 60.5 15.546875 57.59375 9 43.5 9 
C 25.90625 9 20.90625 19.875 20.90625 34.984375 
C 20.90625 50 26.296875 60.890625 42.703125 60.890625 
C 51.59375 60.890625 56.296875 57.359375 59 55.140625 
C 59.59375 54.640625 59.90625 54.234375 60.59375 54.234375 
C 61 54.234375 61.5 54.734375 61.59375 55.140625 
L 63.59375 66.296875 
C 63.703125 66.6875 63.59375 67.09375 62.796875 67.390625 
C 56.90625 69.59375 50.796875 71 43 71 
C 18.59375 71 6.09375 59.078125 6.09375 35.09375 
C 6.09375 10.40625 18.796875 -1 43.09375 -1 
C 51.59375 -1 56.90625 0.1875 64.203125 4.6875 
C 65 5.1875 64.796875 5.890625 64.796875 5.890625 
z
" id="CMSSBX10-67"/>
    </defs>
    <g transform="translate(145.268441 163.974529)scale(0.09 -0.09)">
     <use transform="scale(0.996264)" xlink:href="#CMSSBX10-67"/>
    </g>
   </g>
  </g>
 </g>
 <defs>
  <clipPath id="p553c3d9e31">
   <rect height="119.187879" width="165.195455" x="39.644545" y="11.16"/>
  </clipPath>
  <clipPath id="p058fe911e8">
   <rect height="77.472121" width="97.327193" x="39.644545" y="157.747879"/>
  </clipPath>
  <clipPath id="pb7818e42ab">
   <rect height="77.472121" width="27.80777" x="177.03223" y="157.747879"/>
  </clipPath>
 </defs>
</svg>
