<?xml version="1.0" encoding="utf-8" standalone="no"?>
<!DOCTYPE svg PUBLIC "-//W3C//DTD SVG 1.1//EN"
  "http://www.w3.org/Graphics/SVG/1.1/DTD/svg11.dtd">
<!-- Created with matplotlib (http://matplotlib.org/) -->
<svg height="165.6pt" version="1.1" viewBox="0 0 396 165.6" width="396pt" xmlns="http://www.w3.org/2000/svg" xmlns:xlink="http://www.w3.org/1999/xlink">
 <defs>
  <style type="text/css">
*{stroke-linecap:butt;stroke-linejoin:round;}
  </style>
 </defs>
 <g id="figure_1">
  <g id="patch_1">
   <path d="M 0 165.6 
L 396 165.6 
L 396 0 
L 0 0 
z
" style="fill:#ffffff;"/>
  </g>
  <g id="axes_1">
   <g id="patch_2">
    <path d="M 38.620492 130.82 
L 191.7 130.82 
L 191.7 11.16 
L 38.620492 11.16 
z
" style="fill:#ffffff;"/>
   </g>
   <g id="matplotlib.axis_1">
    <g id="xtick_1">
     <g id="line2d_1">
      <defs>
       <path d="M 0 2 
L 0 -2 
" id="m2cb6bd53cb" style="stroke:#000000;stroke-width:0.8;"/>
      </defs>
      <g>
       <use style="stroke:#000000;stroke-width:0.8;" x="45.578652" xlink:href="#m2cb6bd53cb" y="130.82"/>
      </g>
     </g>
     <g id="text_1">
      <!-- $10^{-2}$ -->
      <defs>
       <path d="M 26.59375 63.796875 
C 26.59375 65.890625 26.5 66 25.09375 66 
C 21.203125 61.359375 15.296875 59.890625 9.703125 59.6875 
C 9.40625 59.6875 8.90625 59.6875 8.796875 59.5 
C 8.703125 59.296875 8.703125 59.09375 8.703125 57 
C 11.796875 57 17 57.59375 21 59.984375 
L 21 7.296875 
C 21 3.796875 20.796875 2.59375 12.203125 2.59375 
L 9.203125 2.59375 
L 9.203125 0 
C 14 0.09375 19 0.1875 23.796875 0.1875 
C 28.59375 0.1875 33.59375 0.09375 38.40625 0 
L 38.40625 2.59375 
L 35.40625 2.59375 
C 26.796875 2.59375 26.59375 3.6875 26.59375 7.296875 
z
" id="CMR17-49"/>
       <path d="M 42 31.84375 
C 42 37.96875 41.90625 48.421875 37.703125 56.453125 
C 34 63.484375 28.09375 66 22.90625 66 
C 18.09375 66 12 63.78125 8.203125 56.5625 
C 4.203125 49.015625 3.796875 39.671875 3.796875 31.84375 
C 3.796875 26.109375 3.90625 17.375 7 9.734375 
C 11.296875 -0.609375 19 -2 22.90625 -2 
C 27.5 -2 34.5 -0.109375 38.59375 9.4375 
C 41.59375 16.375 42 24.5 42 31.84375 
z
M 22.90625 -0.40625 
C 16.5 -0.40625 12.703125 5.125 11.296875 12.75 
C 10.203125 18.6875 10.203125 27.328125 10.203125 32.953125 
C 10.203125 40.6875 10.203125 47.109375 11.5 53.234375 
C 13.40625 61.78125 19 64.390625 22.90625 64.390625 
C 27 64.390625 32.296875 61.671875 34.203125 53.4375 
C 35.5 47.71875 35.59375 40.984375 35.59375 32.953125 
C 35.59375 26.421875 35.59375 18.375 34.40625 12.453125 
C 32.296875 1.5 26.40625 -0.40625 22.90625 -0.40625 
z
" id="CMR17-48"/>
       <path d="M 65.90625 23 
C 67.59375 23 69.40625 23 69.40625 25 
C 69.40625 27 67.59375 27 65.90625 27 
L 11.796875 27 
C 10.09375 27 8.296875 27 8.296875 25 
C 8.296875 23 10.09375 23 11.796875 23 
z
" id="CMSY10-0"/>
       <path d="M 41.703125 15.46875 
L 39.90625 15.46875 
C 38.90625 8.390625 38.09375 7.1875 37.703125 6.59375 
C 37.203125 5.796875 30 5.796875 28.59375 5.796875 
L 9.40625 5.796875 
C 13 9.6875 20 16.765625 28.5 24.9375 
C 34.59375 30.71875 41.703125 37.5 41.703125 47.390625 
C 41.703125 59.1875 32.296875 66 21.796875 66 
C 10.796875 66 4.09375 56.296875 4.09375 47.296875 
C 4.09375 43.390625 7 42.890625 8.203125 42.890625 
C 9.203125 42.890625 12.203125 43.484375 12.203125 46.984375 
C 12.203125 50.09375 9.59375 51 8.203125 51 
C 7.59375 51 7 50.890625 6.59375 50.6875 
C 8.5 59.1875 14.296875 63.390625 20.40625 63.390625 
C 29.09375 63.390625 34.796875 56.5 34.796875 47.390625 
C 34.796875 38.703125 29.703125 31.21875 24 24.734375 
L 4.09375 2.296875 
L 4.09375 0 
L 39.296875 0 
z
" id="CMR17-50"/>
      </defs>
      <g transform="translate(36.714371 141.573219)scale(0.07497 -0.07497)">
       <use transform="scale(0.996264)" xlink:href="#CMR17-49"/>
       <use transform="translate(45.690477 0)scale(0.996264)" xlink:href="#CMR17-48"/>
       <use transform="translate(91.380954 36.153639)scale(0.697382)" xlink:href="#CMSY10-0"/>
       <use transform="translate(145.621947 36.153639)scale(0.697382)" xlink:href="#CMR17-50"/>
      </g>
     </g>
    </g>
    <g id="xtick_2">
     <g id="line2d_2">
      <g>
       <use style="stroke:#000000;stroke-width:0.8;" x="80.369449" xlink:href="#m2cb6bd53cb" y="130.82"/>
      </g>
     </g>
     <g id="text_2">
      <!-- $10^{-1}$ -->
      <g transform="translate(71.505168 141.573219)scale(0.07497 -0.07497)">
       <use transform="scale(0.996264)" xlink:href="#CMR17-49"/>
       <use transform="translate(45.690477 0)scale(0.996264)" xlink:href="#CMR17-48"/>
       <use transform="translate(91.380954 36.153639)scale(0.697382)" xlink:href="#CMSY10-0"/>
       <use transform="translate(145.621947 36.153639)scale(0.697382)" xlink:href="#CMR17-49"/>
      </g>
     </g>
    </g>
    <g id="xtick_3">
     <g id="line2d_3">
      <g>
       <use style="stroke:#000000;stroke-width:0.8;" x="115.160246" xlink:href="#m2cb6bd53cb" y="130.82"/>
      </g>
     </g>
     <g id="text_3">
      <!-- $10^{0}$ -->
      <g transform="translate(109.127974 141.506787)scale(0.07497 -0.07497)">
       <use transform="scale(0.996264)" xlink:href="#CMR17-49"/>
       <use transform="translate(45.690477 0)scale(0.996264)" xlink:href="#CMR17-48"/>
       <use transform="translate(91.380954 36.153639)scale(0.697382)" xlink:href="#CMR17-48"/>
      </g>
     </g>
    </g>
    <g id="xtick_4">
     <g id="line2d_4">
      <g>
       <use style="stroke:#000000;stroke-width:0.8;" x="149.951043" xlink:href="#m2cb6bd53cb" y="130.82"/>
      </g>
     </g>
     <g id="text_4">
      <!-- $10^{1}$ -->
      <g transform="translate(143.918771 141.506787)scale(0.07497 -0.07497)">
       <use transform="scale(0.996264)" xlink:href="#CMR17-49"/>
       <use transform="translate(45.690477 0)scale(0.996264)" xlink:href="#CMR17-48"/>
       <use transform="translate(91.380954 36.153639)scale(0.697382)" xlink:href="#CMR17-49"/>
      </g>
     </g>
    </g>
    <g id="xtick_5">
     <g id="line2d_5">
      <g>
       <use style="stroke:#000000;stroke-width:0.8;" x="184.741841" xlink:href="#m2cb6bd53cb" y="130.82"/>
      </g>
     </g>
     <g id="text_5">
      <!-- $10^{2}$ -->
      <g transform="translate(178.709568 141.506787)scale(0.07497 -0.07497)">
       <use transform="scale(0.996264)" xlink:href="#CMR17-49"/>
       <use transform="translate(45.690477 0)scale(0.996264)" xlink:href="#CMR17-48"/>
       <use transform="translate(91.380954 36.153639)scale(0.697382)" xlink:href="#CMR17-50"/>
      </g>
     </g>
    </g>
    <g id="xtick_6">
     <g id="line2d_6"/>
    </g>
    <g id="xtick_7">
     <g id="line2d_7"/>
    </g>
    <g id="xtick_8">
     <g id="line2d_8"/>
    </g>
    <g id="xtick_9">
     <g id="line2d_9"/>
    </g>
    <g id="xtick_10">
     <g id="line2d_10"/>
    </g>
    <g id="xtick_11">
     <g id="line2d_11"/>
    </g>
    <g id="xtick_12">
     <g id="line2d_12"/>
    </g>
    <g id="xtick_13">
     <g id="line2d_13"/>
    </g>
    <g id="xtick_14">
     <g id="line2d_14"/>
    </g>
    <g id="xtick_15">
     <g id="line2d_15"/>
    </g>
    <g id="xtick_16">
     <g id="line2d_16"/>
    </g>
    <g id="xtick_17">
     <g id="line2d_17"/>
    </g>
    <g id="xtick_18">
     <g id="line2d_18"/>
    </g>
    <g id="xtick_19">
     <g id="line2d_19"/>
    </g>
    <g id="xtick_20">
     <g id="line2d_20"/>
    </g>
    <g id="xtick_21">
     <g id="line2d_21"/>
    </g>
    <g id="xtick_22">
     <g id="line2d_22"/>
    </g>
    <g id="xtick_23">
     <g id="line2d_23"/>
    </g>
    <g id="xtick_24">
     <g id="line2d_24"/>
    </g>
    <g id="xtick_25">
     <g id="line2d_25"/>
    </g>
    <g id="xtick_26">
     <g id="line2d_26"/>
    </g>
    <g id="xtick_27">
     <g id="line2d_27"/>
    </g>
    <g id="xtick_28">
     <g id="line2d_28"/>
    </g>
    <g id="xtick_29">
     <g id="line2d_29"/>
    </g>
    <g id="xtick_30">
     <g id="line2d_30"/>
    </g>
    <g id="xtick_31">
     <g id="line2d_31"/>
    </g>
    <g id="xtick_32">
     <g id="line2d_32"/>
    </g>
    <g id="xtick_33">
     <g id="line2d_33"/>
    </g>
    <g id="xtick_34">
     <g id="line2d_34"/>
    </g>
    <g id="xtick_35">
     <g id="line2d_35"/>
    </g>
    <g id="xtick_36">
     <g id="line2d_36"/>
    </g>
    <g id="xtick_37">
     <g id="line2d_37"/>
    </g>
    <g id="xtick_38">
     <g id="line2d_38"/>
    </g>
    <g id="xtick_39">
     <g id="line2d_39"/>
    </g>
    <g id="xtick_40">
     <g id="line2d_40"/>
    </g>
    <g id="text_6">
     <!-- $\lambda t/K$ -->
     <defs>
      <path d="M 30.90625 61.921875 
C 28.40625 69 20.5 69 19.203125 69 
C 18.59375 69 17.5 69 17.5 67.984375 
C 17.5 67.1875 18.09375 67.09375 18.59375 66.984375 
C 20.09375 66.796875 21.296875 66.59375 22.90625 63.71875 
C 23.90625 61.828125 34.203125 32.109375 34.203125 31.90625 
C 34.203125 31.8125 34.09375 31.703125 33.296875 30.90625 
L 7.296875 4.765625 
C 6.09375 3.578125 5.296875 2.78125 5.296875 1.484375 
C 5.296875 0.09375 6.5 -1.109375 8.09375 -1.109375 
C 8.5 -1.109375 9.59375 -0.90625 10.203125 -0.3125 
C 11.796875 1.1875 26.09375 18.59375 35.203125 29.328125 
C 37.796875 21.5625 41 12.421875 44.09375 4.078125 
C 44.59375 2.578125 45.09375 1.1875 46.5 -0.109375 
C 47.5 -1 47.703125 -1 50.5 -1 
L 52.40625 -1 
C 52.796875 -1 53.5 -1 53.5 -0.203125 
C 53.5 0.1875 53.40625 0.296875 53 0.6875 
C 52.09375 1.78125 51.40625 3.578125 51 4.765625 
z
" id="CMMI12-21"/>
      <path d="M 20.09375 40.09375 
L 29.296875 40.09375 
C 31.203125 40.09375 32.203125 40.09375 32.203125 41.890625 
C 32.203125 43 31.59375 43 29.59375 43 
L 20.796875 43 
L 24.5 57.25 
C 24.90625 58.625 24.90625 58.8125 24.90625 59.5 
C 24.90625 61.09375 23.59375 62 22.296875 62 
C 21.5 62 19.203125 61.6875 18.40625 58.53125 
L 14.5 43 
L 5.09375 43 
C 3.09375 43 2.203125 43 2.203125 41.09375 
C 2.203125 40.09375 2.90625 40.09375 4.796875 40.09375 
L 13.703125 40.09375 
L 7.09375 13.765625 
C 6.296875 10.265625 6 9.265625 6 7.96875 
C 6 3.28125 9.296875 -1 14.90625 -1 
C 25 -1 30.40625 13.5625 30.40625 14.265625 
C 30.40625 14.859375 30 15.15625 29.40625 15.15625 
C 29.203125 15.15625 28.796875 15.15625 28.59375 14.75 
C 28.5 14.65625 28.40625 14.5625 27.703125 12.96875 
C 25.59375 7.96875 21 1 15.203125 1 
C 12.203125 1 12 3.484375 12 5.6875 
C 12 5.78125 12 7.671875 12.296875 8.875 
z
" id="CMMI12-116"/>
      <path d="M 42.90625 71.296875 
C 42.90625 71.390625 43.5 72.890625 43.5 73.09375 
C 43.5 74.296875 42.5 75 41.703125 75 
C 41.203125 75 40.296875 75 39.5 72.796875 
L 6 -21.3125 
C 6 -21.40625 5.40625 -22.90625 5.40625 -23.109375 
C 5.40625 -24.3125 6.40625 -25 7.203125 -25 
C 7.796875 -25 8.703125 -24.90625 9.40625 -22.8125 
z
" id="CMMI12-61"/>
      <path d="M 50 40.21875 
C 49.90625 40.515625 49.5 41.3125 49.5 41.609375 
C 49.5 41.703125 49.59375 41.796875 51.296875 43.09375 
L 61 50.65625 
C 74.40625 61.015625 78.796875 64.5 85.703125 65.09375 
C 86.40625 65.1875 87.40625 65.1875 87.40625 66.890625 
C 87.40625 67.484375 87.09375 68 86.296875 68 
C 85.203125 68 84 67.796875 82.90625 67.796875 
L 79.09375 67.796875 
C 76 67.796875 72.703125 68 69.703125 68 
C 69 68 67.796875 68 67.796875 66.1875 
C 67.796875 65.1875 68.5 65.09375 69.09375 65.09375 
C 70.203125 64.984375 71.5 64.59375 71.5 63.203125 
C 71.5 61.203125 68.5 58.828125 67.703125 58.21875 
L 28.5 27.875 
L 36.796875 60.71875 
C 37.703125 64.09375 37.90625 65.09375 45 65.09375 
C 46.90625 65.09375 47.796875 65.09375 47.796875 66.984375 
C 47.796875 68 46.796875 68 46.296875 68 
C 44.5 68 42.40625 67.796875 40.5 67.796875 
L 28.703125 67.796875 
C 26.90625 67.796875 24.703125 68 22.90625 68 
C 22.09375 68 21 68 21 66.09375 
C 21 65.09375 21.90625 65.09375 23.40625 65.09375 
C 29.5 65.09375 29.5 64.296875 29.5 63.203125 
C 29.5 63 29.5 62.40625 29.09375 60.90625 
L 15.59375 7.375 
C 14.703125 3.890625 14.5 2.890625 7.5 2.890625 
C 5.59375 2.890625 4.59375 2.890625 4.59375 1.09375 
C 4.59375 0 5.5 0 6.09375 0 
C 8 0 10 0.1875 11.90625 0.1875 
L 23.59375 0.1875 
C 25.5 0.1875 27.59375 0 29.5 0 
C 30.296875 0 31.40625 0 31.40625 1.890625 
C 31.40625 2.890625 30.5 2.890625 29 2.890625 
C 22.90625 2.890625 22.90625 3.6875 22.90625 4.6875 
C 22.90625 5.375 23.5 7.875 23.90625 9.453125 
L 27.796875 24.890625 
L 43 36.734375 
C 45.90625 30.359375 51.203125 17.625 55.296875 7.875 
C 55.59375 7.265625 55.796875 6.671875 55.796875 5.984375 
C 55.796875 2.984375 51.796875 2.890625 50.90625 2.890625 
C 50 2.890625 49 2.890625 49 1 
C 49 0 50.09375 0 50.40625 0 
C 53.90625 0 57.59375 0.1875 61.09375 0.1875 
L 65.90625 0.1875 
C 67.40625 0.1875 69.09375 0 70.59375 0 
C 71.203125 0 72.296875 0 72.296875 1.890625 
C 72.296875 2.890625 71.40625 2.890625 70.40625 2.890625 
C 66.703125 2.984375 65.40625 3.78125 63.90625 7.375 
z
" id="CMMI12-75"/>
     </defs>
     <g style="fill:#262626;" transform="translate(104.602684 152.750303)scale(0.09 -0.09)">
      <use transform="scale(0.996264)" xlink:href="#CMMI12-21"/>
      <use transform="translate(56.904072 0)scale(0.996264)" xlink:href="#CMMI12-116"/>
      <use transform="translate(92.130402 0)scale(0.996264)" xlink:href="#CMMI12-61"/>
      <use transform="translate(140.905321 0)scale(0.996264)" xlink:href="#CMMI12-75"/>
     </g>
    </g>
   </g>
   <g id="matplotlib.axis_2">
    <g id="ytick_1">
     <g id="line2d_41">
      <defs>
       <path d="M 2 0 
L -2 -0 
" id="m9e96d71898" style="stroke:#000000;stroke-width:0.8;"/>
      </defs>
      <g>
       <use style="stroke:#000000;stroke-width:0.8;" x="38.620492" xlink:href="#m9e96d71898" y="130.772324"/>
      </g>
     </g>
     <g id="text_7">
      <!-- $0.0$ -->
      <defs>
       <path d="M 18.40625 4.796875 
C 18.40625 7.6875 16 9.6875 13.59375 9.6875 
C 10.703125 9.6875 8.703125 7.296875 8.703125 4.890625 
C 8.703125 2 11.09375 0 13.5 0 
C 16.40625 0 18.40625 2.390625 18.40625 4.796875 
z
" id="CMMI12-58"/>
      </defs>
      <g transform="translate(22.08 133.365718)scale(0.07497 -0.07497)">
       <use transform="scale(0.996264)" xlink:href="#CMR17-48"/>
       <use transform="translate(45.690477 0)scale(0.996264)" xlink:href="#CMMI12-58"/>
       <use transform="translate(72.787654 0)scale(0.996264)" xlink:href="#CMR17-48"/>
      </g>
     </g>
    </g>
    <g id="ytick_2">
     <g id="line2d_42">
      <g>
       <use style="stroke:#000000;stroke-width:0.8;" x="38.620492" xlink:href="#m9e96d71898" y="102.065375"/>
      </g>
     </g>
     <g id="text_8">
      <!-- $0.2$ -->
      <g transform="translate(22.08 104.658769)scale(0.07497 -0.07497)">
       <use transform="scale(0.996264)" xlink:href="#CMR17-48"/>
       <use transform="translate(45.690477 0)scale(0.996264)" xlink:href="#CMMI12-58"/>
       <use transform="translate(72.787654 0)scale(0.996264)" xlink:href="#CMR17-50"/>
      </g>
     </g>
    </g>
    <g id="ytick_3">
     <g id="line2d_43">
      <g>
       <use style="stroke:#000000;stroke-width:0.8;" x="38.620492" xlink:href="#m9e96d71898" y="73.358425"/>
      </g>
     </g>
     <g id="text_9">
      <!-- $0.4$ -->
      <defs>
       <path d="M 33.59375 64.796875 
C 33.59375 66.890625 33.5 67 31.703125 67 
L 2 19.59375 
L 2 17 
L 27.796875 17 
L 27.796875 7.1875 
C 27.796875 3.59375 27.59375 2.59375 20.59375 2.59375 
L 18.703125 2.59375 
L 18.703125 0 
C 21.90625 0.1875 27.296875 0.1875 30.703125 0.1875 
C 34.09375 0.1875 39.5 0.1875 42.703125 0 
L 42.703125 2.59375 
L 40.796875 2.59375 
C 33.796875 2.59375 33.59375 3.59375 33.59375 7.1875 
L 33.59375 17 
L 43.796875 17 
L 43.796875 19.59375 
L 33.59375 19.59375 
z
M 28.09375 58.171875 
L 28.09375 19.59375 
L 4 19.59375 
z
" id="CMR17-52"/>
      </defs>
      <g transform="translate(22.08 75.951819)scale(0.07497 -0.07497)">
       <use transform="scale(0.996264)" xlink:href="#CMR17-48"/>
       <use transform="translate(45.690477 0)scale(0.996264)" xlink:href="#CMMI12-58"/>
       <use transform="translate(72.787654 0)scale(0.996264)" xlink:href="#CMR17-52"/>
      </g>
     </g>
    </g>
    <g id="ytick_4">
     <g id="line2d_44">
      <g>
       <use style="stroke:#000000;stroke-width:0.8;" x="38.620492" xlink:href="#m9e96d71898" y="44.651476"/>
      </g>
     </g>
     <g id="text_10">
      <!-- $0.6$ -->
      <defs>
       <path d="M 10.59375 34.34375 
C 10.59375 58 21.796875 63.6875 28.296875 63.6875 
C 30.40625 63.6875 35.5 63.265625 37.5 59.09375 
C 35.90625 59.09375 32.90625 59.09375 32.90625 55.59375 
C 32.90625 52.890625 35.09375 52 36.5 52 
C 37.40625 52 40.09375 52.390625 40.09375 55.796875 
C 40.09375 62.296875 35.09375 66 28.203125 66 
C 16.296875 66 3.796875 53.296875 3.796875 31.421875 
C 3.796875 4.015625 15.09375 -2 23.09375 -2 
C 32.796875 -2 42 6.734375 42 20.234375 
C 42 32.828125 33.90625 42 23.703125 42 
C 17.59375 42 13.09375 37.96875 10.59375 30.921875 
z
M 23.09375 0.390625 
C 10.796875 0.390625 10.796875 18.9375 10.796875 22.65625 
C 10.796875 29.90625 14.203125 40.390625 23.5 40.390625 
C 25.203125 40.390625 30.09375 40.390625 33.40625 33.4375 
C 35.203125 29.515625 35.203125 25.375 35.203125 20.34375 
C 35.203125 14.90625 35.203125 10.875 33.09375 6.84375 
C 30.90625 2.703125 27.703125 0.390625 23.09375 0.390625 
z
" id="CMR17-54"/>
      </defs>
      <g transform="translate(22.08 47.24487)scale(0.07497 -0.07497)">
       <use transform="scale(0.996264)" xlink:href="#CMR17-48"/>
       <use transform="translate(45.690477 0)scale(0.996264)" xlink:href="#CMMI12-58"/>
       <use transform="translate(72.787654 0)scale(0.996264)" xlink:href="#CMR17-54"/>
      </g>
     </g>
    </g>
    <g id="ytick_5">
     <g id="line2d_45">
      <g>
       <use style="stroke:#000000;stroke-width:0.8;" x="38.620492" xlink:href="#m9e96d71898" y="15.944526"/>
      </g>
     </g>
     <g id="text_11">
      <!-- $0.8$ -->
      <defs>
       <path d="M 27.203125 35.765625 
C 33.5 38.96875 39.90625 43.796875 39.90625 51.53125 
C 39.90625 60.6875 31.09375 66 23 66 
C 13.90625 66 5.90625 59.375 5.90625 50.234375 
C 5.90625 47.71875 6.5 43.390625 10.40625 39.578125 
C 11.40625 38.578125 15.59375 35.5625 18.296875 33.65625 
C 13.796875 31.34375 3.296875 25.8125 3.296875 14.765625 
C 3.296875 4.40625 13.09375 -2 22.796875 -2 
C 33.5 -2 42.5 5.71875 42.5 15.96875 
C 42.5 25.109375 36.40625 29.328125 32.40625 32.046875 
z
M 14.09375 44.609375 
C 13.296875 45.109375 9.296875 48.21875 9.296875 52.9375 
C 9.296875 59.078125 15.59375 63.6875 22.796875 63.6875 
C 30.703125 63.6875 36.5 58.0625 36.5 51.53125 
C 36.5 42.1875 26.09375 36.859375 25.59375 36.859375 
C 25.5 36.859375 25.40625 36.859375 24.59375 37.46875 
z
M 32.5 24 
C 34 22.90625 38.796875 19.578125 38.796875 13.453125 
C 38.796875 6.015625 31.40625 0.390625 23 0.390625 
C 13.90625 0.390625 7 6.921875 7 14.859375 
C 7 22.796875 13.09375 29.4375 20 32.546875 
z
" id="CMR17-56"/>
      </defs>
      <g transform="translate(22.08 18.53792)scale(0.07497 -0.07497)">
       <use transform="scale(0.996264)" xlink:href="#CMR17-48"/>
       <use transform="translate(45.690477 0)scale(0.996264)" xlink:href="#CMMI12-58"/>
       <use transform="translate(72.787654 0)scale(0.996264)" xlink:href="#CMR17-56"/>
      </g>
     </g>
    </g>
    <g id="text_12">
     <!-- $c_{\tilde \theta}(t)/c_0$ -->
     <defs>
      <path d="M 39.09375 38 
C 37.203125 38 36.296875 38 34.90625 36.796875 
C 34.296875 36.296875 33.203125 34.796875 33.203125 33.1875 
C 33.203125 31.1875 34.703125 29.984375 36.59375 29.984375 
C 39 29.984375 41.703125 31.984375 41.703125 35.984375 
C 41.703125 40.484375 37.09375 44 30.203125 44 
C 17.09375 44 4 30.1875 4 15.796875 
C 4 6.96875 9.40625 -1 19.59375 -1 
C 33.203125 -1 41.796875 9.71875 41.796875 11.03125 
C 41.796875 11.640625 41.203125 12.140625 40.796875 12.140625 
C 40.5 12.140625 40.40625 12.046875 39.5 11.125 
C 33.09375 2.515625 23.59375 1 19.796875 1 
C 12.90625 1 10.703125 7.078125 10.703125 12.140625 
C 10.703125 15.6875 12.40625 25.53125 16 32.390625 
C 18.59375 37.09375 24 41.984375 30.296875 41.984375 
C 31.59375 41.984375 37.09375 41.8125 39.09375 38 
z
" id="CMMI12-99"/>
      <path d="M 37.5 65.59375 
C 34.09375 62.296875 32.203125 60.390625 29.09375 60.390625 
C 26.90625 60.390625 25.40625 61.5 23.296875 63 
C 21.296875 64.390625 19.703125 65.59375 17.5 65.59375 
C 13.90625 65.59375 11.40625 62.6875 7.203125 58.09375 
L 8.296875 57 
C 11.703125 60.296875 13.59375 62.1875 16.703125 62.1875 
C 18.90625 62.1875 20.40625 61.09375 22.5 59.59375 
C 24.5 58.1875 26.09375 57 28.296875 57 
C 31.90625 57 34.40625 59.890625 38.59375 64.5 
z
" id="CMR17-126"/>
      <path d="M 44.296875 50 
C 44.296875 60.140625 41.09375 70 32.90625 70 
C 18.90625 70 4 40.859375 4 18.984375 
C 4 14.40625 5 -1 15.5 -1 
C 29.09375 -1 44.296875 27.421875 44.296875 50 
z
M 14 36 
C 15.5 41.859375 17.59375 50.203125 21.59375 57.265625 
C 24.90625 63.21875 28.40625 67.984375 32.796875 67.984375 
C 36.09375 67.984375 38.296875 65.203125 38.296875 55.671875 
C 38.296875 52.09375 38 47.125 35.09375 36 
z
M 34.40625 33 
C 31.90625 23.25 29.796875 17 26.203125 10.734375 
C 23.296875 5.65625 19.796875 1 15.59375 1 
C 12.5 1 10 3.375 10 13.21875 
C 10 19.671875 11.59375 26.4375 13.203125 33 
z
" id="CMMI12-18"/>
      <path d="M 30.59375 -24.40625 
C 30.59375 -24.3125 30.59375 -24.109375 30.296875 -23.8125 
C 25.703125 -19.109375 13.40625 -6.296875 13.40625 24.9375 
C 13.40625 56.171875 25.5 68.875 30.40625 73.890625 
C 30.40625 73.984375 30.59375 74.1875 30.59375 74.484375 
C 30.59375 74.796875 30.296875 75 29.90625 75 
C 28.796875 75 20.296875 67.578125 15.40625 56.5625 
C 10.40625 45.453125 9 34.65625 9 25.046875 
C 9 17.828125 9.703125 5.625 15.703125 -7.296875 
C 20.5 -17.703125 28.703125 -25 29.90625 -25 
C 30.40625 -25 30.59375 -24.8125 30.59375 -24.40625 
z
" id="CMR17-40"/>
      <path d="M 26.296875 24.9375 
C 26.296875 32.140625 25.59375 44.359375 19.59375 57.265625 
C 14.796875 67.6875 6.59375 75 5.40625 75 
C 5.09375 75 4.703125 74.890625 4.703125 74.390625 
C 4.703125 74.1875 4.796875 74.09375 4.90625 73.890625 
C 9.703125 68.875 21.90625 56.171875 21.90625 25.046875 
C 21.90625 -6.1875 9.796875 -18.90625 4.90625 -23.90625 
C 4.796875 -24.109375 4.703125 -24.203125 4.703125 -24.40625 
C 4.703125 -24.90625 5.09375 -25 5.40625 -25 
C 6.5 -25 15 -17.609375 19.90625 -6.59375 
C 24.90625 4.515625 26.296875 15.328125 26.296875 24.9375 
z
" id="CMR17-41"/>
     </defs>
     <g style="fill:#262626;" transform="translate(17.336538 86.467604)rotate(-90)scale(0.09 -0.09)">
      <use transform="translate(0 29.838667)scale(0.996264)" xlink:href="#CMMI12-99"/>
      <use transform="translate(48.541267 18.407549)scale(0.697382)" xlink:href="#CMR17-126"/>
      <use transform="translate(41.983234 0)scale(0.697382)" xlink:href="#CMMI12-18"/>
      <use transform="translate(76.199861 29.838667)scale(0.996264)" xlink:href="#CMR17-40"/>
      <use transform="translate(111.480629 29.838667)scale(0.996264)" xlink:href="#CMMI12-116"/>
      <use transform="translate(146.706959 29.838667)scale(0.996264)" xlink:href="#CMR17-41"/>
      <use transform="translate(181.987727 29.838667)scale(0.996264)" xlink:href="#CMMI12-61"/>
      <use transform="translate(230.762646 29.838667)scale(0.996264)" xlink:href="#CMMI12-99"/>
      <use transform="translate(272.74588 14.894752)scale(0.697382)" xlink:href="#CMR17-48"/>
     </g>
    </g>
   </g>
   <g id="line2d_46">
    <path clip-path="url(#pcde85df76a)" d="M 45.578652 18.116177 
L 80.369449 73.776786 
L 115.160246 109.136047 
L 149.951043 121.107538 
L 184.741841 124.669137 
" style="fill:none;stroke:#1f77b4;stroke-linecap:round;stroke-width:1.3;"/>
    <defs>
     <path d="M 0 1.75 
C 0.464105 1.75 0.909265 1.565609 1.237437 1.237437 
C 1.565609 0.909265 1.75 0.464105 1.75 0 
C 1.75 -0.464105 1.565609 -0.909265 1.237437 -1.237437 
C 0.909265 -1.565609 0.464105 -1.75 0 -1.75 
C -0.464105 -1.75 -0.909265 -1.565609 -1.237437 -1.237437 
C -1.565609 -0.909265 -1.75 -0.464105 -1.75 0 
C -1.75 0.464105 -1.565609 0.909265 -1.237437 1.237437 
C -0.909265 1.565609 -0.464105 1.75 0 1.75 
z
" id="mb40129fa3e" style="stroke:#1f77b4;stroke-width:0.8;"/>
    </defs>
    <g clip-path="url(#pcde85df76a)">
     <use style="fill:#1f77b4;stroke:#1f77b4;stroke-width:0.8;" x="45.578652" xlink:href="#mb40129fa3e" y="18.116177"/>
     <use style="fill:#1f77b4;stroke:#1f77b4;stroke-width:0.8;" x="80.369449" xlink:href="#mb40129fa3e" y="73.776786"/>
     <use style="fill:#1f77b4;stroke:#1f77b4;stroke-width:0.8;" x="115.160246" xlink:href="#mb40129fa3e" y="109.136047"/>
     <use style="fill:#1f77b4;stroke:#1f77b4;stroke-width:0.8;" x="149.951043" xlink:href="#mb40129fa3e" y="121.107538"/>
     <use style="fill:#1f77b4;stroke:#1f77b4;stroke-width:0.8;" x="184.741841" xlink:href="#mb40129fa3e" y="124.669137"/>
    </g>
   </g>
   <g id="line2d_47">
    <path clip-path="url(#pcde85df76a)" d="M 45.578652 21.075035 
L 80.369449 78.17883 
L 115.160246 111.735486 
L 149.951043 122.165959 
L 184.741841 125.050738 
" style="fill:none;stroke:#ff7f0e;stroke-linecap:round;stroke-width:1.3;"/>
    <defs>
     <path d="M 0 1.75 
C 0.464105 1.75 0.909265 1.565609 1.237437 1.237437 
C 1.565609 0.909265 1.75 0.464105 1.75 0 
C 1.75 -0.464105 1.565609 -0.909265 1.237437 -1.237437 
C 0.909265 -1.565609 0.464105 -1.75 0 -1.75 
C -0.464105 -1.75 -0.909265 -1.565609 -1.237437 -1.237437 
C -1.565609 -0.909265 -1.75 -0.464105 -1.75 0 
C -1.75 0.464105 -1.565609 0.909265 -1.237437 1.237437 
C -0.909265 1.565609 -0.464105 1.75 0 1.75 
z
" id="me1a8c52f29" style="stroke:#ff7f0e;stroke-width:0.8;"/>
    </defs>
    <g clip-path="url(#pcde85df76a)">
     <use style="fill:#ff7f0e;stroke:#ff7f0e;stroke-width:0.8;" x="45.578652" xlink:href="#me1a8c52f29" y="21.075035"/>
     <use style="fill:#ff7f0e;stroke:#ff7f0e;stroke-width:0.8;" x="80.369449" xlink:href="#me1a8c52f29" y="78.17883"/>
     <use style="fill:#ff7f0e;stroke:#ff7f0e;stroke-width:0.8;" x="115.160246" xlink:href="#me1a8c52f29" y="111.735486"/>
     <use style="fill:#ff7f0e;stroke:#ff7f0e;stroke-width:0.8;" x="149.951043" xlink:href="#me1a8c52f29" y="122.165959"/>
     <use style="fill:#ff7f0e;stroke:#ff7f0e;stroke-width:0.8;" x="184.741841" xlink:href="#me1a8c52f29" y="125.050738"/>
    </g>
   </g>
   <g id="line2d_48">
    <path clip-path="url(#pcde85df76a)" d="M 45.578652 23.813111 
L 80.369449 82.961909 
L 115.160246 114.178782 
L 149.951043 123.040747 
L 184.741841 125.380909 
" style="fill:none;stroke:#d62728;stroke-linecap:round;stroke-width:1.3;"/>
    <defs>
     <path d="M 0 1.75 
C 0.464105 1.75 0.909265 1.565609 1.237437 1.237437 
C 1.565609 0.909265 1.75 0.464105 1.75 0 
C 1.75 -0.464105 1.565609 -0.909265 1.237437 -1.237437 
C 0.909265 -1.565609 0.464105 -1.75 0 -1.75 
C -0.464105 -1.75 -0.909265 -1.565609 -1.237437 -1.237437 
C -1.565609 -0.909265 -1.75 -0.464105 -1.75 0 
C -1.75 0.464105 -1.565609 0.909265 -1.237437 1.237437 
C -0.909265 1.565609 -0.464105 1.75 0 1.75 
z
" id="me2a8b7c95c" style="stroke:#d62728;stroke-width:0.8;"/>
    </defs>
    <g clip-path="url(#pcde85df76a)">
     <use style="fill:#d62728;stroke:#d62728;stroke-width:0.8;" x="45.578652" xlink:href="#me2a8b7c95c" y="23.813111"/>
     <use style="fill:#d62728;stroke:#d62728;stroke-width:0.8;" x="80.369449" xlink:href="#me2a8b7c95c" y="82.961909"/>
     <use style="fill:#d62728;stroke:#d62728;stroke-width:0.8;" x="115.160246" xlink:href="#me2a8b7c95c" y="114.178782"/>
     <use style="fill:#d62728;stroke:#d62728;stroke-width:0.8;" x="149.951043" xlink:href="#me2a8b7c95c" y="123.040747"/>
     <use style="fill:#d62728;stroke:#d62728;stroke-width:0.8;" x="184.741841" xlink:href="#me2a8b7c95c" y="125.380909"/>
    </g>
   </g>
   <g id="line2d_49">
    <path clip-path="url(#pcde85df76a)" d="M 45.578652 16.599091 
L 80.369449 74.64295 
L 115.160246 109.081961 
L 149.951043 121.161346 
L 184.741841 124.698751 
" style="fill:none;stroke:#e377c2;stroke-linecap:round;stroke-width:1.3;"/>
    <defs>
     <path d="M 0 1.75 
C 0.464105 1.75 0.909265 1.565609 1.237437 1.237437 
C 1.565609 0.909265 1.75 0.464105 1.75 0 
C 1.75 -0.464105 1.565609 -0.909265 1.237437 -1.237437 
C 0.909265 -1.565609 0.464105 -1.75 0 -1.75 
C -0.464105 -1.75 -0.909265 -1.565609 -1.237437 -1.237437 
C -1.565609 -0.909265 -1.75 -0.464105 -1.75 0 
C -1.75 0.464105 -1.565609 0.909265 -1.237437 1.237437 
C -0.909265 1.565609 -0.464105 1.75 0 1.75 
z
" id="maa48190308" style="stroke:#e377c2;stroke-width:0.8;"/>
    </defs>
    <g clip-path="url(#pcde85df76a)">
     <use style="fill:#e377c2;stroke:#e377c2;stroke-width:0.8;" x="45.578652" xlink:href="#maa48190308" y="16.599091"/>
     <use style="fill:#e377c2;stroke:#e377c2;stroke-width:0.8;" x="80.369449" xlink:href="#maa48190308" y="74.64295"/>
     <use style="fill:#e377c2;stroke:#e377c2;stroke-width:0.8;" x="115.160246" xlink:href="#maa48190308" y="109.081961"/>
     <use style="fill:#e377c2;stroke:#e377c2;stroke-width:0.8;" x="149.951043" xlink:href="#maa48190308" y="121.161346"/>
     <use style="fill:#e377c2;stroke:#e377c2;stroke-width:0.8;" x="184.741841" xlink:href="#maa48190308" y="124.698751"/>
    </g>
   </g>
   <g id="patch_3">
    <path d="M 38.620492 130.82 
L 38.620492 11.16 
" style="fill:none;stroke:#262626;stroke-linecap:square;stroke-linejoin:miter;stroke-width:0.8;"/>
   </g>
   <g id="patch_4">
    <path d="M 38.620492 130.82 
L 191.7 130.82 
" style="fill:none;stroke:#262626;stroke-linecap:square;stroke-linejoin:miter;stroke-width:0.8;"/>
   </g>
   <g id="text_13">
    <!-- {\sf \textbf{A}} -->
    <defs>
     <path d="M 47.40625 64.71875 
C 45.90625 69 43 69 41 69 
L 32.203125 69 
C 30.203125 69 27.296875 69 25.796875 64.71875 
L 4.703125 4.671875 
C 4.203125 3.375 4.203125 3.1875 4.203125 2.6875 
C 4.203125 0 6.703125 0 8.09375 0 
L 11.703125 0 
C 13.5 0 16.59375 0 18 3.984375 
L 21.90625 15 
L 49.59375 15 
L 53 5.46875 
C 54.203125 2 54.90625 0 59.703125 0 
L 65.09375 0 
C 66.5 0 69 0 69 2.6875 
C 69 3.1875 69 3.375 68.5 4.671875 
z
M 32.09375 44.65625 
C 33.59375 49.015625 34.90625 52.796875 35.703125 56.375 
L 35.796875 56.375 
C 36.296875 53.984375 36.296875 53.78125 37.09375 51.5 
L 46.59375 23.59375 
L 24.90625 23.59375 
z
" id="CMSSBX10-65"/>
    </defs>
    <g transform="translate(7.794653 23.36965)scale(0.09 -0.09)">
     <use transform="scale(0.996264)" xlink:href="#CMSSBX10-65"/>
    </g>
   </g>
   <g id="legend_1">
    <g id="text_14">
     <!-- $\tilde \theta$ -->
     <g transform="translate(167.874605 22.655068)scale(0.09 -0.09)">
      <use transform="translate(9.368676 26.296621)scale(0.996264)" xlink:href="#CMR17-126"/>
      <use transform="scale(0.996264)" xlink:href="#CMMI12-18"/>
     </g>
    </g>
    <g id="line2d_50">
     <path d="M 154.278881 28.89673 
L 163.650131 28.89673 
" style="fill:none;stroke:#1f77b4;stroke-linecap:round;stroke-width:1.3;"/>
    </g>
    <g id="line2d_51">
     <g>
      <use style="fill:#1f77b4;stroke:#1f77b4;stroke-width:0.8;" x="158.964506" xlink:href="#mb40129fa3e" y="28.89673"/>
     </g>
    </g>
    <g id="text_15">
     <!-- 0.001 -->
     <defs>
      <path d="M 16.59375 4.09375 
C 16.59375 6.59375 14.59375 8.1875 12.5 8.1875 
C 10.5 8.1875 8.40625 6.59375 8.40625 4.09375 
C 8.40625 1.59375 10.40625 0 12.5 0 
C 14.5 0 16.59375 1.59375 16.59375 4.09375 
z
" id="CMR17-46"/>
     </defs>
     <g transform="translate(167.398631 31.52068)scale(0.07497 -0.07497)">
      <use transform="scale(0.996264)" xlink:href="#CMR17-48"/>
      <use transform="translate(45.690477 0)scale(0.996264)" xlink:href="#CMR17-46"/>
      <use transform="translate(70.561536 0)scale(0.996264)" xlink:href="#CMR17-48"/>
      <use transform="translate(116.252013 0)scale(0.996264)" xlink:href="#CMR17-48"/>
      <use transform="translate(161.94249 0)scale(0.996264)" xlink:href="#CMR17-49"/>
     </g>
    </g>
    <g id="line2d_52">
     <path d="M 154.278881 37.471182 
L 163.650131 37.471182 
" style="fill:none;stroke:#ff7f0e;stroke-linecap:round;stroke-width:1.3;"/>
    </g>
    <g id="line2d_53">
     <g>
      <use style="fill:#ff7f0e;stroke:#ff7f0e;stroke-width:0.8;" x="158.964506" xlink:href="#me1a8c52f29" y="37.471182"/>
     </g>
    </g>
    <g id="text_16">
     <!-- 0.002 -->
     <g transform="translate(167.398631 40.095132)scale(0.07497 -0.07497)">
      <use transform="scale(0.996264)" xlink:href="#CMR17-48"/>
      <use transform="translate(45.690477 0)scale(0.996264)" xlink:href="#CMR17-46"/>
      <use transform="translate(70.561536 0)scale(0.996264)" xlink:href="#CMR17-48"/>
      <use transform="translate(116.252013 0)scale(0.996264)" xlink:href="#CMR17-48"/>
      <use transform="translate(161.94249 0)scale(0.996264)" xlink:href="#CMR17-50"/>
     </g>
    </g>
    <g id="line2d_54">
     <path d="M 154.278881 46.045635 
L 163.650131 46.045635 
" style="fill:none;stroke:#d62728;stroke-linecap:round;stroke-width:1.3;"/>
    </g>
    <g id="line2d_55">
     <g>
      <use style="fill:#d62728;stroke:#d62728;stroke-width:0.8;" x="158.964506" xlink:href="#me2a8b7c95c" y="46.045635"/>
     </g>
    </g>
    <g id="text_17">
     <!-- 0.01 -->
     <g transform="translate(167.398631 48.669585)scale(0.07497 -0.07497)">
      <use transform="scale(0.996264)" xlink:href="#CMR17-48"/>
      <use transform="translate(45.690477 0)scale(0.996264)" xlink:href="#CMR17-46"/>
      <use transform="translate(70.561536 0)scale(0.996264)" xlink:href="#CMR17-48"/>
      <use transform="translate(116.252013 0)scale(0.996264)" xlink:href="#CMR17-49"/>
     </g>
    </g>
    <g id="line2d_56">
     <path d="M 154.278881 54.620087 
L 163.650131 54.620087 
" style="fill:none;stroke:#e377c2;stroke-linecap:round;stroke-width:1.3;"/>
    </g>
    <g id="line2d_57">
     <g>
      <use style="fill:#e377c2;stroke:#e377c2;stroke-width:0.8;" x="158.964506" xlink:href="#maa48190308" y="54.620087"/>
     </g>
    </g>
    <g id="text_18">
     <!-- 0.1 -->
     <g transform="translate(167.398631 57.244037)scale(0.07497 -0.07497)">
      <use transform="scale(0.996264)" xlink:href="#CMR17-48"/>
      <use transform="translate(45.690477 0)scale(0.996264)" xlink:href="#CMR17-46"/>
      <use transform="translate(70.561536 0)scale(0.996264)" xlink:href="#CMR17-49"/>
     </g>
    </g>
   </g>
  </g>
  <g id="axes_2">
   <g id="patch_5">
    <path d="M 231.760492 130.82 
L 384.84 130.82 
L 384.84 11.16 
L 231.760492 11.16 
z
" style="fill:#ffffff;"/>
   </g>
   <g id="matplotlib.axis_3">
    <g id="xtick_41">
     <g id="line2d_58">
      <g>
       <use style="stroke:#000000;stroke-width:0.8;" x="238.718652" xlink:href="#m2cb6bd53cb" y="130.82"/>
      </g>
     </g>
     <g id="text_19">
      <!-- $10^{-2}$ -->
      <g transform="translate(229.854371 141.573219)scale(0.07497 -0.07497)">
       <use transform="scale(0.996264)" xlink:href="#CMR17-49"/>
       <use transform="translate(45.690477 0)scale(0.996264)" xlink:href="#CMR17-48"/>
       <use transform="translate(91.380954 36.153639)scale(0.697382)" xlink:href="#CMSY10-0"/>
       <use transform="translate(145.621947 36.153639)scale(0.697382)" xlink:href="#CMR17-50"/>
      </g>
     </g>
    </g>
    <g id="xtick_42">
     <g id="line2d_59">
      <g>
       <use style="stroke:#000000;stroke-width:0.8;" x="273.509449" xlink:href="#m2cb6bd53cb" y="130.82"/>
      </g>
     </g>
     <g id="text_20">
      <!-- $10^{-1}$ -->
      <g transform="translate(264.645168 141.573219)scale(0.07497 -0.07497)">
       <use transform="scale(0.996264)" xlink:href="#CMR17-49"/>
       <use transform="translate(45.690477 0)scale(0.996264)" xlink:href="#CMR17-48"/>
       <use transform="translate(91.380954 36.153639)scale(0.697382)" xlink:href="#CMSY10-0"/>
       <use transform="translate(145.621947 36.153639)scale(0.697382)" xlink:href="#CMR17-49"/>
      </g>
     </g>
    </g>
    <g id="xtick_43">
     <g id="line2d_60">
      <g>
       <use style="stroke:#000000;stroke-width:0.8;" x="308.300246" xlink:href="#m2cb6bd53cb" y="130.82"/>
      </g>
     </g>
     <g id="text_21">
      <!-- $10^{0}$ -->
      <g transform="translate(302.267974 141.506787)scale(0.07497 -0.07497)">
       <use transform="scale(0.996264)" xlink:href="#CMR17-49"/>
       <use transform="translate(45.690477 0)scale(0.996264)" xlink:href="#CMR17-48"/>
       <use transform="translate(91.380954 36.153639)scale(0.697382)" xlink:href="#CMR17-48"/>
      </g>
     </g>
    </g>
    <g id="xtick_44">
     <g id="line2d_61">
      <g>
       <use style="stroke:#000000;stroke-width:0.8;" x="343.091043" xlink:href="#m2cb6bd53cb" y="130.82"/>
      </g>
     </g>
     <g id="text_22">
      <!-- $10^{1}$ -->
      <g transform="translate(337.058771 141.506787)scale(0.07497 -0.07497)">
       <use transform="scale(0.996264)" xlink:href="#CMR17-49"/>
       <use transform="translate(45.690477 0)scale(0.996264)" xlink:href="#CMR17-48"/>
       <use transform="translate(91.380954 36.153639)scale(0.697382)" xlink:href="#CMR17-49"/>
      </g>
     </g>
    </g>
    <g id="xtick_45">
     <g id="line2d_62">
      <g>
       <use style="stroke:#000000;stroke-width:0.8;" x="377.881841" xlink:href="#m2cb6bd53cb" y="130.82"/>
      </g>
     </g>
     <g id="text_23">
      <!-- $10^{2}$ -->
      <g transform="translate(371.849568 141.506787)scale(0.07497 -0.07497)">
       <use transform="scale(0.996264)" xlink:href="#CMR17-49"/>
       <use transform="translate(45.690477 0)scale(0.996264)" xlink:href="#CMR17-48"/>
       <use transform="translate(91.380954 36.153639)scale(0.697382)" xlink:href="#CMR17-50"/>
      </g>
     </g>
    </g>
    <g id="xtick_46">
     <g id="line2d_63"/>
    </g>
    <g id="xtick_47">
     <g id="line2d_64"/>
    </g>
    <g id="xtick_48">
     <g id="line2d_65"/>
    </g>
    <g id="xtick_49">
     <g id="line2d_66"/>
    </g>
    <g id="xtick_50">
     <g id="line2d_67"/>
    </g>
    <g id="xtick_51">
     <g id="line2d_68"/>
    </g>
    <g id="xtick_52">
     <g id="line2d_69"/>
    </g>
    <g id="xtick_53">
     <g id="line2d_70"/>
    </g>
    <g id="xtick_54">
     <g id="line2d_71"/>
    </g>
    <g id="xtick_55">
     <g id="line2d_72"/>
    </g>
    <g id="xtick_56">
     <g id="line2d_73"/>
    </g>
    <g id="xtick_57">
     <g id="line2d_74"/>
    </g>
    <g id="xtick_58">
     <g id="line2d_75"/>
    </g>
    <g id="xtick_59">
     <g id="line2d_76"/>
    </g>
    <g id="xtick_60">
     <g id="line2d_77"/>
    </g>
    <g id="xtick_61">
     <g id="line2d_78"/>
    </g>
    <g id="xtick_62">
     <g id="line2d_79"/>
    </g>
    <g id="xtick_63">
     <g id="line2d_80"/>
    </g>
    <g id="xtick_64">
     <g id="line2d_81"/>
    </g>
    <g id="xtick_65">
     <g id="line2d_82"/>
    </g>
    <g id="xtick_66">
     <g id="line2d_83"/>
    </g>
    <g id="xtick_67">
     <g id="line2d_84"/>
    </g>
    <g id="xtick_68">
     <g id="line2d_85"/>
    </g>
    <g id="xtick_69">
     <g id="line2d_86"/>
    </g>
    <g id="xtick_70">
     <g id="line2d_87"/>
    </g>
    <g id="xtick_71">
     <g id="line2d_88"/>
    </g>
    <g id="xtick_72">
     <g id="line2d_89"/>
    </g>
    <g id="xtick_73">
     <g id="line2d_90"/>
    </g>
    <g id="xtick_74">
     <g id="line2d_91"/>
    </g>
    <g id="xtick_75">
     <g id="line2d_92"/>
    </g>
    <g id="xtick_76">
     <g id="line2d_93"/>
    </g>
    <g id="xtick_77">
     <g id="line2d_94"/>
    </g>
    <g id="xtick_78">
     <g id="line2d_95"/>
    </g>
    <g id="xtick_79">
     <g id="line2d_96"/>
    </g>
    <g id="xtick_80">
     <g id="line2d_97"/>
    </g>
    <g id="text_24">
     <!-- $\lambda t/K$ -->
     <g style="fill:#262626;" transform="translate(297.742684 152.750303)scale(0.09 -0.09)">
      <use transform="scale(0.996264)" xlink:href="#CMMI12-21"/>
      <use transform="translate(56.904072 0)scale(0.996264)" xlink:href="#CMMI12-116"/>
      <use transform="translate(92.130402 0)scale(0.996264)" xlink:href="#CMMI12-61"/>
      <use transform="translate(140.905321 0)scale(0.996264)" xlink:href="#CMMI12-75"/>
     </g>
    </g>
   </g>
   <g id="matplotlib.axis_4">
    <g id="ytick_6">
     <g id="line2d_98">
      <g>
       <use style="stroke:#000000;stroke-width:0.8;" x="231.760492" xlink:href="#m9e96d71898" y="115.8625"/>
      </g>
     </g>
     <g id="text_25">
      <!-- $1.0$ -->
      <g transform="translate(215.22 118.455894)scale(0.07497 -0.07497)">
       <use transform="scale(0.996264)" xlink:href="#CMR17-49"/>
       <use transform="translate(45.690477 0)scale(0.996264)" xlink:href="#CMMI12-58"/>
       <use transform="translate(72.787654 0)scale(0.996264)" xlink:href="#CMR17-48"/>
      </g>
     </g>
    </g>
    <g id="ytick_7">
     <g id="line2d_99">
      <g>
       <use style="stroke:#000000;stroke-width:0.8;" x="231.760492" xlink:href="#m9e96d71898" y="85.9475"/>
      </g>
     </g>
     <g id="text_26">
      <!-- $1.1$ -->
      <g transform="translate(215.22 88.540894)scale(0.07497 -0.07497)">
       <use transform="scale(0.996264)" xlink:href="#CMR17-49"/>
       <use transform="translate(45.690477 0)scale(0.996264)" xlink:href="#CMMI12-58"/>
       <use transform="translate(72.787654 0)scale(0.996264)" xlink:href="#CMR17-49"/>
      </g>
     </g>
    </g>
    <g id="ytick_8">
     <g id="line2d_100">
      <g>
       <use style="stroke:#000000;stroke-width:0.8;" x="231.760492" xlink:href="#m9e96d71898" y="56.0325"/>
      </g>
     </g>
     <g id="text_27">
      <!-- $1.2$ -->
      <g transform="translate(215.22 58.625894)scale(0.07497 -0.07497)">
       <use transform="scale(0.996264)" xlink:href="#CMR17-49"/>
       <use transform="translate(45.690477 0)scale(0.996264)" xlink:href="#CMMI12-58"/>
       <use transform="translate(72.787654 0)scale(0.996264)" xlink:href="#CMR17-50"/>
      </g>
     </g>
    </g>
    <g id="ytick_9">
     <g id="line2d_101">
      <g>
       <use style="stroke:#000000;stroke-width:0.8;" x="231.760492" xlink:href="#m9e96d71898" y="26.1175"/>
      </g>
     </g>
     <g id="text_28">
      <!-- $1.3$ -->
      <defs>
       <path d="M 22.09375 34 
C 31 34 34.90625 26.140625 34.90625 17.09375 
C 34.90625 5.03125 28.5 0.390625 22.703125 0.390625 
C 17.40625 0.390625 8.796875 3.015625 6.09375 10.796875 
C 6.59375 10.59375 7.09375 10.59375 7.59375 10.59375 
C 10 10.59375 11.796875 12.1875 11.796875 14.796875 
C 11.796875 17.6875 9.59375 19 7.59375 19 
C 5.90625 19 3.296875 18.1875 3.296875 14.484375 
C 3.296875 5.234375 12.296875 -2 22.90625 -2 
C 34 -2 42.5 6.75 42.5 16.984375 
C 42.5 26.84375 34.5 34 25 35.09375 
C 32.59375 36.671875 39.90625 43.375 39.90625 52.390625 
C 39.90625 60.25 32 66 23 66 
C 13.90625 66 5.90625 60.34375 5.90625 52.296875 
C 5.90625 48.796875 8.5 48.1875 9.796875 48.1875 
C 11.90625 48.1875 13.703125 49.484375 13.703125 52.09375 
C 13.703125 54.6875 11.90625 56 9.796875 56 
C 9.40625 56 8.90625 56 8.5 55.796875 
C 11.40625 62.484375 19.296875 63.6875 22.796875 63.6875 
C 26.296875 63.6875 32.90625 61.96875 32.90625 52.296875 
C 32.90625 49.484375 32.5 44.546875 29.09375 40.21875 
C 26.09375 36.390625 22.703125 36.1875 19.40625 35.890625 
C 18.90625 35.890625 16.59375 35.6875 16.203125 35.6875 
C 15.5 35.59375 15.09375 35.5 15.09375 34.796875 
C 15.09375 34.09375 15.203125 34 17.203125 34 
z
" id="CMR17-51"/>
      </defs>
      <g transform="translate(215.22 28.710894)scale(0.07497 -0.07497)">
       <use transform="scale(0.996264)" xlink:href="#CMR17-49"/>
       <use transform="translate(45.690477 0)scale(0.996264)" xlink:href="#CMMI12-58"/>
       <use transform="translate(72.787654 0)scale(0.996264)" xlink:href="#CMR17-51"/>
      </g>
     </g>
    </g>
    <g id="text_29">
     <!-- $c_{\tilde \theta}(t)/c_{\theta}(t)$ -->
     <g style="fill:#262626;" transform="translate(210.476538 91.998939)rotate(-90)scale(0.09 -0.09)">
      <use transform="translate(0 29.838667)scale(0.996264)" xlink:href="#CMMI12-99"/>
      <use transform="translate(48.541267 18.407549)scale(0.697382)" xlink:href="#CMR17-126"/>
      <use transform="translate(41.983234 0)scale(0.697382)" xlink:href="#CMMI12-18"/>
      <use transform="translate(76.199861 29.838667)scale(0.996264)" xlink:href="#CMR17-40"/>
      <use transform="translate(111.480629 29.838667)scale(0.996264)" xlink:href="#CMMI12-116"/>
      <use transform="translate(146.706959 29.838667)scale(0.996264)" xlink:href="#CMR17-41"/>
      <use transform="translate(181.987727 29.838667)scale(0.996264)" xlink:href="#CMMI12-61"/>
      <use transform="translate(230.762646 29.838667)scale(0.996264)" xlink:href="#CMMI12-99"/>
      <use transform="translate(272.74588 14.894752)scale(0.697382)" xlink:href="#CMMI12-18"/>
      <use transform="translate(306.962508 29.838667)scale(0.996264)" xlink:href="#CMR17-40"/>
      <use transform="translate(342.243275 29.838667)scale(0.996264)" xlink:href="#CMMI12-116"/>
      <use transform="translate(377.469606 29.838667)scale(0.996264)" xlink:href="#CMR17-41"/>
     </g>
    </g>
   </g>
   <g id="line2d_102">
    <path clip-path="url(#pf32b77d2b6)" d="M 238.718652 99.928971 
L 273.509449 58.391142 
L 308.300246 24.95158 
L 343.091043 41.062826 
L 377.881841 76.368878 
" style="fill:none;stroke:#1f77b4;stroke-linecap:round;stroke-width:1.3;"/>
    <g clip-path="url(#pf32b77d2b6)">
     <use style="fill:#1f77b4;stroke:#1f77b4;stroke-width:0.8;" x="238.718652" xlink:href="#mb40129fa3e" y="99.928971"/>
     <use style="fill:#1f77b4;stroke:#1f77b4;stroke-width:0.8;" x="273.509449" xlink:href="#mb40129fa3e" y="58.391142"/>
     <use style="fill:#1f77b4;stroke:#1f77b4;stroke-width:0.8;" x="308.300246" xlink:href="#mb40129fa3e" y="24.95158"/>
     <use style="fill:#1f77b4;stroke:#1f77b4;stroke-width:0.8;" x="343.091043" xlink:href="#mb40129fa3e" y="41.062826"/>
     <use style="fill:#1f77b4;stroke:#1f77b4;stroke-width:0.8;" x="377.881841" xlink:href="#mb40129fa3e" y="76.368878"/>
    </g>
   </g>
   <g id="line2d_103">
    <path clip-path="url(#pf32b77d2b6)" d="M 238.718652 108.204483 
L 273.509449 85.934754 
L 308.300246 71.814527 
L 343.091043 82.015201 
L 377.881841 97.542497 
" style="fill:none;stroke:#ff7f0e;stroke-linecap:round;stroke-width:1.3;"/>
    <g clip-path="url(#pf32b77d2b6)">
     <use style="fill:#ff7f0e;stroke:#ff7f0e;stroke-width:0.8;" x="238.718652" xlink:href="#me1a8c52f29" y="108.204483"/>
     <use style="fill:#ff7f0e;stroke:#ff7f0e;stroke-width:0.8;" x="273.509449" xlink:href="#me1a8c52f29" y="85.934754"/>
     <use style="fill:#ff7f0e;stroke:#ff7f0e;stroke-width:0.8;" x="308.300246" xlink:href="#me1a8c52f29" y="71.814527"/>
     <use style="fill:#ff7f0e;stroke:#ff7f0e;stroke-width:0.8;" x="343.091043" xlink:href="#me1a8c52f29" y="82.015201"/>
     <use style="fill:#ff7f0e;stroke:#ff7f0e;stroke-width:0.8;" x="377.881841" xlink:href="#me1a8c52f29" y="97.542497"/>
    </g>
   </g>
   <g id="line2d_104">
    <path clip-path="url(#pf32b77d2b6)" d="M 238.718652 115.8625 
L 273.509449 115.8625 
L 308.300246 115.8625 
L 343.091043 115.8625 
L 377.881841 115.8625 
" style="fill:none;stroke:#d62728;stroke-linecap:round;stroke-width:1.3;"/>
    <g clip-path="url(#pf32b77d2b6)">
     <use style="fill:#d62728;stroke:#d62728;stroke-width:0.8;" x="238.718652" xlink:href="#me2a8b7c95c" y="115.8625"/>
     <use style="fill:#d62728;stroke:#d62728;stroke-width:0.8;" x="273.509449" xlink:href="#me2a8b7c95c" y="115.8625"/>
     <use style="fill:#d62728;stroke:#d62728;stroke-width:0.8;" x="308.300246" xlink:href="#me2a8b7c95c" y="115.8625"/>
     <use style="fill:#d62728;stroke:#d62728;stroke-width:0.8;" x="343.091043" xlink:href="#me2a8b7c95c" y="115.8625"/>
     <use style="fill:#d62728;stroke:#d62728;stroke-width:0.8;" x="377.881841" xlink:href="#me2a8b7c95c" y="115.8625"/>
    </g>
   </g>
   <g id="line2d_105">
    <path clip-path="url(#pf32b77d2b6)" d="M 238.718652 95.685893 
L 273.509449 63.810737 
L 308.300246 23.976515 
L 343.091043 43.14475 
L 377.881841 78.012007 
" style="fill:none;stroke:#e377c2;stroke-linecap:round;stroke-width:1.3;"/>
    <g clip-path="url(#pf32b77d2b6)">
     <use style="fill:#e377c2;stroke:#e377c2;stroke-width:0.8;" x="238.718652" xlink:href="#maa48190308" y="95.685893"/>
     <use style="fill:#e377c2;stroke:#e377c2;stroke-width:0.8;" x="273.509449" xlink:href="#maa48190308" y="63.810737"/>
     <use style="fill:#e377c2;stroke:#e377c2;stroke-width:0.8;" x="308.300246" xlink:href="#maa48190308" y="23.976515"/>
     <use style="fill:#e377c2;stroke:#e377c2;stroke-width:0.8;" x="343.091043" xlink:href="#maa48190308" y="43.14475"/>
     <use style="fill:#e377c2;stroke:#e377c2;stroke-width:0.8;" x="377.881841" xlink:href="#maa48190308" y="78.012007"/>
    </g>
   </g>
   <g id="patch_6">
    <path d="M 231.760492 130.82 
L 231.760492 11.16 
" style="fill:none;stroke:#262626;stroke-linecap:square;stroke-linejoin:miter;stroke-width:0.8;"/>
   </g>
   <g id="patch_7">
    <path d="M 231.760492 130.82 
L 384.84 130.82 
" style="fill:none;stroke:#262626;stroke-linecap:square;stroke-linejoin:miter;stroke-width:0.8;"/>
   </g>
   <g id="text_30">
    <!-- {\sf \textbf{B}} -->
    <defs>
     <path d="M 13.90625 69 
C 10.296875 69 9.09375 67.890625 9.09375 64.1875 
L 9.09375 4.796875 
C 9.09375 1.1875 10.203125 0 13.90625 0 
L 41.296875 0 
C 48.703125 0 67.09375 1.296875 67.09375 19.171875 
C 67.09375 33 53.203125 35.1875 49.5 35.796875 
C 58.703125 37.890625 64 43.109375 64 50.953125 
C 64 69 42.703125 69 38.5 69 
z
M 23.203125 39.1875 
L 23.203125 60.390625 
L 34.90625 60.390625 
C 38.796875 60.390625 50.40625 60.09375 50.40625 50.640625 
C 50.40625 39.1875 37.296875 39.1875 34.796875 39.1875 
z
M 23.203125 8.59375 
L 23.203125 32 
L 35.796875 32 
C 39.296875 32 53.203125 32 53.203125 19.359375 
C 53.203125 9.28125 42.5 8.59375 37.703125 8.59375 
z
" id="CMSSBX10-66"/>
    </defs>
    <g transform="translate(200.934653 23.36965)scale(0.09 -0.09)">
     <use transform="scale(0.996264)" xlink:href="#CMSSBX10-66"/>
    </g>
   </g>
  </g>
 </g>
 <defs>
  <clipPath id="pcde85df76a">
   <rect height="119.66" width="153.079508" x="38.620492" y="11.16"/>
  </clipPath>
  <clipPath id="pf32b77d2b6">
   <rect height="119.66" width="153.079508" x="231.760492" y="11.16"/>
  </clipPath>
 </defs>
</svg>
