<?xml version="1.0" encoding="utf-8" standalone="no"?>
<!DOCTYPE svg PUBLIC "-//W3C//DTD SVG 1.1//EN"
  "http://www.w3.org/Graphics/SVG/1.1/DTD/svg11.dtd">
<!-- Created with matplotlib (https://matplotlib.org/) -->
<svg height="144pt" version="1.1" viewBox="0 0 194.4 144" width="194.4pt" xmlns="http://www.w3.org/2000/svg" xmlns:xlink="http://www.w3.org/1999/xlink">
 <defs>
  <style type="text/css">
*{stroke-linecap:butt;stroke-linejoin:round;}
  </style>
 </defs>
 <g id="figure_1">
  <g id="patch_1">
   <path d="M 0 144 
L 194.4 144 
L 194.4 0 
L 0 0 
z
" style="fill:#ffffff;"/>
  </g>
  <g id="axes_1">
   <g id="patch_2">
    <path d="M 38.288562 116.24 
L 185.320222 116.24 
L 185.320222 4.14 
L 38.288562 4.14 
z
" style="fill:#ffffff;"/>
   </g>
   <g id="matplotlib.axis_1">
    <g id="xtick_1">
     <g id="line2d_1">
      <defs>
       <path d="M 0 2 
L 0 -2 
" id="m523962c8cb" style="stroke:#000000;stroke-width:0.8;"/>
      </defs>
      <g>
       <use style="stroke:#000000;stroke-width:0.8;" x="38.288562" xlink:href="#m523962c8cb" y="116.24"/>
      </g>
     </g>
     <g id="text_1">
      <!-- $0$ -->
      <defs>
       <path d="M 42 31.84375 
C 42 37.96875 41.90625 48.421875 37.703125 56.453125 
C 34 63.484375 28.09375 66 22.90625 66 
C 18.09375 66 12 63.78125 8.203125 56.5625 
C 4.203125 49.015625 3.796875 39.671875 3.796875 31.84375 
C 3.796875 26.109375 3.90625 17.375 7 9.734375 
C 11.296875 -0.609375 19 -2 22.90625 -2 
C 27.5 -2 34.5 -0.109375 38.59375 9.4375 
C 41.59375 16.375 42 24.5 42 31.84375 
z
M 22.90625 -0.40625 
C 16.5 -0.40625 12.703125 5.125 11.296875 12.75 
C 10.203125 18.6875 10.203125 27.328125 10.203125 32.953125 
C 10.203125 40.6875 10.203125 47.109375 11.5 53.234375 
C 13.40625 61.78125 19 64.390625 22.90625 64.390625 
C 27 64.390625 32.296875 61.671875 34.203125 53.4375 
C 35.5 47.71875 35.59375 40.984375 35.59375 32.953125 
C 35.59375 26.421875 35.59375 18.375 34.40625 12.453125 
C 32.296875 1.5 26.40625 -0.40625 22.90625 -0.40625 
z
" id="CMR17-48"/>
      </defs>
      <g transform="translate(36.161969 126.926787)scale(0.07497 -0.07497)">
       <use transform="scale(0.996264)" xlink:href="#CMR17-48"/>
      </g>
     </g>
    </g>
    <g id="xtick_2">
     <g id="line2d_2">
      <g>
       <use style="stroke:#000000;stroke-width:0.8;" x="67.694894" xlink:href="#m523962c8cb" y="116.24"/>
      </g>
     </g>
     <g id="text_2">
      <!-- $20$ -->
      <defs>
       <path d="M 41.703125 15.46875 
L 39.90625 15.46875 
C 38.90625 8.390625 38.09375 7.1875 37.703125 6.59375 
C 37.203125 5.796875 30 5.796875 28.59375 5.796875 
L 9.40625 5.796875 
C 13 9.6875 20 16.765625 28.5 24.9375 
C 34.59375 30.71875 41.703125 37.5 41.703125 47.390625 
C 41.703125 59.1875 32.296875 66 21.796875 66 
C 10.796875 66 4.09375 56.296875 4.09375 47.296875 
C 4.09375 43.390625 7 42.890625 8.203125 42.890625 
C 9.203125 42.890625 12.203125 43.484375 12.203125 46.984375 
C 12.203125 50.09375 9.59375 51 8.203125 51 
C 7.59375 51 7 50.890625 6.59375 50.6875 
C 8.5 59.1875 14.296875 63.390625 20.40625 63.390625 
C 29.09375 63.390625 34.796875 56.5 34.796875 47.390625 
C 34.796875 38.703125 29.703125 31.21875 24 24.734375 
L 4.09375 2.296875 
L 4.09375 0 
L 39.296875 0 
z
" id="CMR17-50"/>
      </defs>
      <g transform="translate(63.441709 126.926787)scale(0.07497 -0.07497)">
       <use transform="scale(0.996264)" xlink:href="#CMR17-50"/>
       <use transform="translate(45.690477 0)scale(0.996264)" xlink:href="#CMR17-48"/>
      </g>
     </g>
    </g>
    <g id="xtick_3">
     <g id="line2d_3">
      <g>
       <use style="stroke:#000000;stroke-width:0.8;" x="97.101226" xlink:href="#m523962c8cb" y="116.24"/>
      </g>
     </g>
     <g id="text_3">
      <!-- $40$ -->
      <defs>
       <path d="M 33.59375 64.796875 
C 33.59375 66.890625 33.5 67 31.703125 67 
L 2 19.59375 
L 2 17 
L 27.796875 17 
L 27.796875 7.1875 
C 27.796875 3.59375 27.59375 2.59375 20.59375 2.59375 
L 18.703125 2.59375 
L 18.703125 0 
C 21.90625 0.1875 27.296875 0.1875 30.703125 0.1875 
C 34.09375 0.1875 39.5 0.1875 42.703125 0 
L 42.703125 2.59375 
L 40.796875 2.59375 
C 33.796875 2.59375 33.59375 3.59375 33.59375 7.1875 
L 33.59375 17 
L 43.796875 17 
L 43.796875 19.59375 
L 33.59375 19.59375 
z
M 28.09375 58.171875 
L 28.09375 19.59375 
L 4 19.59375 
z
" id="CMR17-52"/>
      </defs>
      <g transform="translate(92.848041 126.926787)scale(0.07497 -0.07497)">
       <use transform="scale(0.996264)" xlink:href="#CMR17-52"/>
       <use transform="translate(45.690477 0)scale(0.996264)" xlink:href="#CMR17-48"/>
      </g>
     </g>
    </g>
    <g id="xtick_4">
     <g id="line2d_4">
      <g>
       <use style="stroke:#000000;stroke-width:0.8;" x="126.507558" xlink:href="#m523962c8cb" y="116.24"/>
      </g>
     </g>
     <g id="text_4">
      <!-- $60$ -->
      <defs>
       <path d="M 10.59375 34.34375 
C 10.59375 58 21.796875 63.6875 28.296875 63.6875 
C 30.40625 63.6875 35.5 63.265625 37.5 59.09375 
C 35.90625 59.09375 32.90625 59.09375 32.90625 55.59375 
C 32.90625 52.890625 35.09375 52 36.5 52 
C 37.40625 52 40.09375 52.390625 40.09375 55.796875 
C 40.09375 62.296875 35.09375 66 28.203125 66 
C 16.296875 66 3.796875 53.296875 3.796875 31.421875 
C 3.796875 4.015625 15.09375 -2 23.09375 -2 
C 32.796875 -2 42 6.734375 42 20.234375 
C 42 32.828125 33.90625 42 23.703125 42 
C 17.59375 42 13.09375 37.96875 10.59375 30.921875 
z
M 23.09375 0.390625 
C 10.796875 0.390625 10.796875 18.9375 10.796875 22.65625 
C 10.796875 29.90625 14.203125 40.390625 23.5 40.390625 
C 25.203125 40.390625 30.09375 40.390625 33.40625 33.4375 
C 35.203125 29.515625 35.203125 25.375 35.203125 20.34375 
C 35.203125 14.90625 35.203125 10.875 33.09375 6.84375 
C 30.90625 2.703125 27.703125 0.390625 23.09375 0.390625 
z
" id="CMR17-54"/>
      </defs>
      <g transform="translate(122.254373 126.926787)scale(0.07497 -0.07497)">
       <use transform="scale(0.996264)" xlink:href="#CMR17-54"/>
       <use transform="translate(45.690477 0)scale(0.996264)" xlink:href="#CMR17-48"/>
      </g>
     </g>
    </g>
    <g id="xtick_5">
     <g id="line2d_5">
      <g>
       <use style="stroke:#000000;stroke-width:0.8;" x="155.91389" xlink:href="#m523962c8cb" y="116.24"/>
      </g>
     </g>
     <g id="text_5">
      <!-- $80$ -->
      <defs>
       <path d="M 27.203125 35.765625 
C 33.5 38.96875 39.90625 43.796875 39.90625 51.53125 
C 39.90625 60.6875 31.09375 66 23 66 
C 13.90625 66 5.90625 59.375 5.90625 50.234375 
C 5.90625 47.71875 6.5 43.390625 10.40625 39.578125 
C 11.40625 38.578125 15.59375 35.5625 18.296875 33.65625 
C 13.796875 31.34375 3.296875 25.8125 3.296875 14.765625 
C 3.296875 4.40625 13.09375 -2 22.796875 -2 
C 33.5 -2 42.5 5.71875 42.5 15.96875 
C 42.5 25.109375 36.40625 29.328125 32.40625 32.046875 
z
M 14.09375 44.609375 
C 13.296875 45.109375 9.296875 48.21875 9.296875 52.9375 
C 9.296875 59.078125 15.59375 63.6875 22.796875 63.6875 
C 30.703125 63.6875 36.5 58.0625 36.5 51.53125 
C 36.5 42.1875 26.09375 36.859375 25.59375 36.859375 
C 25.5 36.859375 25.40625 36.859375 24.59375 37.46875 
z
M 32.5 24 
C 34 22.90625 38.796875 19.578125 38.796875 13.453125 
C 38.796875 6.015625 31.40625 0.390625 23 0.390625 
C 13.90625 0.390625 7 6.921875 7 14.859375 
C 7 22.796875 13.09375 29.4375 20 32.546875 
z
" id="CMR17-56"/>
      </defs>
      <g transform="translate(151.660705 126.926787)scale(0.07497 -0.07497)">
       <use transform="scale(0.996264)" xlink:href="#CMR17-56"/>
       <use transform="translate(45.690477 0)scale(0.996264)" xlink:href="#CMR17-48"/>
      </g>
     </g>
    </g>
    <g id="xtick_6">
     <g id="line2d_6">
      <g>
       <use style="stroke:#000000;stroke-width:0.8;" x="185.320222" xlink:href="#m523962c8cb" y="116.24"/>
      </g>
     </g>
     <g id="text_6">
      <!-- $100$ -->
      <defs>
       <path d="M 26.59375 63.796875 
C 26.59375 65.890625 26.5 66 25.09375 66 
C 21.203125 61.359375 15.296875 59.890625 9.703125 59.6875 
C 9.40625 59.6875 8.90625 59.6875 8.796875 59.5 
C 8.703125 59.296875 8.703125 59.09375 8.703125 57 
C 11.796875 57 17 57.59375 21 59.984375 
L 21 7.296875 
C 21 3.796875 20.796875 2.59375 12.203125 2.59375 
L 9.203125 2.59375 
L 9.203125 0 
C 14 0.09375 19 0.1875 23.796875 0.1875 
C 28.59375 0.1875 33.59375 0.09375 38.40625 0 
L 38.40625 2.59375 
L 35.40625 2.59375 
C 26.796875 2.59375 26.59375 3.6875 26.59375 7.296875 
z
" id="CMR17-49"/>
      </defs>
      <g transform="translate(178.940445 126.926787)scale(0.07497 -0.07497)">
       <use transform="scale(0.996264)" xlink:href="#CMR17-49"/>
       <use transform="translate(45.690477 0)scale(0.996264)" xlink:href="#CMR17-48"/>
       <use transform="translate(91.380954 0)scale(0.996264)" xlink:href="#CMR17-48"/>
      </g>
     </g>
    </g>
    <g id="text_7">
     <!-- time in years -->
     <defs>
      <path d="M 15.09375 40.390625 
L 29.09375 40.390625 
L 29.09375 43 
L 15.09375 43 
L 15.09375 62 
L 13.296875 62 
C 13.09375 51.4375 9.59375 42.1875 1.09375 41.984375 
L 1.09375 40.390625 
L 9.796875 40.390625 
L 9.796875 12.15625 
C 9.796875 10.234375 9.796875 -1 21.40625 -1 
C 27.296875 -1 30.703125 4.8125 30.703125 12.25 
L 30.703125 17.984375 
L 28.90625 17.984375 
L 28.90625 12.34375 
C 28.90625 5.421875 26.203125 0.796875 22 0.796875 
C 19.09375 0.796875 15.09375 2.796875 15.09375 11.953125 
z
" id="CMR17-116"/>
      <path d="M 15.5 61.890625 
C 15.5 64.09375 13.703125 66 11.40625 66 
C 9.203125 66 7.296875 64.1875 7.296875 61.890625 
C 7.296875 59.6875 9.09375 57.796875 11.40625 57.796875 
C 13.59375 57.796875 15.5 59.59375 15.5 61.890625 
z
M 3.796875 42.890625 
L 3.796875 40.296875 
C 9.40625 40.296875 10.203125 39.6875 10.203125 34.859375 
L 10.203125 6.921875 
C 10.203125 3.09375 9.796875 2.59375 3.40625 2.59375 
L 3.40625 0 
C 5.796875 0.1875 10.09375 0.1875 12.59375 0.1875 
C 15 0.1875 19.09375 0.1875 21.40625 0 
L 21.40625 2.59375 
C 15.5 2.59375 15.296875 3.203125 15.296875 6.8125 
L 15.296875 44 
z
" id="CMR17-105"/>
      <path d="M 67.59375 30.53125 
C 67.59375 35.5625 66.703125 44 54.796875 44 
C 48 44 43.296875 39.375 41.5 33.953125 
L 41.40625 33.953125 
C 40.203125 42.1875 34.296875 44 28.703125 44 
C 20.796875 44 16.703125 37.875 15.203125 33.84375 
L 15.09375 33.84375 
L 15.09375 44 
L 3.296875 42.890625 
L 3.296875 40.28125 
C 9.203125 40.28125 10.09375 39.6875 10.09375 34.859375 
L 10.09375 6.921875 
C 10.09375 3.09375 9.703125 2.59375 3.296875 2.59375 
L 3.296875 0 
C 5.703125 0.1875 10.09375 0.1875 12.703125 0.1875 
C 15.296875 0.1875 19.796875 0.1875 22.203125 0 
L 22.203125 2.59375 
C 15.796875 2.59375 15.40625 3 15.40625 6.921875 
L 15.40625 26.21875 
C 15.40625 35.453125 21 42.390625 28 42.390625 
C 35.40625 42.390625 36.203125 35.765625 36.203125 30.9375 
L 36.203125 6.921875 
C 36.203125 3.09375 35.796875 2.59375 29.40625 2.59375 
L 29.40625 0 
C 31.796875 0.1875 36.203125 0.1875 38.796875 0.1875 
C 41.40625 0.1875 45.90625 0.1875 48.296875 0 
L 48.296875 2.59375 
C 41.90625 2.59375 41.5 3 41.5 6.921875 
L 41.5 26.21875 
C 41.5 35.453125 47.09375 42.390625 54.09375 42.390625 
C 61.5 42.390625 62.296875 35.765625 62.296875 30.9375 
L 62.296875 6.921875 
C 62.296875 3.09375 61.90625 2.59375 55.5 2.59375 
L 55.5 0 
C 57.90625 0.1875 62.296875 0.1875 64.90625 0.1875 
C 67.5 0.1875 72 0.1875 74.40625 0 
L 74.40625 2.59375 
C 68 2.59375 67.59375 3 67.59375 6.921875 
z
" id="CMR17-109"/>
      <path d="M 38.09375 23.484375 
C 38.5 23.890625 38.5 24.09375 38.5 25.09375 
C 38.5 35.171875 33.09375 44 21.703125 44 
C 11.09375 44 2.703125 33.984375 2.703125 21.78125 
C 2.703125 8.65625 12.203125 -1 22.796875 -1 
C 34 -1 38.40625 9.671875 38.40625 11.796875 
C 38.40625 12.5 37.796875 12.5 37.59375 12.5 
C 36.90625 12.5 36.796875 12.296875 36.40625 11.078125 
C 34.203125 4.21875 28.703125 0.796875 23.5 0.796875 
C 19.203125 0.796875 14.90625 3.21875 12.203125 7.65625 
C 9.09375 12.796875 9.09375 18.75 9.09375 23.484375 
z
M 9.203125 25 
C 9.90625 39.234375 17.59375 42.390625 21.59375 42.390625 
C 28.40625 42.390625 33 36.0625 33.09375 25 
z
" id="CMR17-101"/>
      <path d="M 41.5 30.53125 
C 41.5 35.65625 40.5 44 28.703125 44 
C 20.796875 44 16.703125 37.875 15.203125 33.84375 
L 15.09375 33.84375 
L 15.09375 44 
L 3.296875 42.890625 
L 3.296875 40.28125 
C 9.203125 40.28125 10.09375 39.6875 10.09375 34.859375 
L 10.09375 6.921875 
C 10.09375 3.09375 9.703125 2.59375 3.296875 2.59375 
L 3.296875 0 
C 5.703125 0.1875 10.09375 0.1875 12.703125 0.1875 
C 15.296875 0.1875 19.796875 0.1875 22.203125 0 
L 22.203125 2.59375 
C 15.796875 2.59375 15.40625 3 15.40625 6.921875 
L 15.40625 26.21875 
C 15.40625 35.453125 21 42.390625 28 42.390625 
C 35.40625 42.390625 36.203125 35.765625 36.203125 30.9375 
L 36.203125 6.921875 
C 36.203125 3.09375 35.796875 2.59375 29.40625 2.59375 
L 29.40625 0 
C 31.796875 0.1875 36.203125 0.1875 38.796875 0.1875 
C 41.40625 0.1875 45.90625 0.1875 48.296875 0 
L 48.296875 2.59375 
C 41.90625 2.59375 41.5 3 41.5 6.921875 
z
" id="CMR17-110"/>
      <path d="M 39 34.109375 
C 41.5 40.296875 46 40.390625 47.40625 40.390625 
L 47.40625 43 
C 45.5 42.890625 43 42.796875 41.09375 42.796875 
C 39 42.796875 35.703125 42.796875 33.703125 43 
L 33.703125 40.390625 
C 37.5 40.09375 37.59375 37.25 37.59375 36.4375 
C 37.59375 35.4375 37.40625 34.921875 36.90625 33.71875 
L 26 6.390625 
L 14.09375 35.9375 
C 13.59375 37.15625 13.59375 37.859375 13.59375 37.96875 
C 13.59375 40.1875 15.90625 40.390625 18.296875 40.390625 
L 18.296875 43 
C 15.90625 42.796875 11.59375 42.796875 9.09375 42.796875 
C 6.40625 42.796875 3.203125 42.796875 1 43 
L 1 40.390625 
C 6.40625 40.390625 7 39.890625 8.296875 36.640625 
L 23.203125 -0.484375 
C 18.703125 -12.421875 16.09375 -19.40625 9.796875 -19.40625 
C 8.703125 -19.40625 6.203125 -19.109375 4.40625 -17.28125 
C 6.703125 -17.078125 7.703125 -15.65625 7.703125 -13.9375 
C 7.703125 -12.21875 6.5 -10.703125 4.5 -10.703125 
C 2.296875 -10.703125 1.203125 -12.21875 1.203125 -14.046875 
C 1.203125 -18.09375 5.296875 -21 9.796875 -21 
C 15.59375 -21 19.203125 -15.359375 21.203125 -10.296875 
z
" id="CMR17-121"/>
      <path d="M 36 25.875 
C 36 32 36 35.546875 31.796875 39.59375 
C 28.09375 42.984375 23.796875 44 20.40625 44 
C 12.5 44 6.796875 37.625 6.796875 30.890625 
C 6.796875 27.1875 9.796875 27 10.40625 27 
C 11.703125 27 14 27.796875 14 30.59375 
C 14 33.09375 12.09375 34.1875 10.40625 34.1875 
C 10 34.1875 9.5 34.09375 9.203125 34 
C 11.296875 40.53125 16.703125 42.390625 20.203125 42.390625 
C 25.203125 42.390625 30.703125 37.828125 30.703125 29.296875 
L 30.703125 25.5 
C 24.796875 25.296875 17.703125 24.5 12.09375 21.453125 
C 5.796875 17.921875 4 12.84375 4 9 
C 4 1.203125 13 -1 18.296875 -1 
C 23.796875 -1 28.90625 2.109375 31.09375 7.890625 
C 31.296875 3.421875 34.09375 -0.609375 38.5 -0.609375 
C 40.59375 -0.609375 45.90625 0.796875 45.90625 8.796875 
L 45.90625 14.46875 
L 44.09375 14.46875 
L 44.09375 8.703125 
C 44.09375 2.515625 41.40625 1.703125 40.09375 1.703125 
C 36 1.703125 36 6.96875 36 11.4375 
z
M 30.703125 13.859375 
C 30.703125 5.046875 24.5 0.59375 19 0.59375 
C 14 0.59375 10.09375 4.34375 10.09375 9 
C 10.09375 12.046875 11.40625 17.40625 17.203125 20.65625 
C 22 23.390625 27.5 23.796875 30.703125 24 
z
" id="CMR17-97"/>
      <path d="M 15 23.703125 
C 15 33.34375 19.09375 42.390625 26.59375 42.390625 
C 27.296875 42.390625 28 42.296875 28.703125 41.984375 
C 28.703125 41.984375 26.5 41.28125 26.5 38.671875 
C 26.5 36.265625 28.40625 35.265625 29.90625 35.265625 
C 31.09375 35.265625 33.296875 35.96875 33.296875 38.78125 
C 33.296875 41.984375 30.09375 44 26.703125 44 
C 19.09375 44 15.796875 36.5625 14.796875 33.046875 
L 14.703125 33.046875 
L 14.703125 44 
L 3.09375 42.890625 
L 3.09375 40.28125 
C 9 40.28125 9.90625 39.6875 9.90625 34.859375 
L 9.90625 6.921875 
C 9.90625 3.09375 9.5 2.59375 3.09375 2.59375 
L 3.09375 0 
C 5.5 0.1875 10.09375 0.1875 12.703125 0.1875 
C 15.59375 0.1875 20.703125 0.1875 23.40625 0 
L 23.40625 2.59375 
C 16.203125 2.59375 15 2.59375 15 7.109375 
z
" id="CMR17-114"/>
      <path d="M 30.90625 42 
C 30.90625 43.796875 30.796875 43.890625 30.203125 43.890625 
C 29.796875 43.890625 29.703125 43.796875 28.5 42.296875 
C 28.203125 41.890625 27.296875 40.890625 27 40.5 
C 23.796875 43.890625 19.296875 44 17.59375 44 
C 6.5 44 2.5 38.1875 2.5 32.390625 
C 2.5 23.390625 12.703125 21.296875 15.59375 20.6875 
C 21.90625 19.390625 24.09375 19 26.203125 17.1875 
C 27.5 16 29.703125 13.796875 29.703125 10.1875 
C 29.703125 6 27.296875 0.59375 18.09375 0.59375 
C 9.40625 0.59375 6.296875 7.1875 4.5 16 
C 4.203125 17.390625 4.203125 17.5 3.40625 17.5 
C 2.59375 17.5 2.5 17.390625 2.5 15.390625 
L 2.5 1 
C 2.5 -0.8125 2.59375 -0.90625 3.203125 -0.90625 
C 3.703125 -0.90625 3.796875 -0.8125 4.296875 0 
C 4.90625 0.890625 6.40625 3.296875 7 4.296875 
C 9 1.59375 12.5 -1 18.09375 -1 
C 28 -1 33.296875 4.390625 33.296875 12.1875 
C 33.296875 17.296875 30.59375 20 29.296875 21.1875 
C 26.296875 24.296875 22.796875 25 18.59375 25.796875 
C 13.09375 27 6.09375 28.390625 6.09375 34.5 
C 6.09375 37.09375 7.5 42.59375 17.59375 42.59375 
C 28.296875 42.59375 28.90625 32.59375 29.09375 29.390625 
C 29.203125 28.890625 29.703125 28.796875 30 28.796875 
C 30.90625 28.796875 30.90625 29.09375 30.90625 30.796875 
z
" id="CMR17-115"/>
     </defs>
     <g style="fill:#262626;" transform="translate(85.654719 137.60574)scale(0.09 -0.09)">
      <use transform="scale(0.996264)" xlink:href="#CMR17-116"/>
      <use transform="translate(35.280768 0)scale(0.996264)" xlink:href="#CMR17-105"/>
      <use transform="translate(60.151826 0)scale(0.996264)" xlink:href="#CMR17-109"/>
      <use transform="translate(137.071416 0)scale(0.996264)" xlink:href="#CMR17-101"/>
      <use transform="translate(207.633043 0)scale(0.996264)" xlink:href="#CMR17-105"/>
      <use transform="translate(232.504101 0)scale(0.996264)" xlink:href="#CMR17-110"/>
      <use transform="translate(313.475438 0)scale(0.996264)" xlink:href="#CMR17-121"/>
      <use transform="translate(359.165899 0)scale(0.996264)" xlink:href="#CMR17-101"/>
      <use transform="translate(399.65156 0)scale(0.996264)" xlink:href="#CMR17-97"/>
      <use transform="translate(445.342037 0)scale(0.996264)" xlink:href="#CMR17-114"/>
      <use transform="translate(480.622805 0)scale(0.996264)" xlink:href="#CMR17-115"/>
     </g>
    </g>
   </g>
   <g id="matplotlib.axis_2">
    <g id="ytick_1">
     <g id="line2d_7">
      <defs>
       <path d="M 2 0 
L -2 -0 
" id="mb7d9d71bfd" style="stroke:#000000;stroke-width:0.8;"/>
      </defs>
      <g>
       <use style="stroke:#000000;stroke-width:0.8;" x="38.288562" xlink:href="#mb7d9d71bfd" y="90.121821"/>
      </g>
     </g>
     <g id="text_8">
      <!-- $10^{-3}$ -->
      <defs>
       <path d="M 65.90625 23 
C 67.59375 23 69.40625 23 69.40625 25 
C 69.40625 27 67.59375 27 65.90625 27 
L 11.796875 27 
C 10.09375 27 8.296875 27 8.296875 25 
C 8.296875 23 10.09375 23 11.796875 23 
z
" id="CMSY10-0"/>
       <path d="M 22.09375 34 
C 31 34 34.90625 26.140625 34.90625 17.09375 
C 34.90625 5.03125 28.5 0.390625 22.703125 0.390625 
C 17.40625 0.390625 8.796875 3.015625 6.09375 10.796875 
C 6.59375 10.59375 7.09375 10.59375 7.59375 10.59375 
C 10 10.59375 11.796875 12.1875 11.796875 14.796875 
C 11.796875 17.6875 9.59375 19 7.59375 19 
C 5.90625 19 3.296875 18.1875 3.296875 14.484375 
C 3.296875 5.234375 12.296875 -2 22.90625 -2 
C 34 -2 42.5 6.75 42.5 16.984375 
C 42.5 26.84375 34.5 34 25 35.09375 
C 32.59375 36.671875 39.90625 43.375 39.90625 52.390625 
C 39.90625 60.25 32 66 23 66 
C 13.90625 66 5.90625 60.34375 5.90625 52.296875 
C 5.90625 48.796875 8.5 48.1875 9.796875 48.1875 
C 11.90625 48.1875 13.703125 49.484375 13.703125 52.09375 
C 13.703125 54.6875 11.90625 56 9.796875 56 
C 9.40625 56 8.90625 56 8.5 55.796875 
C 11.40625 62.484375 19.296875 63.6875 22.796875 63.6875 
C 26.296875 63.6875 32.90625 61.96875 32.90625 52.296875 
C 32.90625 49.484375 32.5 44.546875 29.09375 40.21875 
C 26.09375 36.390625 22.703125 36.1875 19.40625 35.890625 
C 18.90625 35.890625 16.59375 35.6875 16.203125 35.6875 
C 15.5 35.59375 15.09375 35.5 15.09375 34.796875 
C 15.09375 34.09375 15.203125 34 17.203125 34 
z
" id="CMR17-51"/>
      </defs>
      <g transform="translate(15.06 92.74843)scale(0.07497 -0.07497)">
       <use transform="scale(0.996264)" xlink:href="#CMR17-49"/>
       <use transform="translate(45.690477 0)scale(0.996264)" xlink:href="#CMR17-48"/>
       <use transform="translate(91.380954 36.153639)scale(0.697382)" xlink:href="#CMSY10-0"/>
       <use transform="translate(145.621947 36.153639)scale(0.697382)" xlink:href="#CMR17-51"/>
      </g>
     </g>
    </g>
    <g id="ytick_2">
     <g id="line2d_8">
      <g>
       <use style="stroke:#000000;stroke-width:0.8;" x="38.288562" xlink:href="#mb7d9d71bfd" y="52.755154"/>
      </g>
     </g>
     <g id="text_9">
      <!-- $10^{-2}$ -->
      <g transform="translate(15.06 55.381764)scale(0.07497 -0.07497)">
       <use transform="scale(0.996264)" xlink:href="#CMR17-49"/>
       <use transform="translate(45.690477 0)scale(0.996264)" xlink:href="#CMR17-48"/>
       <use transform="translate(91.380954 36.153639)scale(0.697382)" xlink:href="#CMSY10-0"/>
       <use transform="translate(145.621947 36.153639)scale(0.697382)" xlink:href="#CMR17-50"/>
      </g>
     </g>
    </g>
    <g id="ytick_3">
     <g id="line2d_9">
      <g>
       <use style="stroke:#000000;stroke-width:0.8;" x="38.288562" xlink:href="#mb7d9d71bfd" y="15.388488"/>
      </g>
     </g>
     <g id="text_10">
      <!-- $10^{-1}$ -->
      <g transform="translate(15.06 18.015097)scale(0.07497 -0.07497)">
       <use transform="scale(0.996264)" xlink:href="#CMR17-49"/>
       <use transform="translate(45.690477 0)scale(0.996264)" xlink:href="#CMR17-48"/>
       <use transform="translate(91.380954 36.153639)scale(0.697382)" xlink:href="#CMSY10-0"/>
       <use transform="translate(145.621947 36.153639)scale(0.697382)" xlink:href="#CMR17-49"/>
      </g>
     </g>
    </g>
    <g id="ytick_4">
     <g id="line2d_10"/>
    </g>
    <g id="ytick_5">
     <g id="line2d_11"/>
    </g>
    <g id="ytick_6">
     <g id="line2d_12"/>
    </g>
    <g id="ytick_7">
     <g id="line2d_13"/>
    </g>
    <g id="ytick_8">
     <g id="line2d_14"/>
    </g>
    <g id="ytick_9">
     <g id="line2d_15"/>
    </g>
    <g id="ytick_10">
     <g id="line2d_16"/>
    </g>
    <g id="ytick_11">
     <g id="line2d_17"/>
    </g>
    <g id="ytick_12">
     <g id="line2d_18"/>
    </g>
    <g id="ytick_13">
     <g id="line2d_19"/>
    </g>
    <g id="ytick_14">
     <g id="line2d_20"/>
    </g>
    <g id="ytick_15">
     <g id="line2d_21"/>
    </g>
    <g id="ytick_16">
     <g id="line2d_22"/>
    </g>
    <g id="ytick_17">
     <g id="line2d_23"/>
    </g>
    <g id="ytick_18">
     <g id="line2d_24"/>
    </g>
    <g id="ytick_19">
     <g id="line2d_25"/>
    </g>
    <g id="ytick_20">
     <g id="line2d_26"/>
    </g>
    <g id="ytick_21">
     <g id="line2d_27"/>
    </g>
    <g id="ytick_22">
     <g id="line2d_28"/>
    </g>
    <g id="ytick_23">
     <g id="line2d_29"/>
    </g>
    <g id="ytick_24">
     <g id="line2d_30"/>
    </g>
    <g id="ytick_25">
     <g id="line2d_31"/>
    </g>
    <g id="ytick_26">
     <g id="line2d_32"/>
    </g>
    <g id="ytick_27">
     <g id="line2d_33"/>
    </g>
    <g id="ytick_28">
     <g id="line2d_34"/>
    </g>
    <g id="text_11">
     <!-- frequency -->
     <defs>
      <path d="M 15.296875 40.390625 
L 26.703125 40.390625 
L 26.703125 43 
L 15.09375 43 
L 15.09375 55.296875 
C 15.09375 63.6875 19.296875 68.390625 23.59375 68.390625 
C 24.90625 68.390625 26.40625 68.171875 27.40625 67.796875 
C 26.59375 67.59375 24.5 66.890625 24.5 64.390625 
C 24.5 61.796875 26.5 61 27.90625 61 
C 29.296875 61 31.296875 61.796875 31.296875 64.390625 
C 31.296875 68.015625 27.703125 70 23.703125 70 
C 18 70 10.203125 65.796875 10.203125 55.09375 
L 10.203125 43 
L 2.203125 43 
L 2.203125 40.390625 
L 10.203125 40.390625 
L 10.203125 6.890625 
C 10.203125 3.09375 9.796875 2.59375 3.40625 2.59375 
L 3.40625 0 
C 5.796875 0.1875 10.40625 0.1875 13 0.1875 
C 15.90625 0.1875 21 0.1875 23.703125 0 
L 23.703125 2.59375 
C 16.5 2.59375 15.296875 2.59375 15.296875 7.09375 
z
" id="CMR17-102"/>
      <path d="M 41.09375 44 
L 39.5 44 
L 36.5 34.015625 
C 34.203125 39.359375 30 44 23.296875 44 
C 13.09375 44 3.296875 34.8125 3.296875 21.5 
C 3.296875 8.265625 12.5 -1 22.5 -1 
C 30.203125 -1 34.5 4.9375 35.796875 7.15625 
L 35.796875 -13.03125 
C 35.796875 -16.890625 35.40625 -17.40625 29 -17.40625 
L 29 -20 
C 31.40625 -19.8125 35.796875 -19.8125 38.40625 -19.8125 
C 41 -19.8125 45.5 -19.8125 47.90625 -20 
L 47.90625 -17.40625 
C 41.5 -17.40625 41.09375 -17 41.09375 -13.03125 
z
M 36 13.609375 
C 36 9.28125 32.40625 5.234375 32.09375 4.9375 
C 29 1.40625 25.40625 0.59375 23 0.59375 
C 15.5 0.59375 9.703125 10.1875 9.703125 21.390625 
C 9.703125 33.203125 16.296875 42.1875 24 42.1875 
C 32 42.1875 36 33 36 27.75 
z
" id="CMR17-113"/>
      <path d="M 29.40625 42.890625 
L 29.40625 40.296875 
C 35.296875 40.296875 36.203125 39.6875 36.203125 34.828125 
L 36.203125 16.453125 
C 36.203125 7.96875 31.703125 0.59375 24.296875 0.59375 
C 16.09375 0.59375 15.40625 5.546875 15.40625 10.796875 
L 15.40625 44 
L 3.296875 42.890625 
L 3.296875 40.296875 
C 7.296875 40.296875 10 40.296875 10.09375 36.25 
L 10.09375 16.859375 
C 10.09375 10.09375 10.09375 5.75 12.703125 2.921875 
C 14 1.609375 16.5 -1 23.703125 -1 
C 32.203125 -1 35.5 6.25 36.296875 8.375 
L 36.40625 8.375 
L 36.40625 -1 
L 48.296875 -0.203125 
L 48.296875 2.40625 
C 42.40625 2.40625 41.5 3.015625 41.5 7.859375 
L 41.5 44 
z
" id="CMR17-117"/>
      <path d="M 34.90625 35 
C 33 35 30.203125 35 30.203125 31.484375 
C 30.203125 28.6875 32.5 27.890625 33.796875 27.890625 
C 34.5 27.890625 37.40625 28.1875 37.40625 31.6875 
C 37.40625 38.6875 30.59375 44 22.90625 44 
C 12.296875 44 3.296875 34.390625 3.296875 21.546875 
C 3.296875 8.140625 12.703125 -1 22.90625 -1 
C 35.296875 -1 38.40625 10.5625 38.40625 11.671875 
C 38.40625 12.078125 38.296875 12.375 37.59375 12.375 
C 36.90625 12.375 36.796875 12.28125 36.40625 10.96875 
C 33.796875 2.8125 28.09375 0.796875 23.796875 0.796875 
C 17.40625 0.796875 9.703125 6.734375 9.703125 21.640625 
C 9.703125 36.84375 17.09375 42.1875 23 42.1875 
C 26.90625 42.1875 32.703125 40.34375 34.90625 35 
z
" id="CMR17-99"/>
     </defs>
     <g style="fill:#262626;" transform="translate(10.316538 79.530528)rotate(-90)scale(0.09 -0.09)">
      <use transform="scale(0.996264)" xlink:href="#CMR17-102"/>
      <use transform="translate(27.473512 0)scale(0.996264)" xlink:href="#CMR17-114"/>
      <use transform="translate(62.75428 0)scale(0.996264)" xlink:href="#CMR17-101"/>
      <use transform="translate(103.239941 0)scale(0.996264)" xlink:href="#CMR17-113"/>
      <use transform="translate(151.532857 0)scale(0.996264)" xlink:href="#CMR17-117"/>
      <use transform="translate(202.428226 0)scale(0.996264)" xlink:href="#CMR17-101"/>
      <use transform="translate(242.913887 0)scale(0.996264)" xlink:href="#CMR17-110"/>
      <use transform="translate(293.809257 0)scale(0.996264)" xlink:href="#CMR17-99"/>
      <use transform="translate(334.294917 0)scale(0.996264)" xlink:href="#CMR17-121"/>
     </g>
    </g>
   </g>
   <g id="line2d_35">
    <path clip-path="url(#p3090dee0c5)" d="M 40.60561 145 
L 40.619024 97.569629 
L 40.687961 145 
M 46.349766 145 
L 46.382642 120.245938 
L 46.400636 145 
M 46.772543 145 
L 46.781783 122.380092 
L 46.817897 145 
M 52.930772 145 
L 52.933583 133.147946 
L 52.936122 145 
M 54.085826 145 
L 54.105346 111.563539 
L 54.113493 145 
M 64.384016 145 
L 64.402968 134.637558 
L 64.425608 145 
M 65.979509 145 
L 66.030004 96.660227 
L 66.071752 122.560091 
L 66.120443 120.713366 
L 66.174081 100.088805 
L 66.189237 145 
M 73.830206 145 
L 73.839191 119.496202 
L 73.854241 145 
M 80.631904 145 
L 80.635845 124.275835 
L 80.819678 145 
M 82.266323 145 
L 82.412024 82.096904 
L 82.600254 84.299085 
L 83.079874 70.159589 
L 83.315103 70.98218 
L 83.445197 90.049163 
L 83.738876 74.746315 
L 83.773846 76.362237 
L 83.822556 145 
M 87.716741 145 
L 87.716845 144.236519 
L 87.717355 145 
M 89.732863 145 
L 89.817363 106.39242 
L 89.860359 98.409245 
L 89.89956 145 
M 90.122948 145 
L 90.347251 105.110098 
L 90.40883 106.853243 
L 90.415977 145 
M 99.42124 145 
L 99.437103 108.576527 
L 99.470469 145 
M 104.424193 145 
L 104.424847 125.227308 
L 104.426159 145 
M 109.879111 145 
L 109.881719 113.350088 
L 110.354717 73.23294 
L 110.493695 75.34025 
L 110.775737 87.399394 
L 110.930244 86.514356 
L 111.005443 71.47199 
L 111.170792 92.502193 
L 111.362947 90.622995 
L 111.475501 99.178733 
L 111.494327 95.609925 
L 111.553491 145 
M 112.285251 145 
L 112.383554 122.525524 
L 112.403251 145 
M 117.428045 145 
L 117.428217 144.186426 
L 117.428262 145 
M 125.088906 145 
L 125.090006 137.881918 
L 125.091326 145 
M 125.296258 145 
L 125.376312 79.803525 
L 125.436637 78.910492 
L 125.763119 85.212521 
L 125.831851 98.188756 
L 126.162787 72.247307 
L 126.431026 82.051327 
L 126.583108 67.409471 
L 126.837919 61.24732 
L 126.891314 51.437248 
L 127.107514 52.934974 
L 127.400144 51.422802 
L 127.584815 58.413755 
L 127.814383 58.415859 
L 127.825484 57.583409 
L 127.865573 59.936966 
L 127.866626 59.403283 
L 127.929844 68.833273 
L 127.997059 54.527582 
L 128.099965 61.08398 
L 128.25419 59.987351 
L 128.957788 40.916477 
L 129.063901 41.317177 
L 129.38903 46.889005 
L 129.624948 38.355767 
L 129.751965 38.035722 
L 129.809391 39.570066 
L 129.811791 39.251191 
L 130.216586 29.782182 
L 130.393225 29.807442 
L 130.573597 31.761968 
L 130.692779 30.149774 
L 130.791281 27.85034 
L 130.836874 28.699815 
L 130.916155 30.173334 
L 131.308821 35.565196 
L 131.404742 34.942602 
L 131.445703 33.336282 
L 131.513487 35.215126 
L 131.866061 33.236219 
L 132.127642 40.452029 
L 132.30905 37.225048 
L 132.475418 37.050467 
L 132.555758 38.990539 
L 133.351768 47.716069 
L 133.458338 45.816763 
L 133.536066 51.693481 
L 133.951911 45.043824 
L 133.962429 45.673551 
L 134.779399 41.346085 
L 135.050128 33.959357 
L 135.221441 37.402275 
L 135.391578 37.349911 
L 135.418208 37.203935 
L 135.9153 52.435532 
L 136.078696 56.346979 
L 136.235071 55.828817 
L 136.45015 64.287398 
L 136.605257 65.208984 
L 136.833738 68.81854 
L 137.516484 40.862122 
L 137.626327 40.847201 
L 137.841214 38.370803 
L 138.103533 44.092791 
L 138.154413 41.959868 
L 138.224895 48.11784 
L 138.682881 38.649872 
L 138.777501 42.109518 
L 138.930348 43.592257 
L 139.036262 42.120991 
L 139.071228 44.389971 
L 139.393419 48.567439 
L 139.425976 47.369481 
L 139.726469 51.619829 
L 139.740661 51.137064 
L 139.929361 45.434807 
L 139.952346 46.066069 
L 140.604189 41.5921 
L 140.655331 44.297312 
L 140.798112 42.514982 
L 140.928698 46.430807 
L 141.127658 42.045518 
L 141.177454 42.899717 
L 141.336461 43.147634 
L 141.38158 43.905303 
L 141.429756 49.02019 
L 141.826454 52.171493 
L 142.001588 55.787027 
L 142.630966 50.712947 
L 142.665004 49.057103 
L 142.848998 50.747416 
L 142.877352 49.044858 
L 143.009065 55.899256 
L 143.098448 55.110805 
L 143.123726 55.759728 
L 143.227693 57.118098 
L 143.335282 50.482335 
L 143.398665 51.791532 
L 143.432445 52.26494 
L 143.436917 52.215973 
L 143.960462 44.390323 
L 144.420704 47.74135 
L 144.501836 44.589 
L 144.641446 47.625971 
L 144.969134 45.583571 
L 145.196755 50.773619 
L 145.265618 52.686171 
L 145.480691 40.528511 
L 145.973349 39.736303 
L 146.160026 45.708812 
L 146.196382 43.577122 
L 146.252075 42.209611 
L 146.501329 43.428944 
L 146.983967 59.748704 
L 147.125554 52.440812 
L 147.34107 57.079224 
L 147.431842 50.123581 
L 147.522891 55.687293 
L 147.553164 53.211049 
L 147.73579 48.727261 
L 147.817421 48.74881 
L 148.602192 44.543368 
L 148.61199 44.550313 
L 148.703063 48.88879 
L 149.146349 65.342685 
L 149.244064 59.237352 
L 149.657912 56.893272 
L 150.622775 86.260829 
L 150.630701 84.603789 
L 150.697365 115.312772 
L 150.815456 115.359645 
L 150.826618 113.874826 
L 150.827822 145 
M 152.915839 145 
L 152.979486 117.128673 
L 152.989751 145 
M 153.397529 145 
L 153.419483 137.813743 
L 153.421837 145 
M 156.546027 145 
L 156.547559 139.717462 
L 156.548542 145 
M 157.249315 145 
L 157.40686 93.268184 
L 157.847643 72.225779 
L 157.874013 63.692717 
L 158.162954 114.52443 
L 158.165078 113.892728 
L 158.191772 145 
M 166.604033 145 
L 166.724103 80.184651 
L 166.821733 81.154176 
L 167.049311 84.955913 
L 167.210281 91.162339 
L 167.274883 145 
M 172.502779 145 
L 172.617516 90.113293 
L 172.651091 98.430516 
L 172.675783 145 
M 180.130693 145 
L 180.139577 127.1593 
L 180.429037 103.98447 
L 180.462055 145 
L 180.462055 145 
" style="fill:none;stroke:#1f77b4;stroke-linecap:round;stroke-width:1.3;"/>
   </g>
   <g id="line2d_36">
    <path clip-path="url(#p3090dee0c5)" d="M 38.288562 78.873333 
L 38.433607 80.42004 
L 38.905456 81.718751 
L 39.184075 82.895826 
L 39.546207 83.867255 
L 39.877206 89.404105 
L 40.111551 89.693373 
L 40.239187 90.944624 
L 40.619024 91.366449 
L 40.974371 91.087437 
L 41.342827 93.376539 
L 41.571826 93.195573 
L 41.639387 94.225756 
L 41.766055 94.332273 
L 41.85423 94.584455 
L 41.863452 95.152804 
L 42.037266 94.973619 
L 42.54457 94.084971 
L 42.643341 94.897327 
L 42.875202 94.509767 
L 42.886415 95.073368 
L 43.014299 95.098688 
L 43.107311 95.847841 
L 43.160688 96.69812 
L 43.519163 95.483021 
L 43.672131 95.35966 
L 43.749872 95.582964 
L 44.084724 94.671764 
L 44.226972 94.67507 
L 44.335329 95.377826 
L 44.482653 96.382726 
L 44.863315 95.131095 
L 44.960546 95.284866 
L 45.178717 94.903572 
L 45.427842 96.061953 
L 45.62232 95.687398 
L 45.808652 95.926426 
L 46.314079 94.804772 
L 46.382642 95.681736 
L 46.523214 95.593883 
L 46.631253 96.188996 
L 46.781783 96.004231 
L 47.035149 95.37285 
L 47.15144 97.024619 
L 47.605843 95.83359 
L 47.715492 95.873963 
L 47.931529 95.426022 
L 48.13738 96.152498 
L 48.597526 94.615952 
L 48.609889 95.170656 
L 48.749067 95.138696 
L 48.829694 96.47068 
L 48.957708 96.366414 
L 48.984778 96.773846 
L 49.483309 94.934332 
L 49.778381 94.290242 
L 49.876936 95.657012 
L 49.985661 95.716358 
L 50.054152 95.957862 
L 50.655566 95.410312 
L 51.709765 92.017229 
L 51.904523 92.11203 
L 51.992932 92.531114 
L 52.259846 92.3378 
L 52.498197 92.917643 
L 52.499858 93.585569 
L 52.760865 93.266063 
L 53.078687 93.42076 
L 53.1092 93.957868 
L 53.387566 93.523613 
L 53.555708 93.542674 
L 53.66168 93.788147 
L 53.733953 94.744962 
L 53.830654 94.930782 
L 54.042753 94.619024 
L 54.105346 96.111807 
L 54.316077 95.656588 
L 54.379379 95.926098 
L 54.499885 95.907404 
L 54.502983 96.453883 
L 54.625883 96.376072 
L 54.668243 96.705193 
L 55.029437 95.476755 
L 55.142495 96.593357 
L 55.700095 94.554652 
L 55.940208 97.775748 
L 56.044749 97.677855 
L 56.431074 96.628123 
L 56.458068 97.024022 
L 56.667983 96.455044 
L 56.698524 97.359861 
L 56.923931 96.66819 
L 57.115834 97.257003 
L 57.294314 96.817119 
L 57.387803 96.856597 
L 57.494328 96.825945 
L 57.852629 97.525155 
L 57.94011 98.022912 
L 58.538358 95.423082 
L 58.555301 95.922811 
L 58.670267 95.93088 
L 58.716789 96.26436 
L 58.871132 96.053986 
L 58.938134 96.803859 
L 59.28547 95.619491 
L 59.375104 95.769853 
L 59.807514 94.428019 
L 59.863824 95.386616 
L 60.362382 94.934671 
L 60.481638 96.129229 
L 60.785504 95.786213 
L 60.87199 95.938433 
L 60.918028 96.273545 
L 61.459644 94.887534 
L 61.592831 94.908027 
L 61.795846 94.636695 
L 62.165956 94.863358 
L 62.36229 94.624563 
L 62.923686 93.064663 
L 63.160312 94.107734 
L 63.387763 94.426723 
L 64.402968 91.51265 
L 64.741325 91.259234 
L 65.001777 91.947354 
L 65.280439 91.798741 
L 65.400833 93.482409 
L 65.706814 93.022255 
L 65.775847 94.697056 
L 65.982071 94.4376 
L 66.070498 95.839144 
L 66.174081 96.945208 
L 66.317953 96.715279 
L 66.359051 97.032566 
L 66.848862 95.168071 
L 67.04135 94.909239 
L 67.080226 95.905421 
L 67.402866 94.989533 
L 67.52138 95.06296 
L 67.61023 96.377825 
L 67.845664 95.774173 
L 68.474155 93.679659 
L 68.755808 93.275022 
L 69.18602 94.198325 
L 69.238618 94.60517 
L 69.815952 92.995444 
L 70.168018 92.462059 
L 70.291385 93.377724 
L 70.469211 93.377705 
L 70.873598 92.608411 
L 71.450299 92.109696 
L 71.598359 92.338997 
L 71.677594 92.770789 
L 71.85452 92.839118 
L 72.242999 94.572711 
L 72.457675 94.295228 
L 72.532815 95.193852 
L 72.835635 94.477294 
L 72.859378 94.988943 
L 73.256011 93.942784 
L 73.331173 94.276024 
L 73.839191 93.539731 
L 73.850445 94.145267 
L 74.101654 93.784283 
L 74.313773 94.214323 
L 74.417307 95.570521 
L 74.603218 95.838329 
L 74.884664 95.648828 
L 75.040021 95.497643 
L 75.186429 97.006931 
L 75.212642 98.386363 
L 76.076656 95.772296 
L 76.216345 95.67993 
L 76.542076 94.789933 
L 76.664164 94.86607 
L 76.927829 94.356296 
L 77.083451 94.913745 
L 77.23522 94.853616 
L 77.374039 95.4073 
L 77.899483 94.309992 
L 77.992949 95.130734 
L 78.168547 94.947263 
L 78.188167 95.455269 
L 78.542014 94.489446 
L 78.664438 95.166119 
L 78.861735 94.887159 
L 78.960482 96.70459 
L 79.088295 96.579285 
L 79.490637 97.549782 
L 79.595587 97.468816 
L 79.80289 96.854555 
L 79.973905 97.486478 
L 80.073806 97.438417 
L 80.2961 96.75169 
L 80.367207 97.428958 
L 80.485572 97.286152 
L 80.934069 96.512756 
L 81.059623 96.417008 
L 81.127287 96.616547 
L 81.54927 95.655565 
L 81.68863 95.576059 
L 81.81289 96.122441 
L 82.334081 94.863788 
L 82.412024 95.121425 
L 82.600254 94.886034 
L 83.079874 93.554002 
L 83.315103 93.330164 
L 83.445197 93.506129 
L 83.679841 93.290347 
L 83.773846 95.403555 
L 84.352177 93.590001 
L 84.805434 92.621083 
L 84.870422 93.081769 
L 85.362904 93.298471 
L 86.003583 91.815997 
L 86.494339 91.094223 
L 86.583144 92.294501 
L 86.802674 92.27964 
L 86.919696 92.592194 
L 87.119077 95.065083 
L 87.612989 93.640497 
L 87.716845 95.079013 
L 87.984309 94.522429 
L 88.008882 95.028353 
L 88.196132 94.807341 
L 88.332618 94.821141 
L 88.34705 95.357519 
L 88.580218 94.903284 
L 88.681148 95.058909 
L 88.683006 95.642151 
L 88.943212 95.033521 
L 88.974276 95.486257 
L 89.130589 95.347709 
L 89.23203 95.465411 
L 89.239368 96.007973 
L 89.651978 94.69678 
L 89.860359 97.055876 
L 89.941193 97.143003 
L 90.347251 96.122037 
L 90.40883 96.370606 
L 90.777832 95.679603 
L 90.805625 96.116111 
L 90.997438 95.74739 
L 91.171513 97.077356 
L 91.456317 96.136446 
L 91.556443 96.196896 
L 91.832725 95.435145 
L 91.925944 95.583204 
L 92.082792 95.967891 
L 92.339668 95.326406 
L 92.359724 95.815622 
L 92.831017 94.829853 
L 93.145359 94.688077 
L 93.217163 94.983981 
L 93.393083 94.815554 
L 93.4911 94.990781 
L 94.031843 93.414828 
L 94.21895 93.378201 
L 94.368835 95.292065 
L 94.595354 94.874452 
L 94.605496 95.42764 
L 94.949136 94.507721 
L 94.973862 95.605181 
L 95.16416 95.303873 
L 95.516865 94.369773 
L 95.524295 94.955617 
L 95.884281 94.614388 
L 95.887115 95.210173 
L 96.061656 95.022311 
L 96.988397 92.66135 
L 97.185069 92.677138 
L 97.195965 93.322922 
L 97.488938 92.931519 
L 97.60557 93.812698 
L 97.984218 93.04978 
L 98.008114 93.630736 
L 98.278529 93.272051 
L 98.282622 93.916287 
L 98.599243 93.351648 
L 98.972837 93.297335 
L 99.056333 94.862915 
L 99.437103 93.900384 
L 99.467214 95.024599 
L 99.949535 93.651794 
L 100.088095 93.766762 
L 100.417245 93.182457 
L 100.468742 94.286152 
L 100.579871 94.450096 
L 100.742303 94.393744 
L 100.979822 94.63282 
L 101.053367 94.92475 
L 101.245016 94.697644 
L 101.368363 94.776242 
L 101.406727 95.210029 
L 101.562297 95.103229 
L 101.609195 95.481328 
L 101.747646 95.422262 
L 101.962601 95.036808 
L 102.355916 93.994282 
L 102.509277 95.209855 
L 102.621365 95.291819 
L 103.289099 93.190296 
L 103.316141 94.385704 
L 103.438261 94.497088 
L 103.674228 94.146555 
L 103.751686 95.613238 
L 103.927242 95.375864 
L 104.35217 94.144709 
L 104.573326 95.036597 
L 104.721314 94.979858 
L 105.221589 93.551857 
L 105.384004 93.589191 
L 105.701156 94.26101 
L 105.898395 95.212599 
L 106.054737 95.102199 
L 106.372151 94.3426 
L 106.505313 95.000106 
L 106.62105 95.084255 
L 106.648386 95.551157 
L 106.930997 94.861544 
L 107.082379 94.808185 
L 107.158942 95.075352 
L 107.740714 93.332851 
L 107.873248 94.12855 
L 107.956759 95.59285 
L 108.080366 95.589794 
L 108.124445 96.496277 
L 108.39317 96.238276 
L 108.480239 96.353851 
L 108.578075 97.408015 
L 108.648719 97.525467 
L 109.295991 96.253637 
L 109.350437 96.529406 
L 109.527101 96.183281 
L 109.66906 97.065611 
L 109.690368 97.472273 
L 109.815737 97.287788 
L 109.881719 97.438924 
L 110.354717 95.552173 
L 110.930244 95.229741 
L 111.005443 95.473777 
L 111.362947 95.024526 
L 111.475501 95.691323 
L 111.590785 97.283827 
L 111.762707 96.874257 
L 112.142298 95.530662 
L 112.261616 95.553059 
L 112.383554 96.094097 
L 112.950729 94.146224 
L 113.118095 94.103125 
L 113.247039 94.213209 
L 113.434807 94.084009 
L 113.485015 94.507637 
L 113.740796 94.079342 
L 114.226513 92.901085 
L 114.274453 93.403764 
L 114.647599 92.73212 
L 114.847508 94.575669 
L 115.12479 94.054665 
L 115.25771 94.74219 
L 115.752593 93.386765 
L 115.814508 93.808091 
L 115.946753 93.932084 
L 116.088549 94.591372 
L 116.130218 95.020902 
L 117.021774 93.328115 
L 117.095568 93.709319 
L 117.428217 93.12226 
L 117.553034 93.97054 
L 117.996278 93.544336 
L 118.10071 93.795534 
L 118.147434 94.249588 
L 118.314118 94.197557 
L 118.410343 95.015708 
L 118.620843 94.699965 
L 118.704487 95.533502 
L 118.863968 95.375848 
L 119.283177 94.166834 
L 119.302398 94.712256 
L 119.648072 93.909444 
L 119.713575 94.897926 
L 119.917734 94.622839 
L 119.957196 95.060237 
L 120.129178 94.899661 
L 120.162246 95.92924 
L 120.459765 95.116574 
L 120.614163 95.02457 
L 120.945372 94.223847 
L 121.209126 94.388799 
L 121.432564 95.228942 
L 121.816543 94.185706 
L 121.86074 94.627745 
L 122.01518 94.585463 
L 122.150217 95.733168 
L 122.337043 95.432165 
L 122.434069 95.562935 
L 122.759615 94.693356 
L 122.858038 94.876529 
L 123.067836 94.581305 
L 123.492438 93.511836 
L 123.571722 93.859878 
L 123.911953 93.221789 
L 123.94751 93.751062 
L 124.416815 92.696643 
L 124.675587 92.506714 
L 124.840454 92.642891 
L 125.090006 92.489496 
L 125.303234 93.720501 
L 125.436637 94.459634 
L 125.685278 94.064964 
L 125.831851 94.70784 
L 126.066768 94.333218 
L 126.162787 95.131159 
L 126.341877 94.932631 
L 126.431026 95.136462 
L 126.583108 95.052135 
L 126.837919 94.550843 
L 126.891314 94.933227 
L 127.400144 94.020893 
L 127.584815 95.111836 
L 127.814383 94.705417 
L 127.929844 96.460093 
L 128.099965 96.662318 
L 128.236609 96.497133 
L 128.25419 96.947534 
L 128.957788 94.227504 
L 129.063901 94.416983 
L 129.362157 93.841087 
L 129.38903 94.371447 
L 129.624948 94.037937 
L 129.751965 94.161248 
L 129.811791 95.150927 
L 130.216586 94.042339 
L 130.573597 93.900184 
L 130.692779 94.653341 
L 130.791281 94.839095 
L 130.916155 96.003569 
L 131.300373 30.881876 
L 131.308821 31.517657 
L 131.866061 35.621078 
L 132.105626 38.612189 
L 132.127642 39.438269 
L 132.475418 41.990247 
L 132.555758 21.147516 
L 133.351768 24.178798 
L 133.536066 26.486101 
L 133.951911 28.616398 
L 133.962429 29.640589 
L 134.494565 32.183073 
L 134.779399 35.245024 
L 134.867423 37.700115 
L 134.870578 17.649881 
L 134.87955 18.352994 
L 135.391578 22.030703 
L 135.497563 24.642087 
L 135.803661 27.086778 
L 136.235071 30.924786 
L 136.737553 35.245292 
L 136.994216 39.952048 
L 137.016049 40.961984 
L 137.516484 43.306341 
L 137.931397 49.749503 
L 138.224895 55.430553 
L 138.682881 57.484916 
L 138.772208 59.794571 
L 138.777501 60.815803 
L 139.008247 63.274919 
L 139.071228 65.332166 
L 139.393419 66.859765 
L 139.425976 67.909205 
L 139.726469 69.362988 
L 139.740661 70.395782 
L 139.929361 22.4924 
L 139.952346 23.197072 
L 140.547172 25.64784 
L 140.928698 30.896371 
L 141.127658 33.23482 
L 141.429756 39.322154 
L 141.826454 41.295697 
L 142.001588 42.74027 
L 142.630966 45.468765 
L 142.665004 46.704409 
L 142.877352 49.511771 
L 143.098448 54.355599 
L 143.27235 57.760397 
L 143.398665 62.679869 
L 143.436917 64.472637 
L 143.94883 66.281326 
L 143.960462 67.260388 
L 144.105202 68.436351 
L 144.420704 69.873334 
L 144.641446 72.141988 
L 144.969134 73.501313 
L 145.043595 75.565042 
L 145.250499 77.616593 
L 145.265618 78.550097 
L 145.480691 79.506783 
L 145.973349 23.095522 
L 146.196382 25.272263 
L 146.252075 26.944761 
L 146.982736 31.615363 
L 147.050756 33.622941 
L 147.125554 34.728783 
L 147.431842 37.44621 
L 147.535211 39.619224 
L 147.553164 40.583592 
L 148.235284 45.257051 
L 148.602192 47.298535 
L 148.703063 50.819226 
L 149.060405 52.774079 
L 149.244064 55.426686 
L 150.285975 60.070326 
L 150.330311 61.429651 
L 150.622775 63.249539 
L 150.697365 65.805978 
L 150.826618 68.309596 
L 151.056934 73.756367 
L 151.902452 75.494063 
L 152.191526 77.810292 
L 152.863947 81.067757 
L 152.979486 82.996689 
L 153.208416 83.793034 
L 153.229049 84.705511 
L 153.729585 86.767394 
L 154.221883 89.159838 
L 154.634724 89.055227 
L 154.71089 89.687149 
L 155.015959 90.482569 
L 155.167564 92.195628 
L 155.254929 92.591613 
L 155.448077 92.610324 
L 155.896297 94.749291 
L 155.906449 95.301286 
L 156.081638 95.095312 
L 156.347595 94.538824 
L 156.410044 94.880506 
L 156.547559 94.880402 
L 156.76394 94.55569 
L 156.843362 95.420968 
L 157.244182 94.273641 
L 157.40686 94.234126 
L 157.618264 94.011017 
L 157.874013 95.352211 
L 158.130661 94.800262 
L 158.165078 95.833495 
L 158.356886 95.498165 
L 158.413187 95.810116 
L 158.694094 95.62181 
L 160.170465 90.947106 
L 160.471283 90.878952 
L 160.587801 92.02466 
L 160.735126 92.264212 
L 161.095335 92.482805 
L 161.161393 92.948427 
L 161.606097 92.13337 
L 161.879147 91.975621 
L 162.026319 92.220397 
L 162.222255 92.287869 
L 162.251514 92.889221 
L 162.394087 93.061488 
L 162.395936 93.722445 
L 162.694093 93.252653 
L 162.807899 93.493381 
L 162.898519 95.019542 
L 163.123149 94.645073 
L 163.204726 94.902114 
L 163.40305 94.650133 
L 163.516629 94.773266 
L 163.600608 95.592947 
L 163.816225 95.182618 
L 163.890934 96.516784 
L 164.00227 96.490325 
L 164.039932 96.837304 
L 164.187213 96.60148 
L 164.704665 94.724819 
L 164.880534 94.585412 
L 164.990244 95.309002 
L 165.098432 95.399967 
L 165.429672 95.079358 
L 165.546431 95.152432 
L 165.557635 95.689629 
L 165.749133 95.373164 
L 165.853904 95.474023 
L 165.922139 95.732804 
L 165.924668 96.288474 
L 166.649158 94.199357 
L 166.821733 94.716406 
L 167.049311 94.370129 
L 167.210281 94.328263 
L 167.611782 93.390744 
L 167.61781 94.023013 
L 167.737635 94.17546 
L 168.005668 93.747868 
L 168.100996 94.017388 
L 168.249332 94.060201 
L 168.308267 95.047312 
L 168.602554 94.388205 
L 168.620295 95.520499 
L 168.750837 95.492901 
L 169.451156 93.722633 
L 169.651199 95.314613 
L 170.020484 94.853524 
L 170.175936 95.358494 
L 170.479219 94.613921 
L 170.513994 95.071987 
L 170.736635 94.699409 
L 170.78095 95.111878 
L 171.204564 94.485728 
L 171.334467 94.556834 
L 171.37571 95.568746 
L 171.513763 95.503058 
L 171.523121 96.034559 
L 172.094511 94.593277 
L 172.297456 94.360237 
L 172.617516 94.847955 
L 172.651091 95.299011 
L 172.95937 95.097486 
L 173.293109 94.274417 
L 173.645856 95.193054 
L 173.839353 94.92683 
L 173.99418 95.413163 
L 174.096553 95.521382 
L 174.672746 93.685846 
L 174.739095 94.071041 
L 174.970277 93.794715 
L 175.034365 94.181352 
L 175.590952 92.743937 
L 175.815195 92.659704 
L 176.458432 91.331166 
L 176.675949 91.438053 
L 176.948902 92.723055 
L 177.566269 92.057817 
L 177.568565 92.760322 
L 177.717926 92.921998 
L 177.804393 93.286195 
L 178.158042 92.698365 
L 178.355876 92.705533 
L 178.498435 93.549855 
L 178.697458 94.639147 
L 178.866995 94.533977 
L 178.904906 94.982406 
L 179.442831 93.960127 
L 179.663457 94.328007 
L 179.781704 94.45993 
L 180.429037 93.226909 
L 180.648338 93.099579 
L 180.649256 93.763 
L 181.001633 93.098939 
L 181.034878 93.643172 
L 181.204045 93.645947 
L 181.508447 93.166512 
L 181.657434 93.916801 
L 181.841691 93.833888 
L 181.878259 94.930246 
L 182.098238 95.141788 
L 182.248314 95.065402 
L 182.347774 95.214281 
L 182.616397 94.63331 
L 182.673411 95.586402 
L 182.882609 95.204857 
L 183.210246 95.4547 
L 183.453646 94.944237 
L 183.521745 95.238753 
L 183.690311 95.073359 
L 183.804556 95.157761 
L 184.076638 94.571279 
L 184.38622 95.584399 
L 184.688516 96.339502 
L 184.939508 95.670028 
L 185.051286 95.714388 
L 185.23245 95.44099 
L 185.23245 95.44099 
" style="fill:none;stroke:#ff7f0e;stroke-linecap:round;stroke-opacity:0.7;stroke-width:2;"/>
   </g>
   <g id="line2d_37">
    <path clip-path="url(#p3090dee0c5)" d="M 38.288562 78.873333 
L 38.433607 80.42004 
L 38.905456 81.72787 
L 39.184075 82.913135 
L 39.546207 83.898663 
L 39.877206 89.438141 
L 40.111551 89.748257 
L 40.239187 91.003734 
L 40.619024 91.45433 
L 40.974371 91.202344 
L 41.342827 93.48705 
L 41.571826 93.321479 
L 41.639387 94.342035 
L 41.766055 94.454198 
L 41.85423 94.707637 
L 41.863452 95.269126 
L 42.037266 95.101234 
L 42.54457 94.243079 
L 42.643341 95.045218 
L 42.875202 94.669729 
L 42.886415 95.224405 
L 43.014299 95.252531 
L 43.107311 95.992364 
L 43.160688 96.8321 
L 43.519163 95.644357 
L 43.672131 95.525145 
L 43.749872 95.745657 
L 44.084724 94.853129 
L 44.226972 94.856719 
L 44.335329 95.547765 
L 44.482653 96.537962 
L 44.863315 95.310915 
L 44.960546 95.462112 
L 45.178717 95.088036 
L 45.427842 96.227453 
L 45.62232 95.860639 
L 45.808652 96.096619 
L 46.314079 94.9949 
L 46.382642 95.855793 
L 46.523214 95.769985 
L 46.631253 96.355762 
L 46.781783 96.175086 
L 47.035149 95.555269 
L 47.15144 97.180001 
L 47.605843 96.011066 
L 47.715492 96.050678 
L 47.931529 95.610412 
L 48.13738 96.32395 
L 48.597526 94.814016 
L 48.609889 95.357861 
L 48.749067 95.325917 
L 48.829694 96.634833 
L 48.957708 96.533305 
L 48.984778 96.934333 
L 49.483309 95.1274 
L 49.778381 94.493161 
L 49.876936 95.833702 
L 49.985661 95.892299 
L 50.054152 96.129884 
L 50.655566 95.592651 
L 51.709765 92.255969 
L 51.904523 92.344604 
L 51.992932 92.752872 
L 52.259846 92.560472 
L 52.498197 93.125977 
L 52.499858 93.780694 
L 52.760865 93.467385 
L 53.078687 93.618692 
L 53.1092 94.145687 
L 53.387566 93.720319 
L 53.555708 93.739013 
L 53.66168 93.979903 
L 53.733953 94.920061 
L 53.830654 95.103801 
L 54.042753 94.799384 
L 54.105346 96.268085 
L 54.316077 95.823482 
L 54.379379 96.089376 
L 54.499885 96.072513 
L 54.502983 96.610286 
L 54.625883 96.535605 
L 54.668243 96.860209 
L 55.029437 95.65523 
L 55.142495 96.75384 
L 55.700095 94.751656 
L 55.940208 97.920674 
L 56.044749 97.826148 
L 56.431074 96.796286 
L 56.458068 97.185705 
L 56.667983 96.626907 
L 56.698524 97.516924 
L 56.923931 96.837653 
L 57.115834 97.417095 
L 57.294314 96.985121 
L 57.387803 97.024046 
L 57.494328 96.994038 
L 57.852629 97.682831 
L 57.94011 98.173789 
L 58.538358 95.617195 
L 58.555301 96.107152 
L 58.670267 96.114199 
L 58.716789 96.441389 
L 58.871132 96.234172 
L 58.938134 96.971088 
L 59.28547 95.806691 
L 59.375104 95.953617 
L 59.807514 94.633327 
L 59.863824 95.572696 
L 60.362382 95.12639 
L 60.481638 96.299457 
L 60.785504 95.963237 
L 60.87199 96.112945 
L 60.918028 96.442511 
L 61.459644 95.08059 
L 61.592831 95.099759 
L 61.795846 94.83226 
L 62.165956 95.052637 
L 62.36229 94.817556 
L 62.923686 93.283685 
L 63.160312 94.303498 
L 63.387763 94.616151 
L 64.402968 91.75234 
L 64.741325 91.49878 
L 65.001777 92.168141 
L 65.280439 92.02052 
L 65.400833 93.670606 
L 65.706814 93.220658 
L 65.775847 94.866129 
L 65.982071 94.614043 
L 66.070498 95.994377 
L 66.174081 97.087588 
L 66.317953 96.864728 
L 66.359051 97.178362 
L 66.848862 95.34977 
L 67.04135 95.095538 
L 67.080226 96.074062 
L 67.402866 95.175302 
L 67.52138 95.247167 
L 67.61023 96.539655 
L 67.845664 95.947917 
L 68.474155 93.890012 
L 68.755808 93.490135 
L 69.18602 94.391583 
L 69.238618 94.790796 
L 69.815952 93.209988 
L 70.168018 92.683909 
L 70.291385 93.579618 
L 70.469211 93.579069 
L 70.873598 92.823232 
L 71.450299 92.329967 
L 71.598359 92.553207 
L 71.677594 92.97577 
L 71.85452 93.042512 
L 72.242999 94.747037 
L 72.457675 94.476611 
L 72.532815 95.360721 
L 72.835635 94.659615 
L 72.859378 95.162379 
L 73.256011 94.136894 
L 73.331173 94.463755 
L 73.839191 93.741007 
L 73.850445 94.334679 
L 74.101654 93.980529 
L 74.313773 94.402397 
L 74.417307 95.735913 
L 74.603218 96.00198 
L 74.884664 95.818645 
L 75.040021 95.671199 
L 75.186429 97.157786 
L 75.212642 98.518635 
L 76.076656 95.954362 
L 76.216345 95.862974 
L 76.542076 94.987342 
L 76.664164 95.060721 
L 76.927829 94.558381 
L 77.083451 95.103759 
L 77.23522 95.044076 
L 77.374039 95.587529 
L 77.899483 94.508995 
L 77.992949 95.313788 
L 78.168547 95.133607 
L 78.188167 95.63244 
L 78.542014 94.684037 
L 78.664438 95.347864 
L 78.861735 95.074003 
L 78.960482 96.861339 
L 79.088295 96.73977 
L 79.490637 97.700877 
L 79.595587 97.622529 
L 79.80289 97.019697 
L 79.973905 97.642602 
L 80.073806 97.596104 
L 80.2961 96.921439 
L 80.367207 97.58763 
L 80.485572 97.44775 
L 80.934069 96.687189 
L 81.059623 96.5927 
L 81.127287 96.788569 
L 81.54927 95.842561 
L 81.68863 95.763415 
L 81.81289 96.299193 
L 82.334081 95.060556 
L 82.412024 95.312476 
L 82.600254 95.080158 
L 83.079874 93.76938 
L 83.315103 93.546709 
L 83.445197 93.717182 
L 83.679841 93.503214 
L 83.773846 95.576492 
L 84.352177 93.796378 
L 84.805434 92.842838 
L 84.870422 93.292861 
L 85.362904 93.502052 
L 86.003583 92.045175 
L 86.494339 91.332806 
L 86.583144 92.50583 
L 86.802674 92.490598 
L 86.919696 92.796628 
L 87.119077 95.22762 
L 87.612989 93.833174 
L 87.716845 95.247166 
L 87.984309 94.703023 
L 88.008882 95.200293 
L 88.196132 94.984864 
L 88.332618 94.999367 
L 88.34705 95.526582 
L 88.580218 95.082176 
L 88.681148 95.235605 
L 88.683006 95.808851 
L 88.943212 95.212755 
L 88.974276 95.657713 
L 89.130589 95.522654 
L 89.23203 95.638909 
L 89.239368 96.172356 
L 89.651978 94.885917 
L 89.860359 97.207464 
L 89.941193 97.294686 
L 90.347251 96.293822 
L 90.40883 96.53836 
L 90.777832 95.859897 
L 90.805625 96.288624 
L 90.997438 95.92648 
L 91.171513 97.234788 
L 91.456317 96.311008 
L 91.556443 96.370417 
L 91.832725 95.621638 
L 91.925944 95.766449 
L 92.082792 96.144018 
L 92.339668 95.513476 
L 92.359724 95.993649 
L 92.831017 95.024077 
L 93.145359 94.882668 
L 93.217163 95.172506 
L 93.393083 95.006524 
L 93.4911 95.178084 
L 94.031843 93.628864 
L 94.21895 93.59057 
L 94.368835 95.467248 
L 94.595354 95.058085 
L 94.605496 95.601534 
L 94.949136 94.698975 
L 94.973862 95.776685 
L 95.16416 95.481755 
L 95.516865 94.564695 
L 95.524295 95.139415 
L 95.884281 94.804191 
L 95.887115 95.389012 
L 96.061656 95.204973 
L 96.988397 92.884236 
L 97.185069 92.89689 
L 97.195965 93.528885 
L 97.488938 93.143431 
L 97.60557 94.006744 
L 97.984218 93.257819 
L 98.008114 93.827053 
L 98.278529 93.474909 
L 98.282622 94.106605 
L 98.599243 93.552855 
L 98.972837 93.498621 
L 99.056333 95.035981 
L 99.437103 94.093055 
L 99.467214 95.197076 
L 99.949535 93.851064 
L 100.088095 93.963335 
L 100.417245 93.389287 
L 100.468742 94.471427 
L 100.579871 94.632934 
L 100.742303 94.578385 
L 100.979822 94.814215 
L 101.053367 95.101429 
L 101.245016 94.879512 
L 101.368363 94.957226 
L 101.406727 95.383596 
L 101.562297 95.27981 
L 101.609195 95.651739 
L 101.747646 95.594884 
L 101.962601 95.217342 
L 102.355916 94.193761 
L 102.509277 95.38623 
L 102.621365 95.467427 
L 103.289099 93.40383 
L 103.316141 94.575019 
L 103.438261 94.684389 
L 103.674228 94.340343 
L 103.751686 95.781368 
L 103.927242 95.549663 
L 104.35217 94.341467 
L 104.573326 95.216737 
L 104.721314 95.161474 
L 105.221589 93.759107 
L 105.384004 93.794224 
L 105.701156 94.451617 
L 105.898395 95.387301 
L 106.054737 95.279881 
L 106.372151 94.534692 
L 106.505313 95.180122 
L 106.62105 95.263251 
L 106.648386 95.722197 
L 106.930997 95.046052 
L 107.082379 94.993716 
L 107.158942 95.256085 
L 107.740714 93.544596 
L 107.873248 94.323093 
L 107.956759 95.761415 
L 108.080366 95.75973 
L 108.124445 96.652372 
L 108.39317 96.402165 
L 108.480239 96.516793 
L 108.578075 97.556552 
L 108.648719 97.673578 
L 109.295991 96.426722 
L 109.350437 96.697819 
L 109.527101 96.357877 
L 109.66906 97.226011 
L 109.690368 97.626463 
L 109.815737 97.446093 
L 109.881719 97.595399 
L 110.354717 95.740823 
L 110.930244 95.419828 
L 111.005443 95.65881 
L 111.362947 95.215997 
L 111.475501 95.870024 
L 111.590785 97.437429 
L 111.762707 97.036209 
L 112.142298 95.716172 
L 112.261616 95.737505 
L 112.383554 96.268759 
L 112.950729 94.353731 
L 113.118095 94.309237 
L 113.247039 94.415587 
L 113.434807 94.287133 
L 113.485015 94.701992 
L 113.740796 94.280454 
L 114.226513 93.121243 
L 114.274453 93.612604 
L 114.647599 92.95114 
L 114.847508 94.757915 
L 115.12479 94.247305 
L 115.25771 94.922716 
L 115.752593 93.592654 
L 115.814508 94.005214 
L 115.946753 94.126552 
L 116.088549 94.774084 
L 116.130218 95.19629 
L 117.021774 93.53453 
L 117.095568 93.907653 
L 117.428217 93.330713 
L 117.553034 94.16175 
L 117.996278 93.743459 
L 118.10071 93.989622 
L 118.147434 94.435234 
L 118.314118 94.38481 
L 118.410343 95.189155 
L 118.620843 94.880619 
L 118.704487 95.700408 
L 118.863968 95.547197 
L 119.283177 94.361278 
L 119.302398 94.89632 
L 119.648072 94.108227 
L 119.713575 95.077859 
L 119.917734 94.808407 
L 119.957196 95.238014 
L 120.129178 95.081074 
L 120.162246 96.093176 
L 120.459765 95.296699 
L 120.614163 95.206676 
L 120.945372 94.420359 
L 121.209126 94.58099 
L 121.432564 95.406179 
L 121.816543 94.382196 
L 121.86074 94.815589 
L 122.01518 94.773979 
L 122.150217 95.902359 
L 122.337043 95.607835 
L 122.434069 95.736829 
L 122.759615 94.883338 
L 122.858038 95.062818 
L 123.067836 94.77265 
L 123.492438 93.721346 
L 123.571722 94.061484 
L 123.911953 93.433513 
L 123.94751 93.951611 
L 124.416815 92.915008 
L 124.675587 92.726186 
L 124.840454 92.857776 
L 125.090006 92.705512 
L 125.303234 93.911826 
L 125.436637 94.638418 
L 125.685278 94.252546 
L 125.831851 94.884819 
L 126.066768 94.518445 
L 126.162787 95.303184 
L 126.341877 95.109699 
L 126.431026 95.310663 
L 126.583108 95.228936 
L 126.837919 94.737603 
L 126.891314 95.113092 
L 127.400144 94.217857 
L 127.584815 95.288397 
L 127.814383 94.890186 
L 127.929844 96.616702 
L 128.099965 96.818688 
L 128.236609 96.657968 
L 128.25419 97.101525 
L 128.957788 94.43018 
L 129.063901 94.614759 
L 129.362157 94.047593 
L 129.38903 94.567011 
L 129.624948 94.238548 
L 129.751965 94.358584 
L 129.811791 95.329577 
L 130.216586 94.241331 
L 130.573597 94.099928 
L 130.692779 94.838708 
L 130.791281 95.021342 
L 130.916155 96.167291 
L 131.300373 31.191073 
L 131.308821 31.803682 
L 131.513487 34.040006 
L 131.988805 36.425058 
L 132.475418 40.501651 
L 132.555758 25.071194 
L 133.351768 27.779603 
L 133.536066 29.56604 
L 133.951911 31.30098 
L 133.962429 31.99025 
L 134.494565 34.02898 
L 134.779399 36.137632 
L 134.867423 37.680329 
L 134.870578 23.070814 
L 134.87955 23.699628 
L 135.408217 27.500933 
L 135.497563 28.882632 
L 135.803661 30.811353 
L 136.235071 33.663327 
L 136.737553 36.739583 
L 136.994216 39.72782 
L 137.016049 40.330961 
L 137.516484 42.147967 
L 137.995399 46.82352 
L 138.224895 49.511186 
L 138.682881 51.115393 
L 138.772208 52.457136 
L 138.777501 53.014507 
L 139.008247 54.604734 
L 139.071228 55.795347 
L 139.393419 57.006803 
L 139.425976 57.621291 
L 139.726469 58.784106 
L 139.740661 59.375648 
L 139.929361 29.76971 
L 139.952346 30.389128 
L 140.547172 32.524355 
L 140.928698 36.463153 
L 141.127658 38.133053 
L 141.429756 42.164396 
L 142.630966 46.789452 
L 142.665004 47.50613 
L 142.877352 49.252074 
L 143.27235 54.138128 
L 143.398665 56.94415 
L 143.436917 57.962218 
L 143.94883 59.484939 
L 143.960462 60.034142 
L 144.641446 63.476652 
L 144.969134 64.609924 
L 145.043595 65.884955 
L 145.250499 67.333533 
L 145.265618 67.906681 
L 145.480691 68.756232 
L 145.973349 29.631915 
L 146.196382 31.448033 
L 146.252075 32.772647 
L 146.982736 36.473562 
L 147.050756 37.845291 
L 147.34107 39.7424 
L 147.817421 44.316921 
L 148.602192 47.391111 
L 148.703063 49.441753 
L 149.060405 50.860568 
L 149.244064 52.488375 
L 150.330311 56.807222 
L 150.622775 58.086474 
L 150.697365 59.569973 
L 150.826618 61.092752 
L 151.056934 64.421932 
L 151.902452 66.382069 
L 152.191526 68.106708 
L 152.863947 70.965993 
L 152.979486 72.3832 
L 153.208416 73.237541 
L 153.229049 73.888141 
L 153.848916 76.799082 
L 154.221883 78.756873 
L 154.634724 79.426364 
L 154.88298 80.681702 
L 155.015959 81.285099 
L 155.167564 83.024232 
L 155.254929 83.549121 
L 155.448077 83.983658 
L 155.896297 86.876089 
L 155.906449 87.3972 
L 156.081638 87.633196 
L 156.347595 87.722216 
L 156.547559 88.465094 
L 156.76394 88.603632 
L 156.843362 89.569947 
L 157.244182 89.242315 
L 157.618264 89.599383 
L 157.874013 91.279875 
L 158.130661 91.130137 
L 158.165078 92.174589 
L 158.356886 92.125412 
L 158.413187 92.504525 
L 158.694094 92.688325 
L 160.170465 89.366003 
L 160.471283 89.455956 
L 160.587801 90.629891 
L 160.931159 91.100035 
L 161.095335 91.331503 
L 161.161393 91.81765 
L 161.606097 91.212722 
L 161.879147 91.158577 
L 162.026319 91.448178 
L 162.222255 91.578666 
L 162.251514 92.176495 
L 162.394087 92.392187 
L 162.395936 93.040514 
L 162.694093 92.674958 
L 162.807899 92.943995 
L 162.898519 94.469513 
L 163.123149 94.169137 
L 163.204726 94.444388 
L 163.40305 94.249148 
L 163.516629 94.397806 
L 163.600608 95.223572 
L 163.816225 94.870893 
L 163.890934 96.200715 
L 164.00227 96.200751 
L 164.039932 96.550928 
L 164.187213 96.351122 
L 164.704665 94.593761 
L 164.880534 94.479114 
L 164.990244 95.202608 
L 165.098432 95.305489 
L 165.429672 95.027809 
L 165.546431 95.111169 
L 165.557635 95.639858 
L 165.749133 95.347985 
L 165.853904 95.456557 
L 165.922139 95.716915 
L 165.924668 96.263405 
L 166.649158 94.263087 
L 166.821733 94.778564 
L 167.049311 94.449668 
L 167.210281 94.415284 
L 167.611782 93.509649 
L 167.61781 94.129125 
L 167.737635 94.282536 
L 168.005668 93.871205 
L 168.100996 94.137918 
L 168.249332 94.18396 
L 168.308267 95.154876 
L 168.602554 94.516903 
L 168.620295 95.629593 
L 168.750837 95.607215 
L 169.451156 93.884476 
L 169.651199 95.45055 
L 170.020484 95.004913 
L 170.175936 95.503398 
L 170.479219 94.776621 
L 170.513994 95.22657 
L 170.736635 94.863377 
L 170.78095 95.268714 
L 171.204564 94.657912 
L 171.334467 94.728341 
L 171.37571 95.722533 
L 171.513763 95.660025 
L 171.523121 96.182704 
L 172.094511 94.772331 
L 172.297456 94.543822 
L 172.617516 95.022872 
L 172.651091 95.46599 
L 172.95937 95.270183 
L 173.293109 94.463071 
L 173.645856 95.365391 
L 173.839353 95.104916 
L 173.99418 95.583429 
L 174.096553 95.690532 
L 174.672746 93.889039 
L 174.739095 94.265899 
L 174.970277 93.993859 
L 175.034365 94.37255 
L 175.590952 92.960558 
L 175.815195 92.875573 
L 176.458432 91.568064 
L 176.675949 91.669193 
L 176.948902 92.925054 
L 177.566269 92.27217 
L 177.568565 92.96025 
L 177.717926 93.119139 
L 177.804393 93.476774 
L 178.158042 92.901333 
L 178.355876 92.908273 
L 178.498435 93.736686 
L 178.697458 94.809433 
L 178.866995 94.708384 
L 178.904906 95.149735 
L 179.442831 94.150012 
L 179.663457 94.511768 
L 179.781704 94.641862 
L 180.429037 93.431866 
L 180.648338 93.305865 
L 180.649256 93.956019 
L 181.001633 93.304339 
L 181.034878 93.837625 
L 181.204045 93.840428 
L 181.508447 93.369945 
L 181.657434 94.105629 
L 181.841691 94.02482 
L 181.878259 95.101874 
L 182.098238 95.312649 
L 182.248314 95.239135 
L 182.347774 95.386391 
L 182.616397 94.817322 
L 182.673411 95.753923 
L 182.882609 95.38073 
L 183.210246 95.62839 
L 183.453646 95.127838 
L 183.521745 95.41711 
L 183.690311 95.255077 
L 183.804556 95.338125 
L 184.076638 94.762317 
L 184.38622 95.757473 
L 184.688516 96.502941 
L 184.939508 95.846332 
L 185.051286 95.890131 
L 185.23245 95.621757 
L 185.23245 95.621757 
" style="fill:none;stroke:#2ca02c;stroke-linecap:round;stroke-opacity:0.7;stroke-width:1.3;"/>
   </g>
   <g id="patch_3">
    <path d="M 38.288562 116.24 
L 38.288562 4.14 
" style="fill:none;stroke:#262626;stroke-linecap:square;stroke-linejoin:miter;stroke-width:0.8;"/>
   </g>
   <g id="patch_4">
    <path d="M 38.288562 116.24 
L 185.320222 116.24 
" style="fill:none;stroke:#262626;stroke-linecap:square;stroke-linejoin:miter;stroke-width:0.8;"/>
   </g>
   <g id="legend_1">
    <g id="line2d_38">
     <path d="M 43.161612 11.637 
L 52.532862 11.637 
" style="fill:none;stroke:#1f77b4;stroke-linecap:round;stroke-width:1.3;"/>
    </g>
    <g id="line2d_39"/>
    <g id="text_12">
     <!-- $Q_a$ -->
     <defs>
      <path d="M 42.59375 0.703125 
C 59.796875 7.703125 72.59375 25.84375 72.59375 43.71875 
C 72.59375 60 61.796875 70 47.796875 70 
C 26.40625 70 4.796875 47.265625 4.796875 24.46875 
C 4.796875 8.828125 15.203125 -2 29.703125 -2 
C 33.09375 -2 36.40625 -1.5 39.59375 -0.5 
C 39 -6.34375 39 -6.828125 39 -8.65625 
C 39 -11.5 39 -19 47 -19 
C 58.90625 -19 63.296875 -0.609375 63.296875 0 
C 63.296875 0.59375 62.90625 1 62.40625 1 
C 61.796875 1 61.59375 0.5 61.296875 -0.609375 
C 59.09375 -6.734375 53.90625 -10.203125 49.5 -10.203125 
C 44.40625 -10.203125 43.09375 -6.828125 42.59375 0.703125 
z
M 24.59375 1.203125 
C 16.703125 3.953125 12.90625 12.375 12.90625 21.5 
C 12.90625 28.421875 15.5 41.546875 22.09375 51.515625 
C 29.5 62.765625 39.40625 67.796875 47.203125 67.796875 
C 57.59375 67.796875 64.59375 59.5 64.59375 46.671875 
C 64.59375 39.375 61.09375 14.890625 42.296875 3.75 
C 41.796875 8.921875 40.40625 15 33.796875 15 
C 28.40625 15 23.796875 9.53125 23.796875 4.5625 
C 23.796875 3.4375 24.203125 1.921875 24.59375 1.203125 
z
M 39.796875 2.421875 
C 36.203125 0.796875 33.09375 0.1875 30.296875 0.1875 
C 29.296875 0.1875 25.796875 0.1875 25.796875 4.65625 
C 25.796875 8.3125 29.296875 12.984375 33.796875 12.984375 
C 38.796875 12.984375 39.90625 9.53125 39.90625 4.453125 
C 39.90625 3.84375 39.90625 3.03125 39.796875 2.421875 
z
" id="CMMI12-81"/>
      <path d="M 30.09375 11.859375 
C 29.59375 10.171875 29.59375 9.96875 28.203125 8.078125 
C 26 5.28125 21.59375 1 16.90625 1 
C 12.796875 1 10.5 4.6875 10.5 10.5625 
C 10.5 16.0625 13.59375 27.234375 15.5 31.421875 
C 18.90625 38.40625 23.59375 41.984375 27.5 41.984375 
C 34.09375 41.984375 35.40625 33.8125 35.40625 33.015625 
C 35.40625 32.921875 35.09375 31.625 35 31.421875 
z
M 36.5 37.40625 
C 35.40625 40 32.703125 44 27.5 44 
C 16.203125 44 4 29.421875 4 14.65625 
C 4 4.78125 9.796875 -1 16.59375 -1 
C 22.09375 -1 26.796875 3.28125 29.59375 6.578125 
C 30.59375 0.6875 35.296875 -1 38.296875 -1 
C 41.296875 -1 43.703125 0.796875 45.5 4.375 
C 47.09375 7.75 48.5 13.828125 48.5 14.21875 
C 48.5 14.71875 48.09375 15.125 47.5 15.125 
C 46.59375 15.125 46.5 14.625 46.09375 13.125 
C 44.59375 7.265625 42.703125 1 38.59375 1 
C 35.703125 1 35.5 3.578125 35.5 5.5625 
C 35.5 7.859375 35.796875 8.953125 36.703125 12.828125 
C 37.40625 15.3125 37.90625 17.5 38.703125 20.390625 
C 42.40625 35.3125 43.296875 38.890625 43.296875 39.5 
C 43.296875 40.890625 42.203125 42 40.703125 42 
C 37.5 42 36.703125 38.5 36.5 37.3125 
z
" id="CMMI12-97"/>
     </defs>
     <g transform="translate(56.281362 14.26095)scale(0.07497 -0.07497)">
      <use transform="translate(0 14.943915)scale(0.996264)" xlink:href="#CMMI12-81"/>
      <use transform="translate(77.260399 0)scale(0.697382)" xlink:href="#CMMI12-97"/>
     </g>
    </g>
    <g id="line2d_40">
     <path d="M 43.161612 21.297785 
L 52.532862 21.297785 
" style="fill:none;stroke:#ff7f0e;stroke-linecap:round;stroke-opacity:0.7;stroke-width:2;"/>
    </g>
    <g id="line2d_41"/>
    <g id="text_13">
     <!-- $P^\star_a$ -->
     <defs>
      <path d="M 29.59375 31.59375 
L 46.40625 31.59375 
C 60.203125 31.59375 74 41.765625 74 53.125 
C 74 60.90625 67.40625 68 54.796875 68 
L 23.90625 68 
C 22 68 21.09375 68 21.09375 66.09375 
C 21.09375 65.09375 22 65.09375 23.5 65.09375 
C 29.59375 65.09375 29.59375 64.296875 29.59375 63.203125 
C 29.59375 63 29.59375 62.40625 29.203125 60.90625 
L 15.703125 7.359375 
C 14.796875 3.890625 14.59375 2.890625 7.59375 2.890625 
C 5.703125 2.890625 4.703125 2.890625 4.703125 1.09375 
C 4.703125 0 5.59375 0 6.203125 0 
C 8.09375 0 10.09375 0.1875 12 0.1875 
L 23.703125 0.1875 
C 25.59375 0.1875 27.703125 0 29.59375 0 
C 30.40625 0 31.5 0 31.5 1.890625 
C 31.5 2.890625 30.59375 2.890625 29.09375 2.890625 
C 23.09375 2.890625 23 3.59375 23 4.578125 
C 23 5.078125 23.09375 5.765625 23.203125 6.265625 
z
M 36.796875 61.203125 
C 37.703125 64.890625 38.09375 65.09375 42 65.09375 
L 51.90625 65.09375 
C 59.40625 65.09375 65.59375 62.703125 65.59375 55.21875 
C 65.59375 52.640625 64.296875 44.15625 59.703125 39.578125 
C 58 37.78125 53.203125 34 44.09375 34 
L 30 34 
z
" id="CMMI12-80"/>
      <path d="M 24.40625 17.171875 
L 38 2.390625 
C 38.296875 2.09375 38.59375 1.890625 39 1.890625 
C 39.90625 1.890625 39.90625 2.6875 39.90625 2.796875 
C 39.90625 3.09375 39.59375 3.6875 39.40625 4 
L 29.59375 20.9375 
L 47.5 28.953125 
C 48.703125 29.453125 48.90625 29.546875 48.90625 30.140625 
C 48.90625 30.640625 48.5 31.03125 47.90625 31.03125 
L 27.703125 26.96875 
L 25.5 46.09375 
C 25.296875 47.5 25.296875 48 24.5 48 
C 23.59375 48 23.59375 47.5 23.40625 46 
L 21.203125 26.96875 
L 1 31.03125 
C 0.40625 31.03125 0 30.640625 0 30.140625 
C 0 29.546875 0.5 29.359375 1.296875 28.953125 
L 19.296875 20.9375 
L 9.703125 4.1875 
C 9 2.984375 9 2.890625 9 2.796875 
C 9 2.6875 9 1.890625 9.90625 1.890625 
C 10.09375 1.890625 10.5 1.890625 11.40625 2.890625 
z
" id="CMMI12-63"/>
     </defs>
     <g transform="translate(56.281362 23.921735)scale(0.07497 -0.07497)">
      <use transform="translate(0 24.62935)scale(0.996264)" xlink:href="#CMMI12-80"/>
      <use transform="translate(76.425821 60.782989)scale(0.697382)" xlink:href="#CMMI12-63"/>
      <use transform="translate(62.877232 0)scale(0.697382)" xlink:href="#CMMI12-97"/>
     </g>
    </g>
    <g id="line2d_42">
     <path d="M 43.161612 29.872238 
L 52.532862 29.872238 
" style="fill:none;stroke:#2ca02c;stroke-linecap:round;stroke-opacity:0.7;stroke-width:1.3;"/>
    </g>
    <g id="line2d_43"/>
    <g id="text_14">
     <!-- $P_a$ -->
     <g transform="translate(56.281362 32.496188)scale(0.07497 -0.07497)">
      <use transform="translate(0 14.943915)scale(0.996264)" xlink:href="#CMMI12-80"/>
      <use transform="translate(62.877232 0)scale(0.697382)" xlink:href="#CMMI12-97"/>
     </g>
    </g>
   </g>
  </g>
 </g>
 <defs>
  <clipPath id="p3090dee0c5">
   <rect height="112.1" width="147.031661" x="38.288562" y="4.14"/>
  </clipPath>
 </defs>
</svg>
