<?xml version="1.0" encoding="utf-8" standalone="no"?>
<!DOCTYPE svg PUBLIC "-//W3C//DTD SVG 1.1//EN"
  "http://www.w3.org/Graphics/SVG/1.1/DTD/svg11.dtd">
<!-- Created with matplotlib (http://matplotlib.org/) -->
<svg height="162pt" version="1.1" viewBox="0 0 360 162" width="360pt" xmlns="http://www.w3.org/2000/svg" xmlns:xlink="http://www.w3.org/1999/xlink">
 <defs>
  <style type="text/css">
*{stroke-linecap:butt;stroke-linejoin:round;}
  </style>
 </defs>
 <g id="figure_1">
  <g id="patch_1">
   <path d="M 0 162 
L 360 162 
L 360 0 
L 0 0 
z
" style="fill:#ffffff;"/>
  </g>
  <g id="axes_1">
   <g id="patch_2">
    <path d="M 38.620492 127.22 
L 173.7 127.22 
L 173.7 12.6 
L 38.620492 12.6 
z
" style="fill:#ffffff;"/>
   </g>
   <g id="matplotlib.axis_1">
    <g id="xtick_1">
     <g id="line2d_1">
      <defs>
       <path d="M 0 2 
L 0 -2 
" id="m0c4a1e9c47" style="stroke:#000000;stroke-width:0.8;"/>
      </defs>
      <g>
       <use style="stroke:#000000;stroke-width:0.8;" x="66.406893" xlink:href="#m0c4a1e9c47" y="127.22"/>
      </g>
     </g>
     <g id="text_1">
      <!-- $10^{-1}$ -->
      <defs>
       <path d="M 26.59375 63.796875 
C 26.59375 65.890625 26.5 66 25.09375 66 
C 21.203125 61.359375 15.296875 59.890625 9.703125 59.6875 
C 9.40625 59.6875 8.90625 59.6875 8.796875 59.5 
C 8.703125 59.296875 8.703125 59.09375 8.703125 57 
C 11.796875 57 17 57.59375 21 59.984375 
L 21 7.296875 
C 21 3.796875 20.796875 2.59375 12.203125 2.59375 
L 9.203125 2.59375 
L 9.203125 0 
C 14 0.09375 19 0.1875 23.796875 0.1875 
C 28.59375 0.1875 33.59375 0.09375 38.40625 0 
L 38.40625 2.59375 
L 35.40625 2.59375 
C 26.796875 2.59375 26.59375 3.6875 26.59375 7.296875 
z
" id="CMR17-49"/>
       <path d="M 42 31.84375 
C 42 37.96875 41.90625 48.421875 37.703125 56.453125 
C 34 63.484375 28.09375 66 22.90625 66 
C 18.09375 66 12 63.78125 8.203125 56.5625 
C 4.203125 49.015625 3.796875 39.671875 3.796875 31.84375 
C 3.796875 26.109375 3.90625 17.375 7 9.734375 
C 11.296875 -0.609375 19 -2 22.90625 -2 
C 27.5 -2 34.5 -0.109375 38.59375 9.4375 
C 41.59375 16.375 42 24.5 42 31.84375 
z
M 22.90625 -0.40625 
C 16.5 -0.40625 12.703125 5.125 11.296875 12.75 
C 10.203125 18.6875 10.203125 27.328125 10.203125 32.953125 
C 10.203125 40.6875 10.203125 47.109375 11.5 53.234375 
C 13.40625 61.78125 19 64.390625 22.90625 64.390625 
C 27 64.390625 32.296875 61.671875 34.203125 53.4375 
C 35.5 47.71875 35.59375 40.984375 35.59375 32.953125 
C 35.59375 26.421875 35.59375 18.375 34.40625 12.453125 
C 32.296875 1.5 26.40625 -0.40625 22.90625 -0.40625 
z
" id="CMR17-48"/>
       <path d="M 65.90625 23 
C 67.59375 23 69.40625 23 69.40625 25 
C 69.40625 27 67.59375 27 65.90625 27 
L 11.796875 27 
C 10.09375 27 8.296875 27 8.296875 25 
C 8.296875 23 10.09375 23 11.796875 23 
z
" id="CMSY10-0"/>
      </defs>
      <g transform="translate(57.542612 137.973219)scale(0.07497 -0.07497)">
       <use transform="scale(0.996264)" xlink:href="#CMR17-49"/>
       <use transform="translate(45.690477 0)scale(0.996264)" xlink:href="#CMR17-48"/>
       <use transform="translate(91.380954 36.153639)scale(0.697382)" xlink:href="#CMSY10-0"/>
       <use transform="translate(145.621947 36.153639)scale(0.697382)" xlink:href="#CMR17-49"/>
      </g>
     </g>
    </g>
    <g id="xtick_2">
     <g id="line2d_2">
      <g>
       <use style="stroke:#000000;stroke-width:0.8;" x="106.160246" xlink:href="#m0c4a1e9c47" y="127.22"/>
      </g>
     </g>
     <g id="text_2">
      <!-- $10^{0}$ -->
      <g transform="translate(100.127974 137.906787)scale(0.07497 -0.07497)">
       <use transform="scale(0.996264)" xlink:href="#CMR17-49"/>
       <use transform="translate(45.690477 0)scale(0.996264)" xlink:href="#CMR17-48"/>
       <use transform="translate(91.380954 36.153639)scale(0.697382)" xlink:href="#CMR17-48"/>
      </g>
     </g>
    </g>
    <g id="xtick_3">
     <g id="line2d_3">
      <g>
       <use style="stroke:#000000;stroke-width:0.8;" x="145.913599" xlink:href="#m0c4a1e9c47" y="127.22"/>
      </g>
     </g>
     <g id="text_3">
      <!-- $10^{1}$ -->
      <g transform="translate(139.881326 137.906787)scale(0.07497 -0.07497)">
       <use transform="scale(0.996264)" xlink:href="#CMR17-49"/>
       <use transform="translate(45.690477 0)scale(0.996264)" xlink:href="#CMR17-48"/>
       <use transform="translate(91.380954 36.153639)scale(0.697382)" xlink:href="#CMR17-49"/>
      </g>
     </g>
    </g>
    <g id="xtick_4">
     <g id="line2d_4"/>
    </g>
    <g id="xtick_5">
     <g id="line2d_5"/>
    </g>
    <g id="xtick_6">
     <g id="line2d_6"/>
    </g>
    <g id="xtick_7">
     <g id="line2d_7"/>
    </g>
    <g id="xtick_8">
     <g id="line2d_8"/>
    </g>
    <g id="xtick_9">
     <g id="line2d_9"/>
    </g>
    <g id="xtick_10">
     <g id="line2d_10"/>
    </g>
    <g id="xtick_11">
     <g id="line2d_11"/>
    </g>
    <g id="xtick_12">
     <g id="line2d_12"/>
    </g>
    <g id="xtick_13">
     <g id="line2d_13"/>
    </g>
    <g id="xtick_14">
     <g id="line2d_14"/>
    </g>
    <g id="xtick_15">
     <g id="line2d_15"/>
    </g>
    <g id="xtick_16">
     <g id="line2d_16"/>
    </g>
    <g id="xtick_17">
     <g id="line2d_17"/>
    </g>
    <g id="xtick_18">
     <g id="line2d_18"/>
    </g>
    <g id="xtick_19">
     <g id="line2d_19"/>
    </g>
    <g id="xtick_20">
     <g id="line2d_20"/>
    </g>
    <g id="xtick_21">
     <g id="line2d_21"/>
    </g>
    <g id="xtick_22">
     <g id="line2d_22"/>
    </g>
    <g id="xtick_23">
     <g id="line2d_23"/>
    </g>
    <g id="xtick_24">
     <g id="line2d_24"/>
    </g>
    <g id="xtick_25">
     <g id="line2d_25"/>
    </g>
    <g id="xtick_26">
     <g id="line2d_26"/>
    </g>
    <g id="xtick_27">
     <g id="line2d_27"/>
    </g>
    <g id="xtick_28">
     <g id="line2d_28"/>
    </g>
    <g id="xtick_29">
     <g id="line2d_29"/>
    </g>
    <g id="xtick_30">
     <g id="line2d_30"/>
    </g>
    <g id="xtick_31">
     <g id="line2d_31"/>
    </g>
    <g id="text_4">
     <!-- relative time scale $\tilde \tau/\tau$ -->
     <defs>
      <path d="M 15 23.703125 
C 15 33.34375 19.09375 42.390625 26.59375 42.390625 
C 27.296875 42.390625 28 42.296875 28.703125 41.984375 
C 28.703125 41.984375 26.5 41.28125 26.5 38.671875 
C 26.5 36.265625 28.40625 35.265625 29.90625 35.265625 
C 31.09375 35.265625 33.296875 35.96875 33.296875 38.78125 
C 33.296875 41.984375 30.09375 44 26.703125 44 
C 19.09375 44 15.796875 36.5625 14.796875 33.046875 
L 14.703125 33.046875 
L 14.703125 44 
L 3.09375 42.890625 
L 3.09375 40.28125 
C 9 40.28125 9.90625 39.6875 9.90625 34.859375 
L 9.90625 6.921875 
C 9.90625 3.09375 9.5 2.59375 3.09375 2.59375 
L 3.09375 0 
C 5.5 0.1875 10.09375 0.1875 12.703125 0.1875 
C 15.59375 0.1875 20.703125 0.1875 23.40625 0 
L 23.40625 2.59375 
C 16.203125 2.59375 15 2.59375 15 7.109375 
z
" id="CMR17-114"/>
      <path d="M 38.09375 23.484375 
C 38.5 23.890625 38.5 24.09375 38.5 25.09375 
C 38.5 35.171875 33.09375 44 21.703125 44 
C 11.09375 44 2.703125 33.984375 2.703125 21.78125 
C 2.703125 8.65625 12.203125 -1 22.796875 -1 
C 34 -1 38.40625 9.671875 38.40625 11.796875 
C 38.40625 12.5 37.796875 12.5 37.59375 12.5 
C 36.90625 12.5 36.796875 12.296875 36.40625 11.078125 
C 34.203125 4.21875 28.703125 0.796875 23.5 0.796875 
C 19.203125 0.796875 14.90625 3.21875 12.203125 7.65625 
C 9.09375 12.796875 9.09375 18.75 9.09375 23.484375 
z
M 9.203125 25 
C 9.90625 39.234375 17.59375 42.390625 21.59375 42.390625 
C 28.40625 42.390625 33 36.0625 33.09375 25 
z
" id="CMR17-101"/>
      <path d="M 15.296875 69 
L 3.40625 67.890625 
L 3.40625 65.296875 
C 9.296875 65.296875 10.203125 64.703125 10.203125 59.921875 
L 10.203125 6.859375 
C 10.203125 3.09375 9.796875 2.59375 3.40625 2.59375 
L 3.40625 0 
C 5.796875 0.1875 10.203125 0.1875 12.703125 0.1875 
C 15.296875 0.1875 19.703125 0.1875 22.09375 0 
L 22.09375 2.59375 
C 15.703125 2.59375 15.296875 2.984375 15.296875 6.859375 
z
" id="CMR17-108"/>
      <path d="M 36 25.875 
C 36 32 36 35.546875 31.796875 39.59375 
C 28.09375 42.984375 23.796875 44 20.40625 44 
C 12.5 44 6.796875 37.625 6.796875 30.890625 
C 6.796875 27.1875 9.796875 27 10.40625 27 
C 11.703125 27 14 27.796875 14 30.59375 
C 14 33.09375 12.09375 34.1875 10.40625 34.1875 
C 10 34.1875 9.5 34.09375 9.203125 34 
C 11.296875 40.53125 16.703125 42.390625 20.203125 42.390625 
C 25.203125 42.390625 30.703125 37.828125 30.703125 29.296875 
L 30.703125 25.5 
C 24.796875 25.296875 17.703125 24.5 12.09375 21.453125 
C 5.796875 17.921875 4 12.84375 4 9 
C 4 1.203125 13 -1 18.296875 -1 
C 23.796875 -1 28.90625 2.109375 31.09375 7.890625 
C 31.296875 3.421875 34.09375 -0.609375 38.5 -0.609375 
C 40.59375 -0.609375 45.90625 0.796875 45.90625 8.796875 
L 45.90625 14.46875 
L 44.09375 14.46875 
L 44.09375 8.703125 
C 44.09375 2.515625 41.40625 1.703125 40.09375 1.703125 
C 36 1.703125 36 6.96875 36 11.4375 
z
M 30.703125 13.859375 
C 30.703125 5.046875 24.5 0.59375 19 0.59375 
C 14 0.59375 10.09375 4.34375 10.09375 9 
C 10.09375 12.046875 11.40625 17.40625 17.203125 20.65625 
C 22 23.390625 27.5 23.796875 30.703125 24 
z
" id="CMR17-97"/>
      <path d="M 15.09375 40.390625 
L 29.09375 40.390625 
L 29.09375 43 
L 15.09375 43 
L 15.09375 62 
L 13.296875 62 
C 13.09375 51.4375 9.59375 42.1875 1.09375 41.984375 
L 1.09375 40.390625 
L 9.796875 40.390625 
L 9.796875 12.15625 
C 9.796875 10.234375 9.796875 -1 21.40625 -1 
C 27.296875 -1 30.703125 4.8125 30.703125 12.25 
L 30.703125 17.984375 
L 28.90625 17.984375 
L 28.90625 12.34375 
C 28.90625 5.421875 26.203125 0.796875 22 0.796875 
C 19.09375 0.796875 15.09375 2.796875 15.09375 11.953125 
z
" id="CMR17-116"/>
      <path d="M 15.5 61.890625 
C 15.5 64.09375 13.703125 66 11.40625 66 
C 9.203125 66 7.296875 64.1875 7.296875 61.890625 
C 7.296875 59.6875 9.09375 57.796875 11.40625 57.796875 
C 13.59375 57.796875 15.5 59.59375 15.5 61.890625 
z
M 3.796875 42.890625 
L 3.796875 40.296875 
C 9.40625 40.296875 10.203125 39.6875 10.203125 34.859375 
L 10.203125 6.921875 
C 10.203125 3.09375 9.796875 2.59375 3.40625 2.59375 
L 3.40625 0 
C 5.796875 0.1875 10.09375 0.1875 12.59375 0.1875 
C 15 0.1875 19.09375 0.1875 21.40625 0 
L 21.40625 2.59375 
C 15.5 2.59375 15.296875 3.203125 15.296875 6.8125 
L 15.296875 44 
z
" id="CMR17-105"/>
      <path d="M 39.09375 33.953125 
C 40 36.171875 41.59375 40.1875 47.40625 40.390625 
L 47.40625 43 
C 45.5 42.890625 43 42.796875 41.09375 42.796875 
C 39 42.796875 35.703125 42.796875 33.703125 43 
L 33.703125 40.390625 
C 36.203125 40.1875 37.59375 38.984375 37.59375 36.375 
C 37.59375 35.46875 37.59375 35.265625 37 33.859375 
L 26 5.921875 
L 14.09375 36.0625 
C 13.5 37.375 13.5 37.578125 13.5 37.984375 
C 13.5 40.390625 16.796875 40.390625 18.296875 40.390625 
L 18.296875 43 
C 15.90625 42.796875 11.5 42.796875 9 42.796875 
C 6.296875 42.796875 3.203125 42.796875 1 43 
L 1 40.390625 
C 4.796875 40.390625 6.90625 40.390625 8.09375 37.28125 
L 22.59375 0.6875 
C 23.203125 -0.8125 23.296875 -1 24.203125 -1 
C 25.09375 -1 25.203125 -0.8125 25.796875 0.6875 
z
" id="CMR17-118"/>
      <path d="M 67.59375 30.53125 
C 67.59375 35.5625 66.703125 44 54.796875 44 
C 48 44 43.296875 39.375 41.5 33.953125 
L 41.40625 33.953125 
C 40.203125 42.1875 34.296875 44 28.703125 44 
C 20.796875 44 16.703125 37.875 15.203125 33.84375 
L 15.09375 33.84375 
L 15.09375 44 
L 3.296875 42.890625 
L 3.296875 40.28125 
C 9.203125 40.28125 10.09375 39.6875 10.09375 34.859375 
L 10.09375 6.921875 
C 10.09375 3.09375 9.703125 2.59375 3.296875 2.59375 
L 3.296875 0 
C 5.703125 0.1875 10.09375 0.1875 12.703125 0.1875 
C 15.296875 0.1875 19.796875 0.1875 22.203125 0 
L 22.203125 2.59375 
C 15.796875 2.59375 15.40625 3 15.40625 6.921875 
L 15.40625 26.21875 
C 15.40625 35.453125 21 42.390625 28 42.390625 
C 35.40625 42.390625 36.203125 35.765625 36.203125 30.9375 
L 36.203125 6.921875 
C 36.203125 3.09375 35.796875 2.59375 29.40625 2.59375 
L 29.40625 0 
C 31.796875 0.1875 36.203125 0.1875 38.796875 0.1875 
C 41.40625 0.1875 45.90625 0.1875 48.296875 0 
L 48.296875 2.59375 
C 41.90625 2.59375 41.5 3 41.5 6.921875 
L 41.5 26.21875 
C 41.5 35.453125 47.09375 42.390625 54.09375 42.390625 
C 61.5 42.390625 62.296875 35.765625 62.296875 30.9375 
L 62.296875 6.921875 
C 62.296875 3.09375 61.90625 2.59375 55.5 2.59375 
L 55.5 0 
C 57.90625 0.1875 62.296875 0.1875 64.90625 0.1875 
C 67.5 0.1875 72 0.1875 74.40625 0 
L 74.40625 2.59375 
C 68 2.59375 67.59375 3 67.59375 6.921875 
z
" id="CMR17-109"/>
      <path d="M 30.90625 42 
C 30.90625 43.796875 30.796875 43.890625 30.203125 43.890625 
C 29.796875 43.890625 29.703125 43.796875 28.5 42.296875 
C 28.203125 41.890625 27.296875 40.890625 27 40.5 
C 23.796875 43.890625 19.296875 44 17.59375 44 
C 6.5 44 2.5 38.1875 2.5 32.390625 
C 2.5 23.390625 12.703125 21.296875 15.59375 20.6875 
C 21.90625 19.390625 24.09375 19 26.203125 17.1875 
C 27.5 16 29.703125 13.796875 29.703125 10.1875 
C 29.703125 6 27.296875 0.59375 18.09375 0.59375 
C 9.40625 0.59375 6.296875 7.1875 4.5 16 
C 4.203125 17.390625 4.203125 17.5 3.40625 17.5 
C 2.59375 17.5 2.5 17.390625 2.5 15.390625 
L 2.5 1 
C 2.5 -0.8125 2.59375 -0.90625 3.203125 -0.90625 
C 3.703125 -0.90625 3.796875 -0.8125 4.296875 0 
C 4.90625 0.890625 6.40625 3.296875 7 4.296875 
C 9 1.59375 12.5 -1 18.09375 -1 
C 28 -1 33.296875 4.390625 33.296875 12.1875 
C 33.296875 17.296875 30.59375 20 29.296875 21.1875 
C 26.296875 24.296875 22.796875 25 18.59375 25.796875 
C 13.09375 27 6.09375 28.390625 6.09375 34.5 
C 6.09375 37.09375 7.5 42.59375 17.59375 42.59375 
C 28.296875 42.59375 28.90625 32.59375 29.09375 29.390625 
C 29.203125 28.890625 29.703125 28.796875 30 28.796875 
C 30.90625 28.796875 30.90625 29.09375 30.90625 30.796875 
z
" id="CMR17-115"/>
      <path d="M 34.90625 35 
C 33 35 30.203125 35 30.203125 31.484375 
C 30.203125 28.6875 32.5 27.890625 33.796875 27.890625 
C 34.5 27.890625 37.40625 28.1875 37.40625 31.6875 
C 37.40625 38.6875 30.59375 44 22.90625 44 
C 12.296875 44 3.296875 34.390625 3.296875 21.546875 
C 3.296875 8.140625 12.703125 -1 22.90625 -1 
C 35.296875 -1 38.40625 10.5625 38.40625 11.671875 
C 38.40625 12.078125 38.296875 12.375 37.59375 12.375 
C 36.90625 12.375 36.796875 12.28125 36.40625 10.96875 
C 33.796875 2.8125 28.09375 0.796875 23.796875 0.796875 
C 17.40625 0.796875 9.703125 6.734375 9.703125 21.640625 
C 9.703125 36.84375 17.09375 42.1875 23 42.1875 
C 26.90625 42.1875 32.703125 40.34375 34.90625 35 
z
" id="CMR17-99"/>
      <path d="M 37.5 65.59375 
C 34.09375 62.296875 32.203125 60.390625 29.09375 60.390625 
C 26.90625 60.390625 25.40625 61.5 23.296875 63 
C 21.296875 64.390625 19.703125 65.59375 17.5 65.59375 
C 13.90625 65.59375 11.40625 62.6875 7.203125 58.09375 
L 8.296875 57 
C 11.703125 60.296875 13.59375 62.1875 16.703125 62.1875 
C 18.90625 62.1875 20.40625 61.09375 22.5 59.59375 
C 24.5 58.1875 26.09375 57 28.296875 57 
C 31.90625 57 34.40625 59.890625 38.59375 64.5 
z
" id="CMR17-126"/>
      <path d="M 28.703125 37.59375 
L 45.296875 37.59375 
C 46.59375 37.59375 49.90625 37.59375 49.90625 40.796875 
C 49.90625 43 48 43 46.203125 43 
L 18.703125 43 
C 16.40625 43 13 43 8.40625 38.09375 
C 5.796875 35.203125 2.59375 29.9375 2.59375 29.34375 
C 2.59375 28.734375 3.09375 28.546875 3.703125 28.546875 
C 4.40625 28.546875 4.5 28.84375 5 29.4375 
C 10.203125 37.59375 15.40625 37.59375 17.90625 37.59375 
L 26.203125 37.59375 
L 15.796875 3.484375 
C 15.296875 1.984375 15.296875 1.78125 15.296875 1.484375 
C 15.296875 0.390625 16 -1 18 -1 
C 21.09375 -1 21.59375 1.6875 21.90625 3.1875 
z
" id="CMMI12-28"/>
      <path d="M 42.90625 71.296875 
C 42.90625 71.390625 43.5 72.890625 43.5 73.09375 
C 43.5 74.296875 42.5 75 41.703125 75 
C 41.203125 75 40.296875 75 39.5 72.796875 
L 6 -21.3125 
C 6 -21.40625 5.40625 -22.90625 5.40625 -23.109375 
C 5.40625 -24.3125 6.40625 -25 7.203125 -25 
C 7.796875 -25 8.703125 -24.90625 9.40625 -22.8125 
z
" id="CMMI12-61"/>
     </defs>
     <g style="fill:#262626;" transform="translate(61.357751 149.150303)scale(0.09 -0.09)">
      <use transform="scale(0.996264)" xlink:href="#CMR17-114"/>
      <use transform="translate(35.280768 0)scale(0.996264)" xlink:href="#CMR17-101"/>
      <use transform="translate(75.766428 0)scale(0.996264)" xlink:href="#CMR17-108"/>
      <use transform="translate(100.637487 0)scale(0.996264)" xlink:href="#CMR17-97"/>
      <use transform="translate(146.327964 0)scale(0.996264)" xlink:href="#CMR17-116"/>
      <use transform="translate(181.608732 0)scale(0.996264)" xlink:href="#CMR17-105"/>
      <use transform="translate(206.47979 0)scale(0.996264)" xlink:href="#CMR17-118"/>
      <use transform="translate(252.170252 0)scale(0.996264)" xlink:href="#CMR17-101"/>
      <use transform="translate(322.731879 0)scale(0.996264)" xlink:href="#CMR17-116"/>
      <use transform="translate(358.012647 0)scale(0.996264)" xlink:href="#CMR17-105"/>
      <use transform="translate(382.883705 0)scale(0.996264)" xlink:href="#CMR17-109"/>
      <use transform="translate(459.803295 0)scale(0.996264)" xlink:href="#CMR17-101"/>
      <use transform="translate(530.364922 0)scale(0.996264)" xlink:href="#CMR17-115"/>
      <use transform="translate(566.166259 0)scale(0.996264)" xlink:href="#CMR17-99"/>
      <use transform="translate(606.65192 0)scale(0.996264)" xlink:href="#CMR17-97"/>
      <use transform="translate(652.342397 0)scale(0.996264)" xlink:href="#CMR17-108"/>
      <use transform="translate(677.213456 0)scale(0.996264)" xlink:href="#CMR17-101"/>
      <use transform="translate(754.385152 0.006461)scale(0.996264)" xlink:href="#CMR17-126"/>
      <use transform="translate(747.775082 0)scale(0.996264)" xlink:href="#CMMI12-28"/>
      <use transform="translate(801.266248 0)scale(0.996264)" xlink:href="#CMMI12-61"/>
      <use transform="translate(850.041166 0)scale(0.996264)" xlink:href="#CMMI12-28"/>
     </g>
    </g>
   </g>
   <g id="matplotlib.axis_2">
    <g id="ytick_1">
     <g id="line2d_32">
      <defs>
       <path d="M 2 0 
L -2 -0 
" id="mc118995e4a" style="stroke:#000000;stroke-width:0.8;"/>
      </defs>
      <g>
       <use style="stroke:#000000;stroke-width:0.8;" x="38.620492" xlink:href="#mc118995e4a" y="127.22"/>
      </g>
     </g>
     <g id="text_5">
      <!-- $0.0$ -->
      <defs>
       <path d="M 18.40625 4.796875 
C 18.40625 7.6875 16 9.6875 13.59375 9.6875 
C 10.703125 9.6875 8.703125 7.296875 8.703125 4.890625 
C 8.703125 2 11.09375 0 13.5 0 
C 16.40625 0 18.40625 2.390625 18.40625 4.796875 
z
" id="CMMI12-58"/>
      </defs>
      <g transform="translate(22.08 129.813394)scale(0.07497 -0.07497)">
       <use transform="scale(0.996264)" xlink:href="#CMR17-48"/>
       <use transform="translate(45.690477 0)scale(0.996264)" xlink:href="#CMMI12-58"/>
       <use transform="translate(72.787654 0)scale(0.996264)" xlink:href="#CMR17-48"/>
      </g>
     </g>
    </g>
    <g id="ytick_2">
     <g id="line2d_33">
      <g>
       <use style="stroke:#000000;stroke-width:0.8;" x="38.620492" xlink:href="#mc118995e4a" y="104.296"/>
      </g>
     </g>
     <g id="text_6">
      <!-- $0.2$ -->
      <defs>
       <path d="M 41.703125 15.46875 
L 39.90625 15.46875 
C 38.90625 8.390625 38.09375 7.1875 37.703125 6.59375 
C 37.203125 5.796875 30 5.796875 28.59375 5.796875 
L 9.40625 5.796875 
C 13 9.6875 20 16.765625 28.5 24.9375 
C 34.59375 30.71875 41.703125 37.5 41.703125 47.390625 
C 41.703125 59.1875 32.296875 66 21.796875 66 
C 10.796875 66 4.09375 56.296875 4.09375 47.296875 
C 4.09375 43.390625 7 42.890625 8.203125 42.890625 
C 9.203125 42.890625 12.203125 43.484375 12.203125 46.984375 
C 12.203125 50.09375 9.59375 51 8.203125 51 
C 7.59375 51 7 50.890625 6.59375 50.6875 
C 8.5 59.1875 14.296875 63.390625 20.40625 63.390625 
C 29.09375 63.390625 34.796875 56.5 34.796875 47.390625 
C 34.796875 38.703125 29.703125 31.21875 24 24.734375 
L 4.09375 2.296875 
L 4.09375 0 
L 39.296875 0 
z
" id="CMR17-50"/>
      </defs>
      <g transform="translate(22.08 106.889394)scale(0.07497 -0.07497)">
       <use transform="scale(0.996264)" xlink:href="#CMR17-48"/>
       <use transform="translate(45.690477 0)scale(0.996264)" xlink:href="#CMMI12-58"/>
       <use transform="translate(72.787654 0)scale(0.996264)" xlink:href="#CMR17-50"/>
      </g>
     </g>
    </g>
    <g id="ytick_3">
     <g id="line2d_34">
      <g>
       <use style="stroke:#000000;stroke-width:0.8;" x="38.620492" xlink:href="#mc118995e4a" y="81.372"/>
      </g>
     </g>
     <g id="text_7">
      <!-- $0.4$ -->
      <defs>
       <path d="M 33.59375 64.796875 
C 33.59375 66.890625 33.5 67 31.703125 67 
L 2 19.59375 
L 2 17 
L 27.796875 17 
L 27.796875 7.1875 
C 27.796875 3.59375 27.59375 2.59375 20.59375 2.59375 
L 18.703125 2.59375 
L 18.703125 0 
C 21.90625 0.1875 27.296875 0.1875 30.703125 0.1875 
C 34.09375 0.1875 39.5 0.1875 42.703125 0 
L 42.703125 2.59375 
L 40.796875 2.59375 
C 33.796875 2.59375 33.59375 3.59375 33.59375 7.1875 
L 33.59375 17 
L 43.796875 17 
L 43.796875 19.59375 
L 33.59375 19.59375 
z
M 28.09375 58.171875 
L 28.09375 19.59375 
L 4 19.59375 
z
" id="CMR17-52"/>
      </defs>
      <g transform="translate(22.08 83.965394)scale(0.07497 -0.07497)">
       <use transform="scale(0.996264)" xlink:href="#CMR17-48"/>
       <use transform="translate(45.690477 0)scale(0.996264)" xlink:href="#CMMI12-58"/>
       <use transform="translate(72.787654 0)scale(0.996264)" xlink:href="#CMR17-52"/>
      </g>
     </g>
    </g>
    <g id="ytick_4">
     <g id="line2d_35">
      <g>
       <use style="stroke:#000000;stroke-width:0.8;" x="38.620492" xlink:href="#mc118995e4a" y="58.448"/>
      </g>
     </g>
     <g id="text_8">
      <!-- $0.6$ -->
      <defs>
       <path d="M 10.59375 34.34375 
C 10.59375 58 21.796875 63.6875 28.296875 63.6875 
C 30.40625 63.6875 35.5 63.265625 37.5 59.09375 
C 35.90625 59.09375 32.90625 59.09375 32.90625 55.59375 
C 32.90625 52.890625 35.09375 52 36.5 52 
C 37.40625 52 40.09375 52.390625 40.09375 55.796875 
C 40.09375 62.296875 35.09375 66 28.203125 66 
C 16.296875 66 3.796875 53.296875 3.796875 31.421875 
C 3.796875 4.015625 15.09375 -2 23.09375 -2 
C 32.796875 -2 42 6.734375 42 20.234375 
C 42 32.828125 33.90625 42 23.703125 42 
C 17.59375 42 13.09375 37.96875 10.59375 30.921875 
z
M 23.09375 0.390625 
C 10.796875 0.390625 10.796875 18.9375 10.796875 22.65625 
C 10.796875 29.90625 14.203125 40.390625 23.5 40.390625 
C 25.203125 40.390625 30.09375 40.390625 33.40625 33.4375 
C 35.203125 29.515625 35.203125 25.375 35.203125 20.34375 
C 35.203125 14.90625 35.203125 10.875 33.09375 6.84375 
C 30.90625 2.703125 27.703125 0.390625 23.09375 0.390625 
z
" id="CMR17-54"/>
      </defs>
      <g transform="translate(22.08 61.041394)scale(0.07497 -0.07497)">
       <use transform="scale(0.996264)" xlink:href="#CMR17-48"/>
       <use transform="translate(45.690477 0)scale(0.996264)" xlink:href="#CMMI12-58"/>
       <use transform="translate(72.787654 0)scale(0.996264)" xlink:href="#CMR17-54"/>
      </g>
     </g>
    </g>
    <g id="ytick_5">
     <g id="line2d_36">
      <g>
       <use style="stroke:#000000;stroke-width:0.8;" x="38.620492" xlink:href="#mc118995e4a" y="35.524"/>
      </g>
     </g>
     <g id="text_9">
      <!-- $0.8$ -->
      <defs>
       <path d="M 27.203125 35.765625 
C 33.5 38.96875 39.90625 43.796875 39.90625 51.53125 
C 39.90625 60.6875 31.09375 66 23 66 
C 13.90625 66 5.90625 59.375 5.90625 50.234375 
C 5.90625 47.71875 6.5 43.390625 10.40625 39.578125 
C 11.40625 38.578125 15.59375 35.5625 18.296875 33.65625 
C 13.796875 31.34375 3.296875 25.8125 3.296875 14.765625 
C 3.296875 4.40625 13.09375 -2 22.796875 -2 
C 33.5 -2 42.5 5.71875 42.5 15.96875 
C 42.5 25.109375 36.40625 29.328125 32.40625 32.046875 
z
M 14.09375 44.609375 
C 13.296875 45.109375 9.296875 48.21875 9.296875 52.9375 
C 9.296875 59.078125 15.59375 63.6875 22.796875 63.6875 
C 30.703125 63.6875 36.5 58.0625 36.5 51.53125 
C 36.5 42.1875 26.09375 36.859375 25.59375 36.859375 
C 25.5 36.859375 25.40625 36.859375 24.59375 37.46875 
z
M 32.5 24 
C 34 22.90625 38.796875 19.578125 38.796875 13.453125 
C 38.796875 6.015625 31.40625 0.390625 23 0.390625 
C 13.90625 0.390625 7 6.921875 7 14.859375 
C 7 22.796875 13.09375 29.4375 20 32.546875 
z
" id="CMR17-56"/>
      </defs>
      <g transform="translate(22.08 38.117394)scale(0.07497 -0.07497)">
       <use transform="scale(0.996264)" xlink:href="#CMR17-48"/>
       <use transform="translate(45.690477 0)scale(0.996264)" xlink:href="#CMMI12-58"/>
       <use transform="translate(72.787654 0)scale(0.996264)" xlink:href="#CMR17-56"/>
      </g>
     </g>
    </g>
    <g id="ytick_6">
     <g id="line2d_37">
      <g>
       <use style="stroke:#000000;stroke-width:0.8;" x="38.620492" xlink:href="#mc118995e4a" y="12.6"/>
      </g>
     </g>
     <g id="text_10">
      <!-- $1.0$ -->
      <g transform="translate(22.08 15.193394)scale(0.07497 -0.07497)">
       <use transform="scale(0.996264)" xlink:href="#CMR17-49"/>
       <use transform="translate(45.690477 0)scale(0.996264)" xlink:href="#CMMI12-58"/>
       <use transform="translate(72.787654 0)scale(0.996264)" xlink:href="#CMR17-48"/>
      </g>
     </g>
    </g>
    <g id="text_11">
     <!-- $c(t)/c_0$ -->
     <defs>
      <path d="M 39.09375 38 
C 37.203125 38 36.296875 38 34.90625 36.796875 
C 34.296875 36.296875 33.203125 34.796875 33.203125 33.1875 
C 33.203125 31.1875 34.703125 29.984375 36.59375 29.984375 
C 39 29.984375 41.703125 31.984375 41.703125 35.984375 
C 41.703125 40.484375 37.09375 44 30.203125 44 
C 17.09375 44 4 30.1875 4 15.796875 
C 4 6.96875 9.40625 -1 19.59375 -1 
C 33.203125 -1 41.796875 9.71875 41.796875 11.03125 
C 41.796875 11.640625 41.203125 12.140625 40.796875 12.140625 
C 40.5 12.140625 40.40625 12.046875 39.5 11.125 
C 33.09375 2.515625 23.59375 1 19.796875 1 
C 12.90625 1 10.703125 7.078125 10.703125 12.140625 
C 10.703125 15.6875 12.40625 25.53125 16 32.390625 
C 18.59375 37.09375 24 41.984375 30.296875 41.984375 
C 31.59375 41.984375 37.09375 41.8125 39.09375 38 
z
" id="CMMI12-99"/>
      <path d="M 30.59375 -24.40625 
C 30.59375 -24.3125 30.59375 -24.109375 30.296875 -23.8125 
C 25.703125 -19.109375 13.40625 -6.296875 13.40625 24.9375 
C 13.40625 56.171875 25.5 68.875 30.40625 73.890625 
C 30.40625 73.984375 30.59375 74.1875 30.59375 74.484375 
C 30.59375 74.796875 30.296875 75 29.90625 75 
C 28.796875 75 20.296875 67.578125 15.40625 56.5625 
C 10.40625 45.453125 9 34.65625 9 25.046875 
C 9 17.828125 9.703125 5.625 15.703125 -7.296875 
C 20.5 -17.703125 28.703125 -25 29.90625 -25 
C 30.40625 -25 30.59375 -24.8125 30.59375 -24.40625 
z
" id="CMR17-40"/>
      <path d="M 20.09375 40.09375 
L 29.296875 40.09375 
C 31.203125 40.09375 32.203125 40.09375 32.203125 41.890625 
C 32.203125 43 31.59375 43 29.59375 43 
L 20.796875 43 
L 24.5 57.25 
C 24.90625 58.625 24.90625 58.8125 24.90625 59.5 
C 24.90625 61.09375 23.59375 62 22.296875 62 
C 21.5 62 19.203125 61.6875 18.40625 58.53125 
L 14.5 43 
L 5.09375 43 
C 3.09375 43 2.203125 43 2.203125 41.09375 
C 2.203125 40.09375 2.90625 40.09375 4.796875 40.09375 
L 13.703125 40.09375 
L 7.09375 13.765625 
C 6.296875 10.265625 6 9.265625 6 7.96875 
C 6 3.28125 9.296875 -1 14.90625 -1 
C 25 -1 30.40625 13.5625 30.40625 14.265625 
C 30.40625 14.859375 30 15.15625 29.40625 15.15625 
C 29.203125 15.15625 28.796875 15.15625 28.59375 14.75 
C 28.5 14.65625 28.40625 14.5625 27.703125 12.96875 
C 25.59375 7.96875 21 1 15.203125 1 
C 12.203125 1 12 3.484375 12 5.6875 
C 12 5.78125 12 7.671875 12.296875 8.875 
z
" id="CMMI12-116"/>
      <path d="M 26.296875 24.9375 
C 26.296875 32.140625 25.59375 44.359375 19.59375 57.265625 
C 14.796875 67.6875 6.59375 75 5.40625 75 
C 5.09375 75 4.703125 74.890625 4.703125 74.390625 
C 4.703125 74.1875 4.796875 74.09375 4.90625 73.890625 
C 9.703125 68.875 21.90625 56.171875 21.90625 25.046875 
C 21.90625 -6.1875 9.796875 -18.90625 4.90625 -23.90625 
C 4.796875 -24.109375 4.703125 -24.203125 4.703125 -24.40625 
C 4.703125 -24.90625 5.09375 -25 5.40625 -25 
C 6.5 -25 15 -17.609375 19.90625 -6.59375 
C 24.90625 4.515625 26.296875 15.328125 26.296875 24.9375 
z
" id="CMR17-41"/>
     </defs>
     <g style="fill:#262626;" transform="translate(17.336538 83.277459)rotate(-90)scale(0.09 -0.09)">
      <use transform="translate(0 14.943915)scale(0.996264)" xlink:href="#CMMI12-99"/>
      <use transform="translate(41.983234 14.943915)scale(0.996264)" xlink:href="#CMR17-40"/>
      <use transform="translate(77.264001 14.943915)scale(0.996264)" xlink:href="#CMMI12-116"/>
      <use transform="translate(112.490332 14.943915)scale(0.996264)" xlink:href="#CMR17-41"/>
      <use transform="translate(147.771099 14.943915)scale(0.996264)" xlink:href="#CMMI12-61"/>
      <use transform="translate(196.546018 14.943915)scale(0.996264)" xlink:href="#CMMI12-99"/>
      <use transform="translate(238.529252 0)scale(0.697382)" xlink:href="#CMR17-48"/>
     </g>
    </g>
   </g>
   <g id="LineCollection_1">
    <path clip-path="url(#pf0339735bb)" d="M 38.620492 25.939087 
L 38.620492 18.280597 
" style="fill:none;stroke:#1f77b4;stroke-width:1.3;"/>
    <path clip-path="url(#pf0339735bb)" d="M 54.439942 47.057968 
L 54.439942 35.39242 
" style="fill:none;stroke:#1f77b4;stroke-width:1.3;"/>
    <path clip-path="url(#pf0339735bb)" d="M 66.406893 64.161378 
L 66.406893 58.227292 
" style="fill:none;stroke:#1f77b4;stroke-width:1.3;"/>
    <path clip-path="url(#pf0339735bb)" d="M 78.373845 71.247327 
L 78.373845 65.539412 
" style="fill:none;stroke:#1f77b4;stroke-width:1.3;"/>
    <path clip-path="url(#pf0339735bb)" d="M 94.193294 74.773231 
L 94.193294 68.903406 
" style="fill:none;stroke:#1f77b4;stroke-width:1.3;"/>
    <path clip-path="url(#pf0339735bb)" d="M 106.160246 76.037993 
L 106.160246 70.467565 
" style="fill:none;stroke:#1f77b4;stroke-width:1.3;"/>
    <path clip-path="url(#pf0339735bb)" d="M 118.127198 72.714047 
L 118.127198 66.730933 
" style="fill:none;stroke:#1f77b4;stroke-width:1.3;"/>
    <path clip-path="url(#pf0339735bb)" d="M 133.946647 71.542646 
L 133.946647 65.953453 
" style="fill:none;stroke:#1f77b4;stroke-width:1.3;"/>
    <path clip-path="url(#pf0339735bb)" d="M 145.913599 71.072618 
L 145.913599 64.262595 
" style="fill:none;stroke:#1f77b4;stroke-width:1.3;"/>
    <path clip-path="url(#pf0339735bb)" d="M 157.88055 67.401134 
L 157.88055 61.204196 
" style="fill:none;stroke:#1f77b4;stroke-width:1.3;"/>
    <path clip-path="url(#pf0339735bb)" d="M 173.7 62.62374 
L 173.7 55.87828 
" style="fill:none;stroke:#1f77b4;stroke-width:1.3;"/>
   </g>
   <g id="line2d_38">
    <path clip-path="url(#pf0339735bb)" d="M 38.620492 22.109842 
L 54.439942 41.225194 
L 66.406893 61.194335 
L 78.373845 68.39337 
L 94.193294 71.838318 
L 106.160246 73.252779 
L 118.127198 69.72249 
L 133.946647 68.748049 
L 145.913599 67.667607 
L 157.88055 64.302665 
L 173.7 59.25101 
" style="fill:none;stroke:#1f77b4;stroke-linecap:round;stroke-width:1.3;"/>
   </g>
   <g id="patch_3">
    <path d="M 38.620492 127.22 
L 38.620492 12.6 
" style="fill:none;stroke:#262626;stroke-linecap:square;stroke-linejoin:miter;stroke-width:0.8;"/>
   </g>
   <g id="patch_4">
    <path d="M 38.620492 127.22 
L 173.7 127.22 
" style="fill:none;stroke:#262626;stroke-linecap:square;stroke-linejoin:miter;stroke-width:0.8;"/>
   </g>
   <g id="text_12">
    <!-- $\tau_c = 2$ years -->
    <defs>
     <path d="M 64.296875 32 
C 65.796875 32 67.296875 32 67.296875 33.6875 
C 67.296875 35.5 65.59375 35.5 63.90625 35.5 
L 8 35.5 
C 6.296875 35.5 4.59375 35.5 4.59375 33.6875 
C 4.59375 32 6.09375 32 7.59375 32 
z
M 63.90625 14.484375 
C 65.59375 14.484375 67.296875 14.484375 67.296875 16.296875 
C 67.296875 18 65.796875 18 64.296875 18 
L 7.59375 18 
C 6.09375 18 4.59375 18 4.59375 16.296875 
C 4.59375 14.484375 6.296875 14.484375 8 14.484375 
z
" id="CMR17-61"/>
     <path d="M 39 34.109375 
C 41.5 40.296875 46 40.390625 47.40625 40.390625 
L 47.40625 43 
C 45.5 42.890625 43 42.796875 41.09375 42.796875 
C 39 42.796875 35.703125 42.796875 33.703125 43 
L 33.703125 40.390625 
C 37.5 40.09375 37.59375 37.25 37.59375 36.4375 
C 37.59375 35.4375 37.40625 34.921875 36.90625 33.71875 
L 26 6.390625 
L 14.09375 35.9375 
C 13.59375 37.15625 13.59375 37.859375 13.59375 37.96875 
C 13.59375 40.1875 15.90625 40.390625 18.296875 40.390625 
L 18.296875 43 
C 15.90625 42.796875 11.59375 42.796875 9.09375 42.796875 
C 6.40625 42.796875 3.203125 42.796875 1 43 
L 1 40.390625 
C 6.40625 40.390625 7 39.890625 8.296875 36.640625 
L 23.203125 -0.484375 
C 18.703125 -12.421875 16.09375 -19.40625 9.796875 -19.40625 
C 8.703125 -19.40625 6.203125 -19.109375 4.40625 -17.28125 
C 6.703125 -17.078125 7.703125 -15.65625 7.703125 -13.9375 
C 7.703125 -12.21875 6.5 -10.703125 4.5 -10.703125 
C 2.296875 -10.703125 1.203125 -12.21875 1.203125 -14.046875 
C 1.203125 -18.09375 5.296875 -21 9.796875 -21 
C 15.59375 -21 19.203125 -15.359375 21.203125 -10.296875 
z
" id="CMR17-121"/>
    </defs>
    <g transform="translate(81.951362 18.82665)scale(0.09 -0.09)">
     <use transform="translate(0 14.943915)scale(0.996264)" xlink:href="#CMMI12-28"/>
     <use transform="translate(42.363841 0)scale(0.697382)" xlink:href="#CMMI12-99"/>
     <use transform="translate(99.924113 14.943915)scale(0.996264)" xlink:href="#CMR17-61"/>
     <use transform="translate(199.31291 14.943915)scale(0.996264)" xlink:href="#CMR17-50"/>
     <use transform="translate(275.079353 14.943915)scale(0.996264)" xlink:href="#CMR17-121"/>
     <use transform="translate(320.769815 14.943915)scale(0.996264)" xlink:href="#CMR17-101"/>
     <use transform="translate(361.255476 14.943915)scale(0.996264)" xlink:href="#CMR17-97"/>
     <use transform="translate(406.945953 14.943915)scale(0.996264)" xlink:href="#CMR17-114"/>
     <use transform="translate(442.226721 14.943915)scale(0.996264)" xlink:href="#CMR17-115"/>
    </g>
   </g>
   <g id="text_13">
    <!-- {\sf \textbf{A}} -->
    <defs>
     <path d="M 47.40625 64.71875 
C 45.90625 69 43 69 41 69 
L 32.203125 69 
C 30.203125 69 27.296875 69 25.796875 64.71875 
L 4.703125 4.671875 
C 4.203125 3.375 4.203125 3.1875 4.203125 2.6875 
C 4.203125 0 6.703125 0 8.09375 0 
L 11.703125 0 
C 13.5 0 16.59375 0 18 3.984375 
L 21.90625 15 
L 49.59375 15 
L 53 5.46875 
C 54.203125 2 54.90625 0 59.703125 0 
L 65.09375 0 
C 66.5 0 69 0 69 2.6875 
C 69 3.1875 69 3.375 68.5 4.671875 
z
M 32.09375 44.65625 
C 33.59375 49.015625 34.90625 52.796875 35.703125 56.375 
L 35.796875 56.375 
C 36.296875 53.984375 36.296875 53.78125 37.09375 51.5 
L 46.59375 23.59375 
L 24.90625 23.59375 
z
" id="CMSSBX10-65"/>
    </defs>
    <g transform="translate(10.113624 18.82665)scale(0.09 -0.09)">
     <use transform="scale(0.996264)" xlink:href="#CMSSBX10-65"/>
    </g>
   </g>
  </g>
  <g id="axes_2">
   <g id="patch_5">
    <path d="M 213.760492 127.22 
L 348.84 127.22 
L 348.84 12.6 
L 213.760492 12.6 
z
" style="fill:#ffffff;"/>
   </g>
   <g id="matplotlib.axis_3">
    <g id="xtick_32">
     <g id="line2d_39">
      <g>
       <use style="stroke:#000000;stroke-width:0.8;" x="241.546893" xlink:href="#m0c4a1e9c47" y="127.22"/>
      </g>
     </g>
     <g id="text_14">
      <!-- $10^{-1}$ -->
      <g transform="translate(232.682612 137.973219)scale(0.07497 -0.07497)">
       <use transform="scale(0.996264)" xlink:href="#CMR17-49"/>
       <use transform="translate(45.690477 0)scale(0.996264)" xlink:href="#CMR17-48"/>
       <use transform="translate(91.380954 36.153639)scale(0.697382)" xlink:href="#CMSY10-0"/>
       <use transform="translate(145.621947 36.153639)scale(0.697382)" xlink:href="#CMR17-49"/>
      </g>
     </g>
    </g>
    <g id="xtick_33">
     <g id="line2d_40">
      <g>
       <use style="stroke:#000000;stroke-width:0.8;" x="281.300246" xlink:href="#m0c4a1e9c47" y="127.22"/>
      </g>
     </g>
     <g id="text_15">
      <!-- $10^{0}$ -->
      <g transform="translate(275.267974 137.906787)scale(0.07497 -0.07497)">
       <use transform="scale(0.996264)" xlink:href="#CMR17-49"/>
       <use transform="translate(45.690477 0)scale(0.996264)" xlink:href="#CMR17-48"/>
       <use transform="translate(91.380954 36.153639)scale(0.697382)" xlink:href="#CMR17-48"/>
      </g>
     </g>
    </g>
    <g id="xtick_34">
     <g id="line2d_41">
      <g>
       <use style="stroke:#000000;stroke-width:0.8;" x="321.053599" xlink:href="#m0c4a1e9c47" y="127.22"/>
      </g>
     </g>
     <g id="text_16">
      <!-- $10^{1}$ -->
      <g transform="translate(315.021326 137.906787)scale(0.07497 -0.07497)">
       <use transform="scale(0.996264)" xlink:href="#CMR17-49"/>
       <use transform="translate(45.690477 0)scale(0.996264)" xlink:href="#CMR17-48"/>
       <use transform="translate(91.380954 36.153639)scale(0.697382)" xlink:href="#CMR17-49"/>
      </g>
     </g>
    </g>
    <g id="xtick_35">
     <g id="line2d_42"/>
    </g>
    <g id="xtick_36">
     <g id="line2d_43"/>
    </g>
    <g id="xtick_37">
     <g id="line2d_44"/>
    </g>
    <g id="xtick_38">
     <g id="line2d_45"/>
    </g>
    <g id="xtick_39">
     <g id="line2d_46"/>
    </g>
    <g id="xtick_40">
     <g id="line2d_47"/>
    </g>
    <g id="xtick_41">
     <g id="line2d_48"/>
    </g>
    <g id="xtick_42">
     <g id="line2d_49"/>
    </g>
    <g id="xtick_43">
     <g id="line2d_50"/>
    </g>
    <g id="xtick_44">
     <g id="line2d_51"/>
    </g>
    <g id="xtick_45">
     <g id="line2d_52"/>
    </g>
    <g id="xtick_46">
     <g id="line2d_53"/>
    </g>
    <g id="xtick_47">
     <g id="line2d_54"/>
    </g>
    <g id="xtick_48">
     <g id="line2d_55"/>
    </g>
    <g id="xtick_49">
     <g id="line2d_56"/>
    </g>
    <g id="xtick_50">
     <g id="line2d_57"/>
    </g>
    <g id="xtick_51">
     <g id="line2d_58"/>
    </g>
    <g id="xtick_52">
     <g id="line2d_59"/>
    </g>
    <g id="xtick_53">
     <g id="line2d_60"/>
    </g>
    <g id="xtick_54">
     <g id="line2d_61"/>
    </g>
    <g id="xtick_55">
     <g id="line2d_62"/>
    </g>
    <g id="xtick_56">
     <g id="line2d_63"/>
    </g>
    <g id="xtick_57">
     <g id="line2d_64"/>
    </g>
    <g id="xtick_58">
     <g id="line2d_65"/>
    </g>
    <g id="xtick_59">
     <g id="line2d_66"/>
    </g>
    <g id="xtick_60">
     <g id="line2d_67"/>
    </g>
    <g id="xtick_61">
     <g id="line2d_68"/>
    </g>
    <g id="xtick_62">
     <g id="line2d_69"/>
    </g>
    <g id="text_17">
     <!-- relative time scale $\tilde \tau/\tau$ -->
     <g style="fill:#262626;" transform="translate(236.497751 149.150303)scale(0.09 -0.09)">
      <use transform="scale(0.996264)" xlink:href="#CMR17-114"/>
      <use transform="translate(35.280768 0)scale(0.996264)" xlink:href="#CMR17-101"/>
      <use transform="translate(75.766428 0)scale(0.996264)" xlink:href="#CMR17-108"/>
      <use transform="translate(100.637487 0)scale(0.996264)" xlink:href="#CMR17-97"/>
      <use transform="translate(146.327964 0)scale(0.996264)" xlink:href="#CMR17-116"/>
      <use transform="translate(181.608732 0)scale(0.996264)" xlink:href="#CMR17-105"/>
      <use transform="translate(206.47979 0)scale(0.996264)" xlink:href="#CMR17-118"/>
      <use transform="translate(252.170252 0)scale(0.996264)" xlink:href="#CMR17-101"/>
      <use transform="translate(322.731879 0)scale(0.996264)" xlink:href="#CMR17-116"/>
      <use transform="translate(358.012647 0)scale(0.996264)" xlink:href="#CMR17-105"/>
      <use transform="translate(382.883705 0)scale(0.996264)" xlink:href="#CMR17-109"/>
      <use transform="translate(459.803295 0)scale(0.996264)" xlink:href="#CMR17-101"/>
      <use transform="translate(530.364922 0)scale(0.996264)" xlink:href="#CMR17-115"/>
      <use transform="translate(566.166259 0)scale(0.996264)" xlink:href="#CMR17-99"/>
      <use transform="translate(606.65192 0)scale(0.996264)" xlink:href="#CMR17-97"/>
      <use transform="translate(652.342397 0)scale(0.996264)" xlink:href="#CMR17-108"/>
      <use transform="translate(677.213456 0)scale(0.996264)" xlink:href="#CMR17-101"/>
      <use transform="translate(754.385152 0.006461)scale(0.996264)" xlink:href="#CMR17-126"/>
      <use transform="translate(747.775082 0)scale(0.996264)" xlink:href="#CMMI12-28"/>
      <use transform="translate(801.266248 0)scale(0.996264)" xlink:href="#CMMI12-61"/>
      <use transform="translate(850.041166 0)scale(0.996264)" xlink:href="#CMMI12-28"/>
     </g>
    </g>
   </g>
   <g id="matplotlib.axis_4">
    <g id="ytick_7">
     <g id="line2d_70">
      <g>
       <use style="stroke:#000000;stroke-width:0.8;" x="213.760492" xlink:href="#mc118995e4a" y="127.22"/>
      </g>
     </g>
     <g id="text_18">
      <!-- $0.0$ -->
      <g transform="translate(197.22 129.813394)scale(0.07497 -0.07497)">
       <use transform="scale(0.996264)" xlink:href="#CMR17-48"/>
       <use transform="translate(45.690477 0)scale(0.996264)" xlink:href="#CMMI12-58"/>
       <use transform="translate(72.787654 0)scale(0.996264)" xlink:href="#CMR17-48"/>
      </g>
     </g>
    </g>
    <g id="ytick_8">
     <g id="line2d_71">
      <g>
       <use style="stroke:#000000;stroke-width:0.8;" x="213.760492" xlink:href="#mc118995e4a" y="104.296"/>
      </g>
     </g>
     <g id="text_19">
      <!-- $0.2$ -->
      <g transform="translate(197.22 106.889394)scale(0.07497 -0.07497)">
       <use transform="scale(0.996264)" xlink:href="#CMR17-48"/>
       <use transform="translate(45.690477 0)scale(0.996264)" xlink:href="#CMMI12-58"/>
       <use transform="translate(72.787654 0)scale(0.996264)" xlink:href="#CMR17-50"/>
      </g>
     </g>
    </g>
    <g id="ytick_9">
     <g id="line2d_72">
      <g>
       <use style="stroke:#000000;stroke-width:0.8;" x="213.760492" xlink:href="#mc118995e4a" y="81.372"/>
      </g>
     </g>
     <g id="text_20">
      <!-- $0.4$ -->
      <g transform="translate(197.22 83.965394)scale(0.07497 -0.07497)">
       <use transform="scale(0.996264)" xlink:href="#CMR17-48"/>
       <use transform="translate(45.690477 0)scale(0.996264)" xlink:href="#CMMI12-58"/>
       <use transform="translate(72.787654 0)scale(0.996264)" xlink:href="#CMR17-52"/>
      </g>
     </g>
    </g>
    <g id="ytick_10">
     <g id="line2d_73">
      <g>
       <use style="stroke:#000000;stroke-width:0.8;" x="213.760492" xlink:href="#mc118995e4a" y="58.448"/>
      </g>
     </g>
     <g id="text_21">
      <!-- $0.6$ -->
      <g transform="translate(197.22 61.041394)scale(0.07497 -0.07497)">
       <use transform="scale(0.996264)" xlink:href="#CMR17-48"/>
       <use transform="translate(45.690477 0)scale(0.996264)" xlink:href="#CMMI12-58"/>
       <use transform="translate(72.787654 0)scale(0.996264)" xlink:href="#CMR17-54"/>
      </g>
     </g>
    </g>
    <g id="ytick_11">
     <g id="line2d_74">
      <g>
       <use style="stroke:#000000;stroke-width:0.8;" x="213.760492" xlink:href="#mc118995e4a" y="35.524"/>
      </g>
     </g>
     <g id="text_22">
      <!-- $0.8$ -->
      <g transform="translate(197.22 38.117394)scale(0.07497 -0.07497)">
       <use transform="scale(0.996264)" xlink:href="#CMR17-48"/>
       <use transform="translate(45.690477 0)scale(0.996264)" xlink:href="#CMMI12-58"/>
       <use transform="translate(72.787654 0)scale(0.996264)" xlink:href="#CMR17-56"/>
      </g>
     </g>
    </g>
    <g id="ytick_12">
     <g id="line2d_75">
      <g>
       <use style="stroke:#000000;stroke-width:0.8;" x="213.760492" xlink:href="#mc118995e4a" y="12.6"/>
      </g>
     </g>
     <g id="text_23">
      <!-- $1.0$ -->
      <g transform="translate(197.22 15.193394)scale(0.07497 -0.07497)">
       <use transform="scale(0.996264)" xlink:href="#CMR17-49"/>
       <use transform="translate(45.690477 0)scale(0.996264)" xlink:href="#CMMI12-58"/>
       <use transform="translate(72.787654 0)scale(0.996264)" xlink:href="#CMR17-48"/>
      </g>
     </g>
    </g>
    <g id="text_24">
     <!-- $c(t)/c_0$ -->
     <g style="fill:#262626;" transform="translate(192.476538 83.277459)rotate(-90)scale(0.09 -0.09)">
      <use transform="translate(0 14.943915)scale(0.996264)" xlink:href="#CMMI12-99"/>
      <use transform="translate(41.983234 14.943915)scale(0.996264)" xlink:href="#CMR17-40"/>
      <use transform="translate(77.264001 14.943915)scale(0.996264)" xlink:href="#CMMI12-116"/>
      <use transform="translate(112.490332 14.943915)scale(0.996264)" xlink:href="#CMR17-41"/>
      <use transform="translate(147.771099 14.943915)scale(0.996264)" xlink:href="#CMMI12-61"/>
      <use transform="translate(196.546018 14.943915)scale(0.996264)" xlink:href="#CMMI12-99"/>
      <use transform="translate(238.529252 0)scale(0.697382)" xlink:href="#CMR17-48"/>
     </g>
    </g>
   </g>
   <g id="LineCollection_2">
    <path clip-path="url(#p67e46dd001)" d="M 213.760492 85.507236 
L 213.760492 81.886536 
" style="fill:none;stroke:#1f77b4;stroke-width:1.3;"/>
    <path clip-path="url(#p67e46dd001)" d="M 229.579942 97.408026 
L 229.579942 94.135178 
" style="fill:none;stroke:#1f77b4;stroke-width:1.3;"/>
    <path clip-path="url(#p67e46dd001)" d="M 241.546893 101.77489 
L 241.546893 98.91763 
" style="fill:none;stroke:#1f77b4;stroke-width:1.3;"/>
    <path clip-path="url(#p67e46dd001)" d="M 253.513845 100.179184 
L 253.513845 97.767385 
" style="fill:none;stroke:#1f77b4;stroke-width:1.3;"/>
    <path clip-path="url(#p67e46dd001)" d="M 269.333294 104.335905 
L 269.333294 101.391088 
" style="fill:none;stroke:#1f77b4;stroke-width:1.3;"/>
    <path clip-path="url(#p67e46dd001)" d="M 281.300246 103.799402 
L 281.300246 101.522936 
" style="fill:none;stroke:#1f77b4;stroke-width:1.3;"/>
    <path clip-path="url(#p67e46dd001)" d="M 293.267198 102.675149 
L 293.267198 100.080076 
" style="fill:none;stroke:#1f77b4;stroke-width:1.3;"/>
    <path clip-path="url(#p67e46dd001)" d="M 309.086647 99.73397 
L 309.086647 96.425136 
" style="fill:none;stroke:#1f77b4;stroke-width:1.3;"/>
    <path clip-path="url(#p67e46dd001)" d="M 321.053599 100.284644 
L 321.053599 97.019693 
" style="fill:none;stroke:#1f77b4;stroke-width:1.3;"/>
    <path clip-path="url(#p67e46dd001)" d="M 333.02055 99.725292 
L 333.02055 95.798876 
" style="fill:none;stroke:#1f77b4;stroke-width:1.3;"/>
    <path clip-path="url(#p67e46dd001)" d="M 348.84 97.247499 
L 348.84 93.136176 
" style="fill:none;stroke:#1f77b4;stroke-width:1.3;"/>
   </g>
   <g id="line2d_76">
    <path clip-path="url(#p67e46dd001)" d="M 213.760492 83.696886 
L 229.579942 95.771602 
L 241.546893 100.34626 
L 253.513845 98.973285 
L 269.333294 102.863496 
L 281.300246 102.661169 
L 293.267198 101.377613 
L 309.086647 98.079553 
L 321.053599 98.652169 
L 333.02055 97.762084 
L 348.84 95.191838 
" style="fill:none;stroke:#1f77b4;stroke-linecap:round;stroke-width:1.3;"/>
   </g>
   <g id="patch_6">
    <path d="M 213.760492 127.22 
L 213.760492 12.6 
" style="fill:none;stroke:#262626;stroke-linecap:square;stroke-linejoin:miter;stroke-width:0.8;"/>
   </g>
   <g id="patch_7">
    <path d="M 213.760492 127.22 
L 348.84 127.22 
" style="fill:none;stroke:#262626;stroke-linecap:square;stroke-linejoin:miter;stroke-width:0.8;"/>
   </g>
   <g id="text_25">
    <!-- $\tau_c = 20$ years -->
    <g transform="translate(254.787517 18.82665)scale(0.09 -0.09)">
     <use transform="translate(0 14.943915)scale(0.996264)" xlink:href="#CMMI12-28"/>
     <use transform="translate(42.363841 0)scale(0.697382)" xlink:href="#CMMI12-99"/>
     <use transform="translate(99.924113 14.943915)scale(0.996264)" xlink:href="#CMR17-61"/>
     <use transform="translate(199.31291 14.943915)scale(0.996264)" xlink:href="#CMR17-50"/>
     <use transform="translate(245.003387 14.943915)scale(0.996264)" xlink:href="#CMR17-48"/>
     <use transform="translate(320.76983 14.943915)scale(0.996264)" xlink:href="#CMR17-121"/>
     <use transform="translate(366.460292 14.943915)scale(0.996264)" xlink:href="#CMR17-101"/>
     <use transform="translate(406.945953 14.943915)scale(0.996264)" xlink:href="#CMR17-97"/>
     <use transform="translate(452.63643 14.943915)scale(0.996264)" xlink:href="#CMR17-114"/>
     <use transform="translate(487.917198 14.943915)scale(0.996264)" xlink:href="#CMR17-115"/>
    </g>
   </g>
   <g id="text_26">
    <!-- {\sf \textbf{B}} -->
    <defs>
     <path d="M 13.90625 69 
C 10.296875 69 9.09375 67.890625 9.09375 64.1875 
L 9.09375 4.796875 
C 9.09375 1.1875 10.203125 0 13.90625 0 
L 41.296875 0 
C 48.703125 0 67.09375 1.296875 67.09375 19.171875 
C 67.09375 33 53.203125 35.1875 49.5 35.796875 
C 58.703125 37.890625 64 43.109375 64 50.953125 
C 64 69 42.703125 69 38.5 69 
z
M 23.203125 39.1875 
L 23.203125 60.390625 
L 34.90625 60.390625 
C 38.796875 60.390625 50.40625 60.09375 50.40625 50.640625 
C 50.40625 39.1875 37.296875 39.1875 34.796875 39.1875 
z
M 23.203125 8.59375 
L 23.203125 32 
L 35.796875 32 
C 39.296875 32 53.203125 32 53.203125 19.359375 
C 53.203125 9.28125 42.5 8.59375 37.703125 8.59375 
z
" id="CMSSBX10-66"/>
    </defs>
    <g transform="translate(185.253624 18.82665)scale(0.09 -0.09)">
     <use transform="scale(0.996264)" xlink:href="#CMSSBX10-66"/>
    </g>
   </g>
  </g>
 </g>
 <defs>
  <clipPath id="pf0339735bb">
   <rect height="114.62" width="135.079508" x="38.620492" y="12.6"/>
  </clipPath>
  <clipPath id="p67e46dd001">
   <rect height="114.62" width="135.079508" x="213.760492" y="12.6"/>
  </clipPath>
 </defs>
</svg>
